<?xml version="1.0" encoding="UTF-8"?><svg xmlns="http://www.w3.org/2000/svg" xmlns:xlink="http://www.w3.org/1999/xlink" viewBox="0 0 102.5 14.76"><defs><clipPath id="uuid-7617c80d-2594-48a5-b0c2-8d4e1959d2e7"><rect x="8.45" width="2.6" height="2.6" style="fill:none; stroke-width:0px;"/></clipPath><clipPath id="uuid-eb2a3cc4-b80a-44eb-9cff-8f9fc21660a1"><rect x="9.75" width="2.6" height="2.6" style="fill:none; stroke-width:0px;"/></clipPath></defs><g style="isolation:isolate;"><g id="uuid-c5bc6fe4-fc67-4d2f-a000-cf56819e8690"><g id="uuid-fa905b8b-8d83-458c-be17-22c77b783eea"><g style="mix-blend-mode:multiply;"><g style="clip-path:url(#uuid-7617c80d-2594-48a5-b0c2-8d4e1959d2e7);"><path d="m11.05,1.3c0,.36-.13.67-.38.92-.25.25-.56.38-.92.38s-.67-.13-.92-.38c-.25-.25-.38-.56-.38-.92s.13-.67.38-.92C9.09.13,9.39,0,9.75,0s.67.13.92.38c.25.25.38.56.38.92" style="stroke-width:0px;"/></g></g><g style="mix-blend-mode:difference;"><g style="clip-path:url(#uuid-eb2a3cc4-b80a-44eb-9cff-8f9fc21660a1);"><path d="m12.35,1.3c0,.36-.13.67-.38.92-.25.25-.56.38-.92.38s-.67-.13-.92-.38c-.25-.25-.38-.56-.38-.92s.13-.67.38-.92C10.39.13,10.69,0,11.05,0s.67.13.92.38c.25.25.38.56.38.92" style="stroke-width:0px;"/></g></g><path d="m0,5.6c0-.32.09-.57.27-.75.18-.18.44-.27.78-.27s.6.09.78.27c.18.18.27.43.27.75v7.1h3.82c.61,0,.92.31.92.92s-.31.92-.92.92H1.05c-.34,0-.6-.09-.78-.27-.18-.18-.27-.43-.27-.75v-7.91Z" style="stroke-width:0px;"/><path d="m11.45,13.61c0,.32-.09.57-.27.75-.18.18-.44.27-.78.27s-.6-.09-.78-.27c-.18-.18-.27-.43-.27-.75V5.6c0-.32.09-.57.27-.75.18-.18.44-.28.78-.28s.6.09.78.28c.18.18.27.43.27.75v8Z" style="stroke-width:0px;"/><path d="m20.12,10.78c-.28,0-.5-.08-.66-.24-.16-.16-.24-.38-.24-.66s.08-.5.24-.66c.16-.16.38-.24.66-.24h2.29c.29,0,.52.08.67.25.15.17.23.39.23.67v3.16c0,.49-.26.86-.79,1.1-.39.18-.87.33-1.43.44-.56.11-1.14.17-1.73.17-1.48,0-2.64-.43-3.48-1.29-.84-.86-1.26-2.14-1.26-3.85,0-.84.12-1.59.35-2.23.23-.64.56-1.18.99-1.62.43-.44.94-.77,1.54-.99.6-.22,1.27-.33,2.02-.33.57,0,1.13.06,1.66.19.53.13.98.28,1.33.47.21.11.35.24.43.38.08.14.12.29.12.45,0,.24-.07.46-.22.63-.15.18-.36.27-.64.27-.16,0-.32-.03-.5-.09-.17-.06-.36-.13-.57-.19-.21-.07-.44-.13-.69-.19-.25-.06-.53-.09-.84-.09-.88,0-1.58.26-2.1.78-.52.52-.78,1.38-.78,2.58s.24,2.06.73,2.6c.49.53,1.15.8,1.98.8.33,0,.65-.02.97-.06.32-.04.6-.1.84-.2v-1.98h-1.16Z" style="stroke-width:0px;"/><path d="m35.22,13.61c0,.32-.09.57-.27.75-.18.18-.44.27-.78.27s-.6-.09-.78-.27c-.18-.18-.27-.43-.27-.75v-3.23h-4.22v3.23c0,.32-.09.57-.27.75-.18.18-.44.27-.78.27s-.6-.09-.78-.27c-.18-.18-.27-.43-.27-.75V5.6c0-.32.09-.57.27-.75.18-.18.44-.28.78-.28s.6.09.78.28c.18.18.27.43.27.75v2.97h4.22v-2.97c0-.32.09-.57.27-.75.18-.18.44-.28.78-.28s.6.09.78.28c.18.18.27.43.27.75v8Z" style="stroke-width:0px;"/><path d="m46.62,5.62c0,.29-.08.53-.25.7-.16.17-.39.26-.69.26h-2.48v7.03c0,.32-.09.57-.27.75-.18.18-.44.28-.78.28s-.6-.09-.78-.28c-.18-.18-.27-.43-.27-.75v-7.03h-2.48c-.29,0-.52-.09-.69-.26-.17-.17-.25-.4-.25-.7s.08-.54.25-.71c.16-.16.39-.25.69-.25h7.05c.29,0,.52.08.69.25.17.17.25.4.25.71" style="stroke-width:0px;"/><path d="m57.51,13.61c0,.32-.09.57-.27.75-.18.18-.44.27-.78.27s-.6-.09-.78-.27c-.18-.18-.27-.43-.27-.75v-3.23h-4.22v3.23c0,.32-.09.57-.27.75-.18.18-.44.27-.78.27s-.6-.09-.78-.27c-.18-.18-.27-.43-.27-.75V5.6c0-.32.09-.57.27-.75.18-.18.44-.28.78-.28s.6.09.78.28c.18.18.27.43.27.75v2.97h4.22v-2.97c0-.32.09-.57.27-.75.18-.18.44-.28.78-.28s.6.09.78.28c.18.18.27.43.27.75v8Z" style="stroke-width:0px;"/><path d="m70.25,9.61c0,1.63-.41,2.89-1.24,3.8-.83.91-2,1.36-3.53,1.36s-2.71-.45-3.53-1.36c-.83-.91-1.24-2.17-1.24-3.8s.41-2.89,1.24-3.8c.83-.91,2-1.36,3.53-1.36s2.71.45,3.53,1.36c.83.91,1.24,2.17,1.24,3.8m-7.45,0c0,1.11.23,1.96.69,2.53.46.58,1.12.86,1.99.86s1.53-.29,1.99-.86c.46-.57.69-1.42.69-2.53s-.23-1.96-.69-2.53c-.46-.57-1.12-.86-1.99-.86s-1.53.29-1.99.86c-.46.58-.69,1.42-.69,2.53" style="stroke-width:0px;"/><path d="m77.63,12.95c.73,0,1.27-.2,1.6-.61.33-.4.5-.97.5-1.71v-5.03c0-.32.09-.57.27-.75.18-.18.44-.28.78-.28s.62.09.79.28c.17.18.26.43.26.75v4.9c0,.69-.1,1.29-.29,1.83-.2.53-.48.98-.84,1.34-.37.36-.81.63-1.32.82-.51.18-1.09.28-1.73.28s-1.21-.09-1.73-.28c-.51-.18-.95-.46-1.32-.82-.37-.36-.65-.81-.84-1.34-.2-.53-.29-1.14-.29-1.83v-4.9c0-.32.09-.57.26-.75.17-.18.43-.28.79-.28s.6.09.78.28c.18.18.27.43.27.75v5.03c0,.73.17,1.3.5,1.71.33.4.86.61,1.6.61" style="stroke-width:0px;"/><path d="m92.42,11.86c0,.42-.09.8-.26,1.16-.17.36-.42.66-.75.92-.33.26-.73.46-1.19.61-.47.15-.99.22-1.58.22-.7,0-1.3-.07-1.81-.21-.51-.14-.98-.32-1.4-.54-.38-.2-.57-.47-.57-.83,0-.26.08-.47.23-.65.15-.18.36-.27.61-.27.2,0,.39.04.58.11.19.07.39.15.61.23.22.08.47.16.74.23.28.07.6.11.96.11.6,0,1.04-.09,1.31-.28.28-.19.41-.44.41-.74,0-.28-.1-.52-.28-.71-.19-.19-.53-.36-1.02-.52l-1.25-.39c-.97-.29-1.68-.68-2.14-1.16-.46-.48-.69-1.1-.69-1.87,0-.4.08-.78.23-1.12.15-.34.38-.64.67-.89.29-.25.65-.45,1.08-.6.43-.15.91-.22,1.45-.22.66,0,1.24.05,1.75.16.51.1.98.25,1.4.45.2.09.34.2.42.34.09.14.13.3.13.47,0,.27-.08.49-.24.66-.16.17-.36.26-.61.26-.18,0-.36-.03-.53-.08-.17-.06-.36-.11-.57-.17-.21-.06-.44-.12-.71-.17-.26-.06-.57-.08-.93-.08-.54,0-.92.09-1.14.28-.22.19-.33.42-.33.69s.09.49.28.67c.19.18.52.34.98.49l1.27.39c1.02.32,1.74.72,2.18,1.21.44.49.66,1.11.66,1.87" style="stroke-width:0px;"/><path d="m97.56,6.5v2.07h3.01c.28,0,.5.08.66.24.16.16.24.38.24.66s-.08.5-.24.66c-.16.16-.38.24-.66.24h-3.01v2.33h4.02c.61,0,.92.31.92.92s-.31.92-.92.92h-5.07c-.34,0-.6-.09-.78-.28-.18-.18-.27-.43-.27-.75v-7.84c0-.67.35-1.01,1.05-1.01h5.07c.61,0,.92.31.92.92s-.31.92-.92.92h-4.02Z" style="stroke-width:0px;"/></g></g></g></svg>