<?xml version="1.0" encoding="UTF-8"?><svg id="uuid-36fea191-d5bb-429f-8c74-0fe4b08c8f80" xmlns="http://www.w3.org/2000/svg" viewBox="0 0 43.87 43.86"><g id="uuid-9338551c-1093-456b-9055-b7940f685b1d"><path d="m5.19,9.57s.04-.02.06,0c.16.13.36.1.59-.21.21-.27.18-.46.04-.57-.08-.06-.2-.08-.35.09l-.31.35c-.23.25-.44.28-.63.13-.2-.16-.28-.5.02-.89.32-.41.62-.41.85-.24.01,0,.02.03,0,.05l-.1.13s-.03.03-.06,0c-.12-.08-.31-.08-.52.18-.18.23-.18.45-.04.56.08.06.19.06.32-.09l.31-.34c.26-.28.49-.27.66-.14.18.14.31.48-.02.9-.32.4-.67.46-.9.28l-.02-.02s-.02-.03,0-.05l.11-.14Z" style="fill:#343333; stroke-width:0px;"/><path d="m8.16,7.04s.01.04,0,.05l-.13.13s-.04.01-.05,0l-.46-.46-.82.82.46.46s.01.04,0,.05l-.13.13s-.04.01-.05,0l-1.15-1.14s-.01-.04,0-.05l.13-.13s.04-.01.05,0l.53.53.82-.82-.53-.53s-.01-.04,0-.05l.13-.13s.04-.01.05,0l1.15,1.14Z" style="fill:#343333; stroke-width:0px;"/><path d="m8.65,5.66l.34.43.84-.66s.04,0,.06,0l.08.11s0,.04,0,.06l-1.01.79s-.04,0-.05,0l-1-1.27s0-.04,0-.05l.98-.78s.04,0,.06,0l.08.11s0,.04,0,.06l-.82.64.31.39.75-.59s.05,0,.06,0l.08.11s0,.04,0,.06l-.75.59Z" style="fill:#343333; stroke-width:0px;"/><path d="m10.49,4.55s.04,0,.05.01c.11.18.3.21.63.01.3-.18.32-.37.23-.52-.05-.09-.16-.14-.36-.04l-.42.22c-.3.16-.51.11-.64-.09-.13-.22-.09-.57.33-.83.44-.28.73-.17.88.07,0,.01,0,.03-.02.05l-.14.09s-.04.01-.06-.02c-.09-.12-.27-.18-.55,0-.25.15-.32.36-.23.52.05.09.16.12.33.03l.41-.21c.34-.18.56-.09.67.1.12.19.12.56-.33.83-.44.27-.79.2-.94-.05v-.02s-.02-.03,0-.04l.15-.09Z" style="fill:#343333; stroke-width:0px;"/><path d="m13.55,3.12l-.85.4v.35s-.01.04-.04.06l-.16.08s-.03,0-.03,0c0,0,0-.02,0-.04l.05-1.83.09-.04,1.44,1.12s.02.02.03.02,0,.02-.01.03l-.16.08s-.04.02-.07,0l-.28-.21Zm-.84.16l.65-.31-.4-.31c-.07-.06-.25-.23-.25-.23h-.02s.02.25.02.34v.5Z" style="fill:#343333; stroke-width:0px;"/><path d="m15.05,2.86s0,.04-.02.04l-.17.06s-.04,0-.04-.02l-.56-1.52s0-.04.02-.04l.17-.06s.04,0,.04.02l.56,1.52Z" style="fill:#343333; stroke-width:0px;"/><path d="m16.04,2.56s-.04,0-.04-.02l-.41-1.56s0-.04.02-.04l.67-.18c.5-.13.96.08,1.09.58.13.49-.11.9-.66,1.05l-.68.18Zm-.17-1.48l.32,1.22.47-.12c.43-.11.57-.4.47-.78-.1-.39-.43-.54-.8-.44l-.46.12Z" style="fill:#343333; stroke-width:0px;"/><path d="m18.36,1.74c.08-.01.16.04.18.12.01.08-.04.16-.12.18-.08.01-.16-.04-.18-.12-.01-.08.04-.16.12-.18" style="fill:#343333; stroke-width:0px;"/><path d="m19.52,1.27s.04.01.04.04c.02.21.18.33.56.29.35-.03.46-.19.44-.36,0-.1-.08-.2-.31-.2h-.47c-.34,0-.51-.13-.53-.36-.02-.25.17-.55.66-.59.52-.05.73.17.75.46,0,.01,0,.03-.04.03h-.16s-.04,0-.05-.03c-.03-.14-.16-.28-.48-.25-.29.03-.45.18-.44.36,0,.1.08.18.28.18h.46c.39-.01.54.16.56.38.02.23-.14.55-.67.6-.51.05-.79-.17-.82-.47v-.03s0-.03.03-.03l.17-.02Z" style="fill:#343333; stroke-width:0px;"/><path d="m23.49.9c-.02.54-.43.86-.94.84-.5-.02-.9-.35-.88-.9.02-.54.44-.86.94-.84.51.02.9.35.88.9m-1.57-.05c-.01.41.28.67.64.68.37.01.67-.23.68-.64.01-.41-.27-.66-.64-.68-.36-.01-.67.22-.68.64" style="fill:#343333; stroke-width:0px;"/><rect x="25.75" y="1.06" width=".19" height=".7" transform="translate(19.65 26.55) rotate(-79.29)" style="fill:#343333; stroke-width:0px;"/><path d="m28.34,2.13s.03.03.02.05c-.07.2.02.37.38.5.33.12.49.02.55-.15.03-.1.01-.22-.2-.31l-.43-.19c-.31-.14-.4-.33-.33-.56.09-.24.39-.43.85-.26.49.17.59.46.49.73,0,.01-.02.02-.05.01l-.16-.06s-.03-.02-.02-.06c.04-.14-.03-.32-.34-.43-.27-.1-.48-.03-.54.14-.03.1,0,.2.18.28l.42.18c.35.16.42.38.34.59-.08.21-.36.44-.86.27-.48-.17-.65-.49-.55-.76v-.03s.03-.03.05-.02l.16.06Z" style="fill:#343333; stroke-width:0px;"/><path d="m31.68,4.15s-.03.02-.05.02l-.16-.08s-.02-.03-.01-.05l.29-.58-1.04-.52-.29.58s-.03.02-.04.02l-.16-.08s-.02-.03-.02-.05l.72-1.45s.03-.02.04-.02l.16.08s.02.03.02.05l-.34.67,1.04.52.34-.67s.03-.02.04-.01l.16.08s.02.03.02.05l-.72,1.45Z" style="fill:#343333; stroke-width:0px;"/><path d="m33.14,4.18l-.3.46.89.59s.02.04.01.05l-.07.11s-.04.02-.05.01l-1.07-.7s-.02-.03,0-.05l.89-1.35s.03-.02.05,0l1.05.69s.02.04.01.05l-.07.11s-.04.02-.05.01l-.87-.57-.27.41.8.52s.02.04.01.05l-.07.11s-.04.02-.05.01l-.8-.52Z" style="fill:#343333; stroke-width:0px;"/><path d="m34.78,5.58s.02.04,0,.06c-.13.16-.11.36.19.6.27.22.46.19.57.05.06-.08.09-.2-.08-.36l-.34-.33c-.24-.24-.26-.45-.11-.63.16-.2.51-.27.89.05.4.33.39.64.21.86,0,.01-.03.01-.05,0l-.13-.11s-.02-.03,0-.06c.08-.12.09-.31-.17-.52-.22-.18-.45-.19-.56-.05-.06.08-.07.19.08.33l.33.32c.28.27.26.5.12.67-.14.17-.49.29-.9-.05-.4-.33-.44-.68-.25-.91l.02-.02s.03-.02.05,0l.13.11Z" style="fill:#343333; stroke-width:0px;"/><path d="m37.1,8.03l-.65-.67-.33.1s-.04,0-.07-.02l-.13-.13s0-.03,0-.03c0,0,.02,0,.03-.01l1.75-.53.07.07-.61,1.72s0,.03-.01.03c0,0-.02,0-.03,0l-.13-.13s-.03-.03-.01-.07l.12-.33Zm-.42-.75l.5.52.17-.47c.03-.09.14-.3.14-.3h-.01s-.22.08-.31.11l-.48.15Z" style="fill:#343333; stroke-width:0px;"/><path d="m37.82,9.36s-.04,0-.05,0l-.11-.14s0-.04,0-.05l1.26-1.01s.04,0,.05,0l.11.14s0,.04,0,.05l-1.26,1.01Z" style="fill:#343333; stroke-width:0px;"/><path d="m38.43,10.21s0-.04,0-.05l1.35-.89s.04,0,.05,0l.38.58c.28.43.23.94-.2,1.22-.43.28-.89.18-1.2-.29l-.38-.58Zm1.35-.63l-1.05.69.27.41c.24.37.57.41.89.2.33-.22.37-.58.16-.9l-.26-.4Z" style="fill:#343333; stroke-width:0px;"/><path d="m39.95,12.14c.04.07.01.17-.06.21-.07.04-.17.01-.21-.06-.04-.07-.01-.17.06-.21.07-.04.17-.01.21.06" style="fill:#343333; stroke-width:0px;"/><path d="m40.77,13.1s0,.04-.02.05c-.19.08-.26.27-.1.62.14.32.32.37.49.3.09-.04.17-.14.09-.35l-.16-.44c-.11-.32-.03-.52.18-.62.23-.1.57,0,.77.44.21.48.07.75-.2.86-.01,0-.03,0-.04-.03l-.07-.15s0-.04.03-.06c.13-.07.22-.24.09-.54-.12-.26-.31-.37-.48-.3-.09.04-.14.14-.08.33l.15.43c.13.36,0,.56-.19.65-.21.09-.57.04-.78-.44-.21-.47-.09-.81.18-.93h.03s.03-.02.04,0l.07.16Z" style="fill:#343333; stroke-width:0px;"/><path d="m42.37,16.74c-.52.16-.95-.14-1.1-.62-.14-.48.05-.96.57-1.12.52-.16.95.14,1.1.62.15.48-.05.96-.57,1.12m-.45-1.51c-.39.12-.54.48-.44.82.11.35.43.56.82.45.4-.12.55-.47.44-.82-.1-.35-.42-.57-.82-.45" style="fill:#343333; stroke-width:0px;"/><rect x="42.53" y="18.79" width=".19" height=".7" transform="translate(-2.16 5.82) rotate(-7.61)" style="fill:#343333; stroke-width:0px;"/><path d="m42.73,21.73s-.01.04-.04.04c-.21,0-.34.14-.35.52,0,.35.14.47.32.48.1,0,.21-.06.23-.28l.04-.47c.03-.34.19-.49.42-.48.26,0,.53.23.52.72,0,.52-.25.71-.54.7-.01,0-.03-.01-.03-.04v-.17s.01-.04.05-.04c.15-.01.3-.13.3-.46,0-.29-.13-.47-.31-.47-.1,0-.19.06-.21.26l-.04.46c-.04.38-.23.52-.45.51-.23,0-.53-.2-.52-.73,0-.51.25-.77.55-.77h.03s.03,0,.03.03v.17Z" style="fill:#343333; stroke-width:0px;"/><path d="m41.89,25.54s-.03-.02-.03-.04l.02-.18s.02-.03.04-.03l.65.09.16-1.15-.65-.09s-.03-.02-.03-.04l.02-.18s.02-.03.04-.03l1.6.22s.03.02.03.04l-.02.18s-.02.03-.04.03l-.75-.1-.16,1.15.75.1s.03.02.03.04l-.02.18s-.02.03-.04.03l-1.6-.22Z" style="fill:#343333; stroke-width:0px;"/><path d="m42.32,26.94l-.53-.14-.27,1.03s-.03.03-.05.03l-.13-.03s-.03-.03-.03-.05l.33-1.24s.02-.03.04-.02l1.56.41s.03.02.02.04l-.32,1.21s-.03.03-.05.03l-.13-.03s-.03-.03-.03-.05l.26-1-.48-.13-.24.92s-.03.03-.05.03l-.13-.03s-.03-.03-.03-.05l.24-.92Z" style="fill:#343333; stroke-width:0px;"/><path d="m41.52,28.94s-.03.03-.05.02c-.19-.07-.37.01-.51.37-.13.32-.03.49.13.56.09.04.22.02.31-.19l.2-.43c.15-.31.35-.39.56-.31.24.09.41.4.24.86-.19.49-.48.58-.75.47-.01,0-.02-.02-.01-.05l.06-.15s.02-.03.06-.02c.14.04.32-.02.44-.32.1-.27.04-.48-.13-.55-.09-.04-.2,0-.28.18l-.2.42c-.17.35-.39.41-.6.33-.21-.08-.43-.37-.24-.86.19-.48.51-.64.78-.53h.03s.03.03.02.05l-.06.16Z" style="fill:#343333; stroke-width:0px;"/><path d="m39.93,31.92l.44-.83-.2-.28s-.02-.04,0-.07l.08-.16s.02-.02.03-.01c0,0,.02.02.02.03l1.06,1.49-.05.09-1.83-.03s-.03,0-.04,0c0,0-.01-.02,0-.03l.09-.16s.02-.03.06-.03h.35Zm.57-.63l-.34.64h.5c.09.01.33.04.33.04h0s-.16-.19-.21-.27l-.29-.41Z" style="fill:#343333; stroke-width:0px;"/><path d="m38.89,33.02s-.02-.03,0-.05l.1-.15s.03-.02.05-.01l1.36.88s.02.03,0,.05l-.1.15s-.03.02-.05,0l-1.36-.88Z" style="fill:#343333; stroke-width:0px;"/><path d="m38.28,33.86s.03-.02.05,0l1.27,1s.02.03,0,.05l-.43.54c-.32.4-.82.52-1.22.19-.4-.32-.45-.78-.1-1.23l.43-.55Zm1.02,1.08l-.99-.78-.3.38c-.27.35-.21.67.09.91.31.25.67.17.9-.13l.3-.38Z" style="fill:#343333; stroke-width:0px;"/><path d="m36.92,35.92c-.06.06-.15.06-.21,0-.06-.06-.06-.15,0-.21.06-.06.15-.06.21,0,.06.06.06.15,0,.21" style="fill:#343333; stroke-width:0px;"/><path d="m36.28,36.99s-.04.02-.06,0c-.14-.15-.34-.16-.62.1-.26.23-.25.42-.13.56.07.07.18.11.36-.03l.37-.29c.27-.21.48-.2.64-.02.17.19.19.54-.17.87-.39.35-.69.3-.88.09,0-.01-.01-.03.01-.05l.12-.11s.03-.02.06,0c.11.1.3.13.54-.09.21-.19.25-.41.13-.55-.07-.07-.18-.09-.33.03l-.36.28c-.31.24-.53.19-.68.02-.15-.17-.22-.53.17-.88.38-.34.74-.34.93-.12l.02.02s.01.03,0,.05l-.13.12Z" style="fill:#343333; stroke-width:0px;"/><path d="m33.34,39.67c-.31-.44-.17-.95.24-1.24.41-.29.93-.26,1.24.18.31.44.17.95-.24,1.24-.41.29-.93.26-1.24-.18m1.28-.91c-.24-.33-.62-.36-.92-.15-.3.21-.4.58-.16.92.24.34.62.37.92.15.3-.21.4-.58.16-.92" style="fill:#343333; stroke-width:0px;"/><rect x="30.79" y="40.59" width=".7" height=".19" transform="translate(-14.79 17.99) rotate(-26.27)" style="fill:#343333; stroke-width:0px;"/><path d="m28.72,41.6s-.04,0-.05-.03c-.06-.2-.24-.28-.61-.17-.33.11-.41.28-.35.45.03.1.12.18.34.13l.46-.11c.33-.08.52.02.59.25.08.24-.05.57-.52.72-.5.16-.75-.01-.84-.29,0-.01,0-.03.03-.04l.16-.05s.04,0,.05.03c.06.13.22.24.53.14.28-.09.4-.27.35-.44-.03-.1-.12-.16-.32-.11l-.45.11c-.38.09-.56-.05-.63-.26-.07-.22.02-.57.52-.73.49-.15.81,0,.9.28v.03s0,.03-.01.04l-.17.05Z" style="fill:#343333; stroke-width:0px;"/><path d="m24.84,42.01s.01-.04.03-.04l.18-.03s.04.01.04.03l.12.64,1.14-.21-.12-.64s.01-.04.03-.04l.18-.03s.04.01.04.03l.3,1.59s-.01.04-.03.04l-.18.03s-.04-.01-.04-.03l-.14-.74-1.14.21.14.74s-.01.04-.03.04l-.18.03s-.04-.01-.04-.03l-.3-1.59Z" style="fill:#343333; stroke-width:0px;"/><path d="m23.65,42.86l-.04-.55-1.06.07s-.04-.02-.04-.04v-.13s.01-.04.03-.04l1.28-.08s.03.01.04.03l.1,1.61s-.01.03-.03.04l-1.25.08s-.04-.02-.04-.04v-.13s.01-.04.03-.04l1.04-.07-.03-.49-.95.06s-.04-.02-.04-.04v-.13s.01-.04.03-.04l.95-.06Z" style="fill:#343333; stroke-width:0px;"/><path d="m21.5,42.73s-.04-.02-.04-.04c0-.21-.13-.35-.51-.37-.35-.02-.48.12-.49.3,0,.1.05.21.28.24l.47.05c.34.04.48.2.47.44-.01.26-.25.52-.74.5-.52-.02-.7-.27-.69-.56,0-.01.01-.03.04-.03h.17s.04.02.04.06c0,.15.12.3.45.32.29.01.47-.12.48-.3,0-.1-.06-.19-.26-.21l-.46-.05c-.38-.05-.51-.24-.5-.46.01-.23.22-.53.74-.5.51.02.76.28.75.57v.03s-.01.03-.04.03h-.17Z" style="fill:#343333; stroke-width:0px;"/><path d="m18.17,42.17l.92.15.2-.28s.03-.03.06-.03l.18.03s.02.01.02.02c0,0-.01.02-.02.03l-1.07,1.48-.1-.02-.56-1.74s0-.03,0-.04c0,0,.01-.02.03-.02l.18.03s.04,0,.05.05l.11.33Zm.78.34l-.71-.11.15.48c.03.09.08.32.08.32h.02s.12-.21.17-.28l.3-.41Z" style="fill:#343333; stroke-width:0px;"/><path d="m16.79,41.54s.02-.03.04-.02l.17.04s.03.02.02.04l-.4,1.57s-.02.03-.04.02l-.17-.04s-.03-.02-.02-.04l.4-1.57Z" style="fill:#343333; stroke-width:0px;"/><path d="m15.8,41.23s.03.03.02.04l-.54,1.52s-.03.03-.04.02l-.65-.23c-.48-.17-.75-.61-.57-1.1.17-.48.6-.68,1.13-.49l.66.24Zm-.7,1.31l.42-1.18-.46-.16c-.42-.15-.7,0-.83.37-.13.38.06.69.41.81l.45.16Z" style="fill:#343333; stroke-width:0px;"/><path d="m13.42,40.6c-.08-.03-.11-.12-.07-.2.03-.08.12-.11.2-.08.08.04.11.12.08.2-.04.08-.12.11-.2.07" style="fill:#343333; stroke-width:0px;"/><path d="m12.2,40.33s-.03-.03-.01-.05c.1-.18.04-.37-.29-.56-.3-.17-.48-.1-.57.05-.05.09-.05.21.14.34l.39.26c.28.19.34.4.22.6-.13.22-.45.35-.88.11-.46-.26-.5-.56-.36-.81,0-.01.02-.02.05,0l.14.08s.03.03.01.06c-.06.13-.03.32.26.48.25.14.47.11.56-.05.05-.09.03-.2-.13-.31l-.38-.26c-.32-.22-.35-.45-.24-.64.11-.2.43-.37.89-.11.45.25.56.59.41.85v.02s-.04.02-.06.01l-.15-.09Z" style="fill:#343333; stroke-width:0px;"/><path d="m8.73,38.39c.32-.44.84-.46,1.25-.16.4.3.54.8.22,1.24-.32.44-.85.46-1.25.16-.41-.3-.54-.8-.22-1.24m1.27.93c.24-.33.15-.71-.14-.92-.3-.22-.68-.19-.92.14-.25.33-.15.7.14.92.29.21.68.2.92-.14" style="fill:#343333; stroke-width:0px;"/><rect x="6.98" y="36.27" width=".19" height=".7" transform="translate(-23.68 15.51) rotate(-44.6)" style="fill:#343333; stroke-width:0px;"/><path d="m5.43,34.62s-.01-.04,0-.05c.17-.12.19-.32-.03-.63-.21-.28-.4-.29-.54-.19-.08.06-.13.17-.01.36l.25.4c.18.29.14.5-.05.64-.21.15-.56.13-.85-.26-.31-.42-.23-.71,0-.88.01,0,.03,0,.05.02l.1.13s.02.04-.01.06c-.11.1-.16.28.03.55.17.23.39.29.53.19.08-.06.11-.17,0-.33l-.24-.39c-.2-.33-.13-.55.05-.68.18-.13.55-.16.86.26.3.41.26.77.02.94l-.02.02s-.03.01-.04,0l-.1-.14Z" style="fill:#343333; stroke-width:0px;"/><path d="m3.81,31.07s.04,0,.05.01l.09.16s0,.04-.01.05l-.57.32.57,1.01.57-.32s.04,0,.05.01l.09.16s0,.04-.01.05l-1.41.79s-.04,0-.05-.01l-.09-.16s0-.04.01-.05l.66-.37-.57-1.01-.66.37s-.04,0-.05-.01l-.09-.16s0-.04.01-.05l1.41-.79Z" style="fill:#343333; stroke-width:0px;"/><path d="m2.62,30.21l.51-.21-.4-.99s0-.04.02-.05l.13-.05s.04,0,.05.02l.48,1.18s0,.04-.02.04l-1.5.61s-.04,0-.04-.02l-.47-1.16s0-.04.02-.05l.13-.05s.04,0,.05.02l.39.96.46-.19-.36-.88s0-.04.02-.05l.12-.05s.04,0,.05.02l.36.88Z" style="fill:#343333; stroke-width:0px;"/><path d="m2.06,28.13s0-.04.03-.05c.2-.06.29-.23.19-.6-.1-.34-.27-.41-.44-.37-.1.03-.18.11-.14.34l.1.46c.07.33-.04.52-.27.59-.25.07-.57-.07-.7-.54-.14-.5.04-.75.31-.83.01,0,.03,0,.04.03l.05.16s0,.04-.03.05c-.14.05-.25.21-.16.52.08.28.26.41.43.36.1-.03.16-.12.12-.31l-.09-.45c-.08-.38.07-.56.28-.62.22-.06.57.04.71.55.14.49-.02.81-.3.89h-.03s-.03,0-.04-.02l-.05-.17Z" style="fill:#343333; stroke-width:0px;"/><path d="m1.54,24.8l.15.92.33.1s.04.02.05.05l.03.18s0,.03-.02.03c0,0-.02,0-.04,0l-1.74-.55-.02-.1,1.48-1.08s.02-.02.03-.02c0,0,.02,0,.02.02l.03.18s0,.04-.03.06l-.28.21Zm-.08.85l-.12-.71-.41.29c-.08.06-.28.17-.28.17v.02s.24.05.33.08l.48.15Z" style="fill:#343333; stroke-width:0px;"/><path d="m1.7,23.29s.03.01.04.03v.18s0,.03-.02.04l-1.61.12s-.04-.01-.04-.03v-.18s0-.03.02-.04l1.61-.12Z" style="fill:#343333; stroke-width:0px;"/><path d="m1.68,22.25s-.02.03-.03.03l-1.62-.03S0,22.23,0,22.22v-.69c.02-.51.36-.9.87-.89.51.01.84.35.82.92v.7Zm-1.47-.24l1.26.03v-.49c.02-.44-.22-.66-.61-.67-.4,0-.63.27-.64.65v.48Z" style="fill:#343333; stroke-width:0px;"/><path d="m1.53,19.79c0-.08.08-.14.17-.14.08,0,.14.08.14.17,0,.08-.08.14-.17.14-.08,0-.14-.08-.13-.17" style="fill:#343333; stroke-width:0px;"/><path d="m1.39,18.55s.02-.04.05-.03c.2.04.36-.08.44-.45.07-.34-.06-.49-.23-.52-.1-.02-.22.02-.27.24l-.12.45c-.09.33-.27.45-.5.4-.25-.05-.48-.32-.39-.8.1-.51.37-.65.65-.6.01,0,.03.02.02.05l-.03.16s-.02.04-.05.03c-.15-.01-.31.07-.38.4-.05.28.05.48.22.52.1.02.2-.03.25-.22l.12-.45c.1-.37.31-.47.53-.43.22.04.49.29.39.81-.1.5-.38.72-.67.66h-.03s-.03-.02-.02-.04l.03-.17Z" style="fill:#343333; stroke-width:0px;"/><path d="m2.13,14.63c.52.17.7.65.55,1.13-.15.48-.59.77-1.11.6-.52-.17-.7-.66-.55-1.13.15-.48.59-.77,1.11-.6m-.48,1.5c.39.12.72-.09.83-.43.11-.35-.03-.71-.42-.83-.4-.13-.71.08-.83.43-.11.34.03.7.42.83" style="fill:#343333; stroke-width:0px;"/><rect x="2.93" y="12.41" width=".7" height=".19" transform="translate(-9.36 9.77) rotate(-63.1)" style="fill:#343333; stroke-width:0px;"/><path d="m25.65,20.87h12.01c0-.43-.15-.86-.48-1.19l-5.5-5.62c-.19-.2-.42-.34-.67-.42l-5.36,7.23Z" style="stroke-width:0px;"/><path d="m21.64,24.56v-8.13c-.1-.02-.2-.04-.29-.08l-7.4-2.7c-.15-.06-.31-.09-.46-.1l8.15,11Z" style="stroke-width:0px;"/><path d="m22.21,24.56l8.15-11c-.16.01-.31.04-.46.1l-7.4,2.7c-.1.04-.19.06-.29.08v8.13Z" style="stroke-width:0px;"/><path d="m18.2,20.87l-5.36-7.23c-.25.08-.48.22-.67.42l-5.5,5.62c-.33.34-.49.77-.48,1.19h12.01Z" style="stroke-width:0px;"/><path d="m25.23,21.44l-3.02,4.08v4.79c.18-.03.36-.09.53-.19l14.06-7.79c.37-.21.63-.53.77-.89h-12.33Z" style="stroke-width:0px;"/><path d="m21.64,25.52l-3.02-4.08H6.29c.13.36.39.69.77.89l14.06,7.79c.17.09.35.15.53.19v-4.79Z" style="stroke-width:0px;"/></g></svg>