<?xml version="1.0" encoding="UTF-8"?><svg id="uuid-d0ca5497-3132-4d23-b5f5-d2083714fa72" xmlns="http://www.w3.org/2000/svg" viewBox="0 0 138.49 37.92"><g id="uuid-3b873e00-ae76-4a3b-a952-1e1f5425dcd4"><path d="m22.66,15.26c-.15-.01-.3-.04-.45-.04-2.17,0-4.33,0-6.5-.01-.38,0-.48.1-.48.48.01,4.72,0,9.44.02,14.16,0,.39-.08.5-.49.5-2.2-.02-4.39-.01-6.59,0-.18,0-.36.01-.54.02-.02-.02-.04-.03-.05-.05,0-2.44.01-4.87.03-7.31,0-.35-.24-.24-.4-.24-2.23,0-4.46-.01-6.68,0-.41,0-.52-.09-.52-.51.02-2.2.02-4.39,0-6.59,0-.43.13-.5.52-.5,4.71.01,9.42,0,14.14.02.4,0,.5-.1.5-.5-.02-2.2-.02-4.39,0-6.59,0-.38-.11-.48-.48-.48-2.2.02-4.4,0-6.59.02-.36,0-.49-.06-.48-.46.02-2.24.02-4.48,0-6.72,0-.33.05-.46.43-.46,2.24.02,4.49.02,6.73,0,.38,0,.43.12.43.46-.01,2.24,0,4.48-.02,6.72,0,.34.09.42.42.42,2.23-.02,4.46,0,6.68-.02.38,0,.51.06.5.48-.02,2.38,0,4.75,0,7.13-.04.02-.08.04-.12.06Z" style="stroke-width:0px;"/><path d="m77.35,22.76c0-2.38,0-4.75,0-7.13,0-.34.08-.43.42-.42,2.15.02,4.31,0,6.46,0,2.69,0,4.71,1.4,5.48,3.96.85,2.79.7,5.55-.66,8.16-.93,1.78-2.45,2.78-4.47,2.9-2.31.14-4.63.02-6.95.06-.36,0-.28-.22-.28-.41,0-2.38,0-4.75,0-7.13Zm3.12,0c0,1.49.01,2.98,0,4.47,0,.35.1.42.43.42.84-.02,1.69,0,2.53,0,1.43,0,2.46-.69,2.98-2.03.71-1.83.73-3.69.19-5.55-.42-1.42-1.28-2.05-2.75-2.17-.99-.08-1.99,0-2.98-.05-.33-.01-.4.11-.4.41.01,1.5,0,3.01,0,4.51Z" style="fill:#393939; stroke-width:0px;"/><path d="m105.45,28.65c-.97,1.61-2.37,1.85-3.94,1.59-1.6-.26-2.75-1.14-3.34-2.63-.89-2.24-.91-4.5.29-6.64,1.13-2.02,3.73-2.75,5.71-1.72.57.3.97.77,1.38,1.4,0-.51,0-.91,0-1.31,0-.19.06-.26.26-.26.77,0,1.54.01,2.3,0,.25,0,.3.1.3.32-.01.51,0,1.02,0,1.53,0,3.14.02,6.29,0,9.43-.01,1.77-.68,3.18-2.41,3.91-.68.29-1.4.42-2.14.49-1.35.13-2.68.06-3.93-.5-1.11-.5-1.9-1.29-2.07-2.58-.04-.28.06-.3.27-.29.89,0,1.78,0,2.66,0,.19,0,.29.04.35.25.12.45.45.69.89.79.61.14,1.21.18,1.83.05.85-.18,1.35-.74,1.51-1.68.12-.67.09-1.35.08-2.17Zm.01-3.88c0-.94-.16-1.73-.65-2.41-.96-1.35-2.92-1.31-3.67.14-.72,1.39-.74,2.87,0,4.27.63,1.19,2.41,1.4,3.39.48.75-.71.88-1.64.92-2.48Z" style="fill:#393939; stroke-width:0px;"/><path d="m22.66,15.26s.08-.04.12-.06c2.27,0,4.55.01,6.82.02,2.8,0,4.61,1.82,4.62,4.63,0,1.75-.55,3.24-2.04,4.27-.87.61-1.89.74-2.92.76-1.01.02-2.02.02-3.03,0-.33,0-.44.08-.43.42.02,1.53,0,3.07.02,4.6,0,.31-.08.42-.4.41-.77-.02-1.54-.03-2.3,0-.37.01-.48-.09-.48-.47.02-3.25,0-6.5,0-9.75,0-1.61.01-3.22.02-4.83Zm3.15,4.79c0,.62,0,1.23,0,1.85,0,.21.01.33.28.32.95-.02,1.9.02,2.84-.01,1.38-.05,2.06-.78,2.11-2.17.04-1.27-.57-1.97-1.92-2.13-1.02-.12-2.04-.05-3.06-.06-.25,0-.26.14-.25.32,0,.63,0,1.26,0,1.89Z" style="fill:#393939; stroke-width:0px;"/><path d="m129.94,29c-.79.86-1.69,1.37-2.78,1.48-1.19.12-2.32.01-3.29-.85-1.33-1.18-1.34-4.52,1.01-5.53.97-.42,2.01-.45,3.03-.63.4-.07.8-.11,1.2-.19.38-.09.72-.25.77-.7.05-.45-.07-.86-.48-1.08-.76-.4-1.57-.4-2.35-.1-.43.17-.7.54-.76.99-.04.33-.2.37-.48.36-.69-.02-1.39-.03-2.08,0-.38.02-.41-.12-.35-.44.36-2.05,1.39-3.1,3.44-3.4,1.35-.2,2.7-.19,3.99.32,1.4.55,2.02,1.47,2.02,2.97,0,2.03,0,4.06,0,6.09,0,.55-.01,1.12.56,1.47.15.09.08.28.06.42-.02.14-.17.1-.26.1-.89,0-1.78,0-2.66,0-.23,0-.33-.08-.37-.29-.06-.31-.13-.61-.22-1Zm-.06-4.04c-.3.1-.56.21-.83.28-.29.08-.59.13-.88.18-.49.08-.97.16-1.42.38-.59.28-.85.81-.77,1.52.06.57.45.97,1.1,1.07.78.11,1.47-.14,2.08-.63.93-.75.75-1.77.73-2.8Z" style="fill:#393939; stroke-width:0px;"/><path d="m63.71,24.65c.02-1.94.58-3.64,2.23-4.82,2.29-1.65,6.78-1.45,8.45,1.66.6,1.12.78,2.32.73,3.57-.04.89-.22,1.75-.61,2.56-.63,1.28-1.63,2.15-2.97,2.59-1.58.52-3.18.5-4.7-.18-2.13-.95-3-2.74-3.12-4.97,0-.13,0-.27,0-.41Zm3.07,0c-.02.62.06,1.23.29,1.81.39,1,1.14,1.52,2.2,1.56,1.06.04,1.94-.32,2.39-1.33.57-1.29.55-2.62.05-3.94-.7-1.82-3.36-1.75-4.22-.6-.56.75-.7,1.6-.71,2.5Z" style="fill:#393939; stroke-width:0px;"/><path d="m47.18,24.72c0,1.16-.21,2.27-.81,3.28-.83,1.38-2.08,2.15-3.65,2.44-1.39.26-2.73.13-4-.48-1.42-.68-2.32-1.83-2.72-3.34-.38-1.44-.35-2.88.14-4.29.72-2.09,2.68-3.45,4.96-3.5,1.38-.03,2.7.19,3.85,1.01,1.54,1.09,2.15,2.67,2.24,4.49,0,.13,0,.27,0,.41Zm-3.07-.11c.03-.42-.05-.93-.19-1.42-.3-1.08-1.11-1.77-2.14-1.83-1.36-.08-2.21.37-2.64,1.49-.48,1.27-.48,2.56.06,3.81.4.94,1.19,1.35,2.19,1.36,1,.01,1.82-.33,2.29-1.28.32-.65.43-1.34.42-2.14Z" style="fill:#393939; stroke-width:0px;"/><path d="m7.63,30.36c0,2.41,0,4.81.02,7.22,0,.28-.09.35-.36.35-2.32,0-4.63,0-6.95,0-.26,0-.33-.07-.33-.33,0-2.31,0-4.63,0-6.95,0-.27.07-.36.35-.36,2.41.01,4.81.01,7.22.02.02.02.03.04.05.05Z" style="stroke-width:0px;"/><path d="m117.11,24.86c0-1.1,0-2.2,0-3.29,0-.26-.04-.37-.34-.36-.37.01-.87.17-1.09-.06-.23-.25-.06-.74-.07-1.13,0-.92,0-.94.91-.91.47.02.62-.11.59-.58-.04-.7,0-1.41-.02-2.12,0-.29.09-.35.36-.34.75.02,1.51.03,2.26,0,.34-.01.39.11.38.41-.02.77,0,1.53-.01,2.3,0,.26.07.34.33.33.39-.02.78,0,1.17,0,.22,0,.33.03.32.29-.02.53-.01,1.05,0,1.58,0,.2-.05.26-.25.26-.42-.01-.84,0-1.26,0-.19,0-.3.02-.3.26,0,2,0,4,0,6,0,.37.2.59.56.64.3.04.59.1.89.03.24-.05.36-.01.35.28-.02.56,0,1.11,0,1.67,0,.16.02.29-.22.29-.96.02-1.92.11-2.87-.09-1.18-.25-1.69-.89-1.7-2.18-.01-1.08,0-2.17,0-3.25Z" style="fill:#393939; stroke-width:0px;"/><path d="m57.7,24.82c0-1.07,0-2.13,0-3.2,0-.3-.04-.44-.38-.41-.35.03-.84.12-1.04-.06-.24-.22-.07-.71-.07-1.08-.01-.97,0-.99.97-.96.41.01.55-.09.52-.51-.04-.72,0-1.44-.02-2.16,0-.26.04-.37.34-.36.78.02,1.56.02,2.35,0,.24,0,.31.07.3.3-.01.78,0,1.56-.01,2.34,0,.29.06.41.37.39.39-.03.78,0,1.17-.01.27-.01.33.09.32.33-.02.48-.02.96,0,1.44.01.27-.05.38-.34.36-.4-.03-.81,0-1.22-.01-.24-.01-.31.07-.3.31,0,1.95,0,3.91,0,5.86,0,.53.14.67.69.74.16.02.33.04.49.04.67,0,.67,0,.67.65,0,.44,0,.87,0,1.31,0,.15-.01.26-.21.26-.84,0-1.67.09-2.51-.03-1.53-.22-2.09-.82-2.11-2.37-.01-1.05,0-2.1,0-3.16Z" style="fill:#393939; stroke-width:0px;"/><path d="m52.05,20.92c.29-.4.47-.74.71-1.04.7-.88,1.63-1.11,2.69-1.06.2,0,.28.11.27.32-.01.81,0,1.62,0,2.44,0,.2-.06.25-.26.24-.25-.02-.51,0-.77,0-1.58,0-2.49.92-2.5,2.49,0,1.85,0,3.7,0,5.55,0,.34-.07.47-.44.46-.72-.03-1.44-.02-2.17,0-.28,0-.39-.05-.39-.37.01-3.49.01-6.98,0-10.47,0-.3.09-.39.38-.38.71.02,1.42.02,2.12,0,.27,0,.37.06.36.35-.02.46,0,.92,0,1.49Z" style="fill:#393939; stroke-width:0px;"/><path d="m135.5,22.7c0-2.31.01-4.63,0-6.94,0-.42.07-.59.53-.55.64.04,1.29.03,1.94,0,.4-.02.53.09.53.51-.02,3.01-.01,6.01-.01,9.02,0,1.68-.01,3.37,0,5.05,0,.38-.06.53-.49.51-.67-.04-1.35-.03-2.03,0-.37.02-.48-.08-.48-.47.02-2.37,0-4.75,0-7.13Z" style="fill:#393939; stroke-width:0px;"/><path d="m95.33,24.67c0,1.74,0,3.49,0,5.23,0,.32-.09.41-.4.4-.74-.02-1.47-.02-2.21,0-.25,0-.34-.07-.34-.33,0-3.52,0-7.04,0-10.55,0-.27.09-.33.34-.33.74.01,1.48.02,2.21,0,.32,0,.4.08.4.4-.02,1.73,0,3.46,0,5.19Z" style="fill:#393939; stroke-width:0px;"/><path d="m113.99,24.74c0,1.71,0,3.43,0,5.14,0,.3-.07.42-.39.41-.75-.02-1.5-.02-2.26,0-.25,0-.34-.07-.34-.33,0-3.52,0-7.03,0-10.55,0-.27.11-.32.35-.32.74.01,1.47.02,2.21,0,.33-.01.44.08.43.42-.02,1.74,0,3.49,0,5.23Z" style="fill:#393939; stroke-width:0px;"/><path d="m112.48,17.83c-.36,0-.72-.01-1.08,0-.28.02-.41-.04-.39-.36.02-.69.02-1.38,0-2.07,0-.25.07-.34.33-.33.78.02,1.56.02,2.35,0,.26,0,.33.08.32.33-.01.69-.02,1.38,0,2.07,0,.27-.06.38-.35.36-.39-.02-.78,0-1.17,0Z" style="fill:#393939; stroke-width:0px;"/><path d="m93.85,17.83c-.39,0-.78,0-1.17,0-.21,0-.29-.07-.29-.29,0-.74,0-1.47,0-2.21,0-.18.05-.27.25-.27.81,0,1.63,0,2.44,0,.2,0,.26.06.26.25-.01.75,0,1.5,0,2.26,0,.2-.08.26-.27.25-.41,0-.81,0-1.22,0Z" style="fill:#393939; stroke-width:0px;"/></g></svg>