<?xml version="1.0" encoding="UTF-8"?><svg id="uuid-583e9a77-dd7f-421b-9f10-803bbf66536c" xmlns="http://www.w3.org/2000/svg" viewBox="0 0 50.25 59.59"><g id="uuid-cd648b2d-40cf-41f2-8af3-8cbc50b31743"><polygon points="29.97 49.62 .02 49.62 .02 0 25.62 0 29.97 49.62" style="fill:#eb1b24; stroke-width:0px;"/><path d="m.02,16.38l13.3-.46-.27-7.18L.02,9.2v7.18ZM.02,35.13l12.45-.44-.27-7.18L.02,27.93v7.21Z" style="fill:#f6dd15; fill-rule:evenodd; stroke-width:0px;"/><path d="m.02,7.28l19.43,1.02.36-7.16L.02.1v7.18ZM.02,26.01l16.94.87.36-7.16L.02,18.83v7.18Z" style="fill:#279436; fill-rule:evenodd; stroke-width:0px;"/><path d="m.02,19l24.38-.85-.27-7.18L.02,11.82v7.18ZM.02,37.75l23.51-.83-.27-7.18-23.27.8v7.18l.02.02Z" style="fill:#1d3576; fill-rule:evenodd; stroke-width:0px;"/><path d="m.02,9.83l19.58.32.12-7.18L0,2.64v7.18h.02ZM.02,28.56l17.71.29.12-7.18L.02,21.38v7.18Z" style="fill:#eb1b24; fill-rule:evenodd; stroke-width:0px;"/><polygon points="23.39 0 50.25 0 50.25 49.62 19.05 49.62 23.39 0" style="fill:#279436; stroke-width:0px;"/><polygon points="50.25 6.09 19.14 7.21 20.58 49.62 30.21 49.62 29.63 32.78 50.25 32.03 50.25 24.85 29.38 25.6 28.99 14.05 50.25 13.3 50.25 6.09" style="fill:#f6dd15; fill-rule:evenodd; stroke-width:0px;"/><polygon points="50.25 8.25 30.55 8.95 31.91 49.62 41.54 49.62 41.03 34.53 50.25 34.19 50.25 27.01 40.79 27.35 40.4 15.8 50.25 15.46 50.25 8.25" style="fill:#1d3576; fill-rule:evenodd; stroke-width:0px;"/><polygon points="50.25 9.46 50.25 2.28 25.94 1.87 25.09 47.68 34.72 47.82 35.08 27.95 50.25 28.19 50.25 21.01 35.21 20.77 35.42 9.22 50.25 9.46" style="fill:#eb1b24; fill-rule:evenodd; stroke-width:0px;"/><path d="m1.07,58.09v-2.11h.75c.46,0,1.24-.22,1.24-1.31s-.63-1.38-1.24-1.38H.51v4.8h.56Zm0-4.27h.78c.12,0,.63.07.63.8s-.56.82-.78.82h-.63v-1.63Z" style="fill:#231f20; fill-rule:evenodd; stroke-width:0px;"/><path d="m6.26,56.41h-1.43l.7-2.57h.02l.7,2.57Zm-2.47,1.67h.58l.34-1.14h1.72l.32,1.14h.63l-1.46-4.8h-.73l-1.41,4.8Z" style="fill:#231f20; fill-rule:evenodd; stroke-width:0px;"/><path d="m11.16,54.62c.05-.92-.29-1.43-1.16-1.43s-1.43.39-1.43,1.75v1.36c0,1.87.85,1.89,1.41,1.89.29,0,1.29,0,1.26-1.53h-.58c0,.95-.53,1-.7,1-.44,0-.8-.15-.8-1.31v-1.29c0-.82.12-.95.12-.99.02-.07.19-.36.68-.36.12,0,.39.05.51.22.12.15.15.44.12.7h.58Zm-1.67,4.17c.07-.02.15-.05.24-.05.17,0,.29.1.29.27,0,.19-.19.27-.34.27s-.27-.05-.39-.1l-.1.27c.17.07.39.15.61.15.32,0,.7-.17.7-.63,0-.32-.24-.51-.51-.51-.07,0-.15.02-.19.05l-.02-.02.29-.39h-.29l-.39.58.1.12Z" style="fill:#231f20; fill-rule:evenodd; stroke-width:0px;"/><path d="m14.07,57.67c-.53,0-.83-.27-.83-1.31v-1.63c0-.99.63-1.04.83-1.04.17,0,.83.02.83,1.04v1.63c0,1.04-.29,1.31-.83,1.31Zm0,.51c.95,0,1.41-.53,1.41-1.87v-1.58c0-.97-.46-1.58-1.41-1.58s-1.41.61-1.41,1.58v1.58c0,1.33.46,1.87,1.41,1.87Z" style="fill:#231f20; fill-rule:evenodd; stroke-width:0px;"/><path d="m20.07,58.09h1.02c.78,0,1.21-.22,1.46-.63.19-.31.27-.92.27-1.94,0-.15-.02-1.12-.19-1.53-.22-.51-.63-.73-1.19-.73h-1.36v4.83Zm.56-4.27h.75c.58,0,.87.36.87,1.33v.97c0,1.12-.29,1.43-1.07,1.43h-.53v-3.74h-.02Z" style="fill:#231f20; fill-rule:evenodd; stroke-width:0px;"/><path d="m25.84,57.67c-.53,0-.83-.27-.83-1.31v-1.63c0-.99.63-1.04.83-1.04.17,0,.83.02.83,1.04v1.63c0,1.04-.29,1.31-.83,1.31Zm0,.51c.95,0,1.41-.53,1.41-1.87v-1.58c0-.97-.46-1.58-1.41-1.58s-1.41.61-1.41,1.58v1.58c0,1.33.46,1.87,1.41,1.87Z" style="fill:#231f20; fill-rule:evenodd; stroke-width:0px;"/><polygon points="33.97 53.28 31.76 53.28 31.76 58.09 32.34 58.09 32.34 55.9 33.87 55.9 33.87 55.37 32.34 55.37 32.34 53.82 33.97 53.82 33.97 53.28" style="fill:#231f20; fill-rule:evenodd; stroke-width:0px;"/><path d="m36.4,55.88c.19,0,.63.02.68.61.05.63.02,1.26.17,1.6h.58c-.1-.29-.15-1.04-.15-1.26-.02-.97-.22-1.14-.73-1.24v-.02c.53-.1.8-.53.8-1.09,0-.61-.27-1.19-1.07-1.19h-1.53v4.8h.56v-2.21h.68Zm-.65-2.06h.85c.44,0,.61.39.61.73,0,.41-.19.8-.61.8h-.85v-1.53Z" style="fill:#231f20; fill-rule:evenodd; stroke-width:0px;"/><polygon points="41.44 55.37 39.84 55.37 39.84 53.82 41.56 53.82 41.56 53.28 39.28 53.28 39.28 58.09 41.59 58.09 41.59 57.55 39.84 57.55 39.84 55.9 41.44 55.9 41.44 55.37" style="fill:#231f20; fill-rule:evenodd; stroke-width:0px;"/><polygon points="42.58 53.28 43.87 58.09 44.55 58.09 45.86 53.28 45.28 53.28 44.23 57.5 44.21 57.5 43.21 53.28 42.58 53.28" style="fill:#231f20; fill-rule:evenodd; stroke-width:0px;"/><path d="m48.45,57.67c-.53,0-.83-.27-.83-1.31v-1.63c0-.99.63-1.04.83-1.04.17,0,.82.02.82,1.04v1.63c0,1.04-.29,1.31-.82,1.31Zm0,.51c.95,0,1.41-.53,1.41-1.87v-1.58c0-.97-.46-1.58-1.41-1.58s-1.41.61-1.41,1.58v1.58c0,1.33.46,1.87,1.41,1.87Z" style="fill:#231f20; fill-rule:evenodd; stroke-width:0px;"/></g></svg>