<?xml version="1.0" encoding="UTF-8"?><svg id="uuid-3d229c10-c10a-4297-bca5-e6de81912e2b" xmlns="http://www.w3.org/2000/svg" xmlns:xlink="http://www.w3.org/1999/xlink" viewBox="0 0 113.56 44"><defs><clipPath id="uuid-3df6a666-a8ea-4857-ab00-0e6ebffecd95"><path d="m22.52,21.97c0,.1.08.18.18.18,2.42,0,4.38,1.97,4.38,4.38s-1.97,4.38-4.38,4.38c-.1,0-.18.08-.18.18s.08.18.18.18c2.61,0,4.74-2.13,4.74-4.74s-2.13-4.74-4.74-4.74c-.1,0-.18.08-.18.18" style="stroke-width:0px;"/></clipPath><clipPath id="uuid-7a0793e7-39bb-4cf4-8bf8-8f1d0ea2a2fc"><path d="m22.77,21.97c0,.1.08.18.18.18,2.56,0,4.64,2.08,4.64,4.64s-2.08,4.64-4.64,4.64c-.1,0-.18.08-.18.18s.08.18.18.18c2.75,0,4.99-2.24,4.99-4.99s-2.24-4.99-4.99-4.99c-.1,0-.18.08-.18.18" style="stroke-width:0px;"/></clipPath><clipPath id="uuid-422789a9-db17-4432-8989-0cd3ffaa7b67"><path d="m23.04,21.97c0,.1.08.18.18.18,2.71,0,4.91,2.2,4.91,4.91s-2.2,4.91-4.91,4.91c-.1,0-.18.08-.18.18s.08.18.18.18c2.9,0,5.26-2.36,5.26-5.26s-2.36-5.26-5.26-5.26c-.1,0-.18.08-.18.18" style="stroke-width:0px;"/></clipPath><clipPath id="uuid-0da1b729-64e6-4f31-b516-37fbe6d09a17"><path d="m23.33,21.97c0,.1.08.18.18.18,2.86,0,5.19,2.33,5.19,5.19s-2.33,5.19-5.19,5.19c-.1,0-.18.08-.18.18s.08.18.18.18c3.06,0,5.55-2.49,5.55-5.55s-2.49-5.55-5.55-5.55c-.1,0-.18.08-.18.18" style="stroke-width:0px;"/></clipPath><clipPath id="uuid-e65194f6-8585-4463-a55f-444f043cbe3d"><path d="m23.63,21.97c0,.1.08.18.18.18,3.03,0,5.49,2.46,5.49,5.49s-2.46,5.49-5.49,5.49c-.1,0-.18.08-.18.18s.08.18.18.18c3.23,0,5.85-2.62,5.85-5.85s-2.63-5.85-5.85-5.85c-.1,0-.18.08-.18.18" style="stroke-width:0px;"/></clipPath><clipPath id="uuid-d9ab3d44-6afd-4f3a-838e-d8035cebcff9"><path d="m23.95,21.97c0,.1.08.18.18.18,3.2,0,5.81,2.61,5.81,5.81s-2.61,5.81-5.81,5.81c-.1,0-.18.08-.18.18s.08.18.18.18c3.4,0,6.17-2.77,6.17-6.17s-2.77-6.17-6.17-6.17c-.1,0-.18.08-.18.18" style="stroke-width:0px;"/></clipPath><clipPath id="uuid-d7efa922-d735-4314-9f33-3f26c6669007"><path d="m24.29,21.97c0,.1.08.18.18.18,3.39,0,6.15,2.76,6.15,6.15s-2.76,6.15-6.15,6.15c-.1,0-.18.08-.18.18s.08.18.18.18c3.59,0,6.51-2.92,6.51-6.51s-2.92-6.51-6.51-6.51c-.1,0-.18.08-.18.18" style="stroke-width:0px;"/></clipPath><clipPath id="uuid-82cb2112-4f51-483c-8d9c-2826a4c2db93"><path d="m24.64,21.97c0,.1.08.18.18.18,3.59,0,6.5,2.92,6.5,6.5s-2.92,6.5-6.5,6.5c-.1,0-.18.08-.18.18s.08.18.18.18c3.78,0,6.86-3.08,6.86-6.86s-3.08-6.86-6.86-6.86c-.1,0-.18.08-.18.18" style="stroke-width:0px;"/></clipPath><clipPath id="uuid-c88ae98b-565c-4586-87c7-ca414a6fe7d6"><path d="m25.02,21.97c0,.1.08.18.18.18,3.79,0,6.88,3.09,6.88,6.88s-3.09,6.88-6.88,6.88c-.1,0-.18.08-.18.18s.08.18.18.18c3.99,0,7.24-3.25,7.24-7.24s-3.25-7.24-7.24-7.24c-.1,0-.18.08-.18.18" style="stroke-width:0px;"/></clipPath><clipPath id="uuid-fa06fae6-f598-45d6-9126-40033af5f976"><path d="m25.41,21.97c0,.1.08.18.18.18,4.01,0,7.28,3.26,7.28,7.28s-3.26,7.28-7.28,7.28c-.1,0-.18.08-.18.18s.08.18.18.18c4.21,0,7.63-3.42,7.63-7.63s-3.42-7.63-7.63-7.63c-.1,0-.18.08-.18.18" style="stroke-width:0px;"/></clipPath><clipPath id="uuid-08b1b798-877c-4104-8f37-b7e5752641d3"><path d="m25.83,21.97c0,.1.08.18.18.18,4.24,0,7.69,3.45,7.69,7.69s-3.45,7.69-7.69,7.69c-.1,0-.18.08-.18.18s.08.18.18.18c4.44,0,8.05-3.61,8.05-8.05s-3.61-8.05-8.05-8.05c-.1,0-.18.08-.18.18" style="stroke-width:0px;"/></clipPath><clipPath id="uuid-781331f2-4153-46ec-9584-7bb0c8f43ec7"><path d="m26.27,21.97c0,.1.08.18.18.18,4.49,0,8.14,3.65,8.14,8.14s-3.65,8.14-8.14,8.14c-.1,0-.18.08-.18.18s.08.18.18.18c4.68,0,8.49-3.81,8.49-8.49s-3.81-8.49-8.49-8.49c-.1,0-.18.08-.18.18" style="stroke-width:0px;"/></clipPath><clipPath id="uuid-161f7cbf-8e01-4621-bfa0-a5b812f5954d"><path d="m26.74,21.97c0,.1.08.18.18.18,4.74,0,8.6,3.86,8.6,8.6s-3.86,8.6-8.6,8.6c-.1,0-.18.08-.18.18s.08.18.18.18c4.94,0,8.96-4.02,8.96-8.96s-4.02-8.96-8.96-8.96c-.1,0-.18.08-.18.18" style="stroke-width:0px;"/></clipPath><clipPath id="uuid-4c6a32bf-34a5-4c8e-818a-8b8a66f411fd"><path d="m27.23,21.97c0,.1.08.18.18.18,5.02,0,9.1,4.08,9.1,9.1s-4.08,9.1-9.1,9.1c-.1,0-.18.08-.18.18s.08.18.18.18c5.21,0,9.45-4.24,9.45-9.45s-4.24-9.45-9.45-9.45c-.1,0-.18.08-.18.18" style="stroke-width:0px;"/></clipPath><clipPath id="uuid-36ec52ac-f2b0-4598-9d7f-d6fb34a62d52"><path d="m27.75,21.97c0,.1.08.18.18.18,5.3,0,9.62,4.31,9.62,9.62s-4.31,9.62-9.62,9.62c-.1,0-.18.08-.18.18s.08.18.18.18c5.5,0,9.98-4.48,9.98-9.98s-4.48-9.98-9.98-9.98c-.1,0-.18.08-.18.18" style="stroke-width:0px;"/></clipPath><clipPath id="uuid-d9318d3e-e9e5-4a50-82fa-1e07f524b74b"><path d="m28.3,21.97c0,.1.08.18.18.18,5.61,0,10.17,4.56,10.17,10.17s-4.56,10.17-10.17,10.17c-.1,0-.18.08-.18.18s.08.18.18.18c5.8,0,10.53-4.72,10.53-10.52s-4.72-10.53-10.53-10.53c-.1,0-.18.08-.18.18" style="stroke-width:0px;"/></clipPath><clipPath id="uuid-365433b2-535e-46b5-8441-3191e7ce75ac"><path d="m28.88,21.97c0,.1.08.18.18.18,5.93,0,10.75,4.82,10.75,10.75s-4.82,10.75-10.75,10.75c-.1,0-.18.08-.18.18s.08.18.18.18c6.12,0,11.11-4.98,11.11-11.11s-4.98-11.11-11.11-11.11c-.1,0-.18.08-.18.18" style="stroke-width:0px;"/></clipPath><clipPath id="uuid-8ed5a380-c6c7-4fcc-abaf-a786928802f1"><path d="m20.63,17.47c0,2.61,2.13,4.74,4.74,4.74.1,0,.18-.08.18-.18s-.08-.18-.18-.18c-2.42,0-4.38-1.96-4.38-4.38s1.96-4.38,4.38-4.38c.1,0,.18-.08.18-.18s-.08-.18-.18-.18c-2.61,0-4.74,2.13-4.74,4.74" style="stroke-width:0px;"/></clipPath><clipPath id="uuid-8657c350-366f-4d4b-864c-b9769921bf17"><path d="m20.12,17.22c0,2.75,2.24,4.99,4.99,4.99.1,0,.18-.08.18-.18s-.08-.18-.18-.18c-2.56,0-4.64-2.08-4.64-4.64s2.08-4.64,4.64-4.64c.1,0,.18-.08.18-.18s-.08-.18-.18-.18c-2.75,0-4.99,2.24-4.99,4.99" style="stroke-width:0px;"/></clipPath><clipPath id="uuid-91bff9e4-c620-4e13-ab5b-b7bf8c69dc6a"><path d="m19.58,16.95c0,2.9,2.36,5.26,5.26,5.26.1,0,.18-.08.18-.18s-.08-.18-.18-.18c-2.71,0-4.91-2.2-4.91-4.91s2.2-4.91,4.91-4.91c.1,0,.18-.08.18-.18s-.08-.18-.18-.18c-2.9,0-5.26,2.36-5.26,5.26" style="stroke-width:0px;"/></clipPath><clipPath id="uuid-6932ab33-d431-45e0-baf8-b139fd2e0fdd"><path d="m19.01,16.66c0,3.06,2.49,5.55,5.55,5.55.1,0,.18-.08.18-.18s-.08-.18-.18-.18c-2.86,0-5.19-2.33-5.19-5.19s2.33-5.19,5.19-5.19c.1,0,.18-.08.18-.18s-.08-.18-.18-.18c-3.06,0-5.55,2.49-5.55,5.55" style="stroke-width:0px;"/></clipPath><clipPath id="uuid-300f631c-8806-4c4b-b014-3f4b71fbd877"><path d="m18.4,16.36c0,3.23,2.63,5.85,5.85,5.85.1,0,.18-.08.18-.18s-.08-.18-.18-.18c-3.03,0-5.49-2.46-5.49-5.49s2.46-5.49,5.49-5.49c.1,0,.18-.08.18-.18s-.08-.18-.18-.18c-3.23,0-5.85,2.63-5.85,5.85" style="stroke-width:0px;"/></clipPath><clipPath id="uuid-61c45509-e540-4f5d-b87a-2c1e9fbf4a2b"><path d="m17.77,16.04c0,3.4,2.77,6.17,6.17,6.17.1,0,.18-.08.18-.18s-.08-.18-.18-.18c-3.2,0-5.81-2.61-5.81-5.81s2.61-5.81,5.81-5.81c.1,0,.18-.08.18-.18s-.08-.18-.18-.18c-3.4,0-6.17,2.77-6.17,6.17" style="stroke-width:0px;"/></clipPath><clipPath id="uuid-6b7f4aab-7020-4a57-b29b-b9244abb3414"><path d="m17.09,15.71c0,3.59,2.92,6.51,6.51,6.51.1,0,.18-.08.18-.18s-.08-.18-.18-.18c-3.39,0-6.15-2.76-6.15-6.15s2.76-6.15,6.15-6.15c.1,0,.18-.08.18-.18s-.08-.18-.18-.18c-3.59,0-6.51,2.92-6.51,6.51" style="stroke-width:0px;"/></clipPath><clipPath id="uuid-6c42c084-a29e-43a1-90de-1c2643f3a9f8"><path d="m16.38,15.35c0,3.78,3.08,6.86,6.86,6.86.1,0,.18-.08.18-.18s-.08-.18-.18-.18c-3.59,0-6.5-2.92-6.5-6.5s2.92-6.5,6.5-6.5c.1,0,.18-.08.18-.18s-.08-.18-.18-.18c-3.78,0-6.86,3.08-6.86,6.86" style="stroke-width:0px;"/></clipPath><clipPath id="uuid-168541b4-1fcf-4e7d-9740-b459fff0482b"><path d="m15.63,14.97c0,3.99,3.25,7.24,7.24,7.24.1,0,.18-.08.18-.18s-.08-.18-.18-.18c-3.79,0-6.88-3.09-6.88-6.88s3.09-6.88,6.88-6.88c.1,0,.18-.08.18-.18s-.08-.18-.18-.18c-3.99,0-7.24,3.25-7.24,7.24" style="stroke-width:0px;"/></clipPath><clipPath id="uuid-ff007c1e-2739-4009-a944-292346820ee1"><path d="m14.84,14.58c0,4.21,3.42,7.63,7.63,7.63.1,0,.18-.08.18-.18s-.08-.18-.18-.18c-4.01,0-7.28-3.26-7.28-7.28s3.26-7.28,7.28-7.28c.1,0,.18-.08.18-.18s-.08-.18-.18-.18c-4.21,0-7.63,3.42-7.63,7.63" style="stroke-width:0px;"/></clipPath><clipPath id="uuid-18751029-71ba-49a1-81c6-3e45d6316112"><path d="m14,14.16c0,4.44,3.61,8.05,8.05,8.05.1,0,.18-.08.18-.18s-.08-.18-.18-.18c-4.24,0-7.69-3.45-7.69-7.69s3.45-7.69,7.69-7.69c.1,0,.18-.08.18-.18s-.08-.18-.18-.18c-4.44,0-8.05,3.61-8.05,8.05" style="stroke-width:0px;"/></clipPath><clipPath id="uuid-fee2620e-8387-411c-bd68-af79bf0f2295"><path d="m13.12,13.72c0,4.68,3.81,8.49,8.49,8.49.1,0,.18-.08.18-.18s-.08-.18-.18-.18c-4.49,0-8.14-3.65-8.14-8.14s3.65-8.14,8.14-8.14c.1,0,.18-.08.18-.18s-.08-.18-.18-.18c-4.68,0-8.49,3.81-8.49,8.49" style="stroke-width:0px;"/></clipPath><clipPath id="uuid-0b5ef295-2ea5-44c6-abbc-cc4ac8fe475d"><path d="m12.18,13.25c0,4.94,4.02,8.96,8.96,8.96.1,0,.18-.08.18-.18s-.08-.18-.18-.18c-4.74,0-8.6-3.86-8.6-8.6s3.86-8.6,8.6-8.6c.1,0,.18-.08.18-.18s-.08-.18-.18-.18c-4.94,0-8.96,4.02-8.96,8.96" style="stroke-width:0px;"/></clipPath><clipPath id="uuid-9350198e-f4bc-4487-8e4a-510eabc83146"><path d="m11.2,12.76c0,5.21,4.24,9.45,9.45,9.45.1,0,.18-.08.18-.18s-.08-.18-.18-.18c-5.02,0-9.1-4.08-9.1-9.1S15.64,3.66,20.65,3.66c.1,0,.18-.08.18-.18s-.08-.18-.18-.18c-5.21,0-9.45,4.24-9.45,9.45" style="stroke-width:0px;"/></clipPath><clipPath id="uuid-ae88ff90-5630-4e7c-ba6e-8d216c5595b8"><path d="m10.16,12.24c0,5.5,4.47,9.98,9.98,9.98.1,0,.18-.08.18-.18s-.08-.18-.18-.18c-5.3,0-9.62-4.31-9.62-9.62S14.83,2.62,20.13,2.62c.1,0,.18-.08.18-.18s-.08-.18-.18-.18c-5.5,0-9.98,4.47-9.98,9.98" style="stroke-width:0px;"/></clipPath><clipPath id="uuid-59caa168-dbd1-4430-9691-a5529ea84279"><path d="m9.06,11.69c0,5.8,4.72,10.53,10.53,10.53.1,0,.18-.08.18-.18s-.08-.18-.18-.18c-5.61,0-10.17-4.56-10.17-10.17S13.97,1.52,19.58,1.52c.1,0,.18-.08.18-.18s-.08-.18-.18-.18c-5.8,0-10.53,4.72-10.53,10.53" style="stroke-width:0px;"/></clipPath><clipPath id="uuid-2bdb1ee4-374e-4c5e-adbe-eb315dc36b2c"><path d="m7.89,11.11c0,6.12,4.98,11.11,11.11,11.11.1,0,.18-.08.18-.18s-.08-.18-.18-.18c-5.93,0-10.75-4.82-10.75-10.75S13.07.36,19,.36c.1,0,.18-.08.18-.18s-.08-.18-.18-.18C12.88,0,7.89,4.98,7.89,11.11" style="stroke-width:0px;"/></clipPath><clipPath id="uuid-687aa531-1c50-41d1-89b5-cc63ddf01e92"><path d="m8.36,39.25c0,2.61,2.13,4.74,4.74,4.74.1,0,.18-.08.18-.18s-.08-.18-.18-.18c-2.42,0-4.38-1.96-4.38-4.38s1.97-4.38,4.38-4.38,4.38,1.97,4.38,4.38v4.58c0,.1.08.18.18.18s.18-.08.18-.18v-4.58c0-2.61-2.13-4.74-4.74-4.74s-4.74,2.13-4.74,4.74" style="stroke-width:0px;"/></clipPath><clipPath id="uuid-57af6228-4a4c-4852-980b-a814f95220a9"><path d="m8,38.99c0,2.75,2.24,4.99,4.99,4.99.1,0,.18-.08.18-.18s-.08-.18-.18-.18c-2.56,0-4.64-2.08-4.64-4.64s2.08-4.64,4.64-4.64,4.64,2.08,4.64,4.64v4.83c0,.1.08.18.18.18s.18-.08.18-.18v-4.83c0-2.75-2.24-4.99-4.99-4.99s-4.99,2.24-4.99,4.99" style="stroke-width:0px;"/></clipPath><clipPath id="uuid-11f8f66a-3be0-4ebc-b45a-c0602d7aa5b7"><path d="m7.61,38.72c0,2.9,2.36,5.26,5.26,5.26.1,0,.18-.08.18-.18s-.08-.18-.18-.18c-2.71,0-4.91-2.2-4.91-4.91s2.2-4.91,4.91-4.91,4.91,2.2,4.91,4.91v5.1c0,.1.08.18.18.18s.18-.08.18-.18v-5.1c0-2.9-2.36-5.26-5.26-5.26s-5.26,2.36-5.26,5.26" style="stroke-width:0px;"/></clipPath><clipPath id="uuid-aa6e1ad2-7726-4660-ae12-8ccbd81bac3a"><path d="m7.19,38.43c0,3.06,2.49,5.55,5.55,5.55.1,0,.18-.08.18-.18s-.08-.18-.18-.18c-2.86,0-5.19-2.33-5.19-5.19s2.33-5.19,5.19-5.19,5.19,2.33,5.19,5.19v5.39c0,.1.08.18.18.18s.18-.08.18-.18v-5.39c0-3.06-2.49-5.55-5.55-5.55s-5.55,2.49-5.55,5.55" style="stroke-width:0px;"/></clipPath><clipPath id="uuid-044f3473-21cf-4eea-822f-87a84dac05a7"><path d="m6.74,38.13c0,3.23,2.63,5.85,5.85,5.85.1,0,.18-.08.18-.18s-.08-.18-.18-.18c-3.03,0-5.49-2.46-5.49-5.49s2.46-5.49,5.49-5.49,5.49,2.46,5.49,5.49v5.69c0,.1.08.18.18.18s.18-.08.18-.18v-5.69c0-3.23-2.63-5.85-5.85-5.85s-5.85,2.62-5.85,5.85" style="stroke-width:0px;"/></clipPath><clipPath id="uuid-58e7482a-ba4a-4321-bf5c-124bcbb3b493"><path d="m6.25,37.81c0,3.4,2.77,6.17,6.17,6.17.1,0,.18-.08.18-.18s-.08-.18-.18-.18c-3.2,0-5.81-2.61-5.81-5.81s2.61-5.81,5.81-5.81,5.81,2.61,5.81,5.81v6.01c0,.1.08.18.18.18s.18-.08.18-.18v-6.01c0-3.4-2.77-6.17-6.17-6.17s-6.17,2.77-6.17,6.17" style="stroke-width:0px;"/></clipPath><clipPath id="uuid-d470ae63-0d06-41cc-a34d-c235b40a1b4b"><path d="m5.73,37.48c0,3.59,2.92,6.51,6.51,6.51.1,0,.18-.08.18-.18s-.08-.18-.18-.18c-3.39,0-6.15-2.76-6.15-6.15s2.76-6.15,6.15-6.15,6.15,2.76,6.15,6.15v6.35c0,.1.08.18.18.18s.18-.08.18-.18v-6.35c0-3.59-2.92-6.51-6.51-6.51s-6.51,2.92-6.51,6.51" style="stroke-width:0px;"/></clipPath><clipPath id="uuid-3a7505d8-f1e2-41c4-8091-b6bc686e7e1b"><path d="m5.17,37.12c0,3.78,3.08,6.86,6.86,6.86.1,0,.18-.08.18-.18s-.08-.18-.18-.18c-3.59,0-6.5-2.92-6.5-6.5s2.92-6.5,6.5-6.5,6.5,2.92,6.5,6.5v6.7c0,.1.08.18.18.18s.18-.08.18-.18v-6.7c0-3.78-3.08-6.86-6.86-6.86s-6.86,3.08-6.86,6.86" style="stroke-width:0px;"/></clipPath><clipPath id="uuid-2a08a893-9311-40cb-815b-8b4ae8381a02"><path d="m4.57,36.75c0,3.99,3.25,7.24,7.24,7.24.1,0,.18-.08.18-.18s-.08-.18-.18-.18c-3.79,0-6.88-3.09-6.88-6.88s3.09-6.88,6.88-6.88,6.88,3.09,6.88,6.88v7.08c0,.1.08.18.18.18s.18-.08.18-.18v-7.08c0-3.99-3.25-7.24-7.24-7.24s-7.24,3.25-7.24,7.24" style="stroke-width:0px;"/></clipPath><clipPath id="uuid-8d93611e-260a-4664-b70d-3252fb1f1af0"><path d="m3.93,36.35c0,4.21,3.42,7.63,7.63,7.63.1,0,.18-.08.18-.18s-.08-.18-.18-.18c-4.01,0-7.28-3.26-7.28-7.28s3.26-7.28,7.28-7.28,7.28,3.26,7.28,7.28v7.47c0,.1.08.18.18.18s.18-.08.18-.18v-7.47c0-4.21-3.42-7.63-7.63-7.63s-7.63,3.42-7.63,7.63" style="stroke-width:0px;"/></clipPath><clipPath id="uuid-bae57969-b8ca-4a6d-afbb-6a2dc38b41b4"><path d="m3.24,35.93c0,4.44,3.61,8.05,8.05,8.05.1,0,.18-.08.18-.18s-.08-.18-.18-.18c-4.24,0-7.69-3.45-7.69-7.69s3.45-7.69,7.69-7.69,7.69,3.45,7.69,7.69v7.89c0,.1.08.18.18.18s.18-.08.18-.18v-7.89c0-4.44-3.61-8.05-8.05-8.05s-8.05,3.61-8.05,8.05" style="stroke-width:0px;"/></clipPath><clipPath id="uuid-6c0eac29-e084-48ef-8337-efec1bd9c91e"><path d="m2.51,35.49c0,4.68,3.81,8.49,8.49,8.49.1,0,.18-.08.18-.18s-.08-.18-.18-.18c-4.49,0-8.14-3.65-8.14-8.14s3.65-8.14,8.14-8.14,8.14,3.65,8.14,8.14v8.33c0,.1.08.18.18.18s.18-.08.18-.18v-8.33c0-4.68-3.81-8.49-8.49-8.49s-8.49,3.81-8.49,8.49" style="stroke-width:0px;"/></clipPath><clipPath id="uuid-2e258fea-947f-40c8-aae8-71f4e63a8779"><path d="m1.73,35.02c0,4.94,4.02,8.96,8.96,8.96.1,0,.18-.08.18-.18s-.08-.18-.18-.18c-4.74,0-8.6-3.86-8.6-8.6s3.86-8.6,8.6-8.6,8.6,3.86,8.6,8.6v8.8c0,.1.08.18.18.18s.18-.08.18-.18v-8.8c0-4.94-4.02-8.96-8.96-8.96S1.73,30.08,1.73,35.02" style="stroke-width:0px;"/></clipPath><clipPath id="uuid-9a8fd9a0-1c5f-4ba6-81a3-8cc4357bf5f7"><path d="m.89,34.53c0,5.21,4.24,9.45,9.45,9.45.1,0,.18-.08.18-.18s-.08-.18-.18-.18c-5.02,0-9.1-4.08-9.1-9.1s4.08-9.1,9.1-9.1,9.1,4.08,9.1,9.1v9.29c0,.1.08.18.18.18s.18-.08.18-.18v-9.29c0-5.21-4.24-9.45-9.45-9.45S.89,29.32.89,34.53" style="stroke-width:0px;"/></clipPath><clipPath id="uuid-83e479f9-d241-45f4-bcc8-a0a26d754a69"><path d="m0,34.01C0,39.51,4.47,43.98,9.97,43.98c.1,0,.18-.08.18-.18s-.08-.18-.18-.18c-5.3,0-9.62-4.31-9.62-9.62s4.31-9.62,9.62-9.62,9.62,4.31,9.62,9.62v9.82c0,.1.08.18.18.18s.18-.08.18-.18v-9.82c0-5.5-4.48-9.97-9.98-9.97S0,28.51,0,34.01" style="stroke-width:0px;"/></clipPath><clipPath id="uuid-38f7ef8a-a777-4cf3-9bd8-02c84d3308a4"><path d="m36.47,15.29c0,2.61,2.13,4.74,4.74,4.74.1,0,.18-.08.18-.18s-.08-.18-.18-.18c-2.42,0-4.38-1.97-4.38-4.38s1.97-4.38,4.38-4.38,4.38,1.97,4.38,4.38v4.56c0,.1.08.18.18.18s.18-.08.18-.18v-4.56c0-2.61-2.13-4.74-4.74-4.74s-4.74,2.13-4.74,4.74" style="stroke-width:0px;"/></clipPath><clipPath id="uuid-31277a8e-933e-44e8-a08d-0435726d3dc8"><path d="m36.11,15.03c0,2.75,2.24,4.99,4.99,4.99.1,0,.18-.08.18-.18s-.08-.18-.18-.18c-2.56,0-4.64-2.08-4.64-4.64s2.08-4.64,4.64-4.64,4.64,2.08,4.64,4.64v4.82c0,.1.08.18.18.18s.18-.08.18-.18v-4.82c0-2.75-2.24-4.99-4.99-4.99s-4.99,2.24-4.99,4.99" style="stroke-width:0px;"/></clipPath><clipPath id="uuid-582c898b-1171-4f21-aec0-d7d05a0a0aab"><path d="m35.72,14.76c0,2.9,2.36,5.26,5.27,5.26.1,0,.18-.08.18-.18s-.08-.18-.18-.18c-2.71,0-4.91-2.2-4.91-4.91s2.2-4.91,4.91-4.91,4.91,2.2,4.91,4.91v5.09c0,.1.08.18.18.18s.18-.08.18-.18v-5.09c0-2.9-2.36-5.26-5.26-5.26s-5.27,2.36-5.27,5.26" style="stroke-width:0px;"/></clipPath><clipPath id="uuid-cf8dda8b-de4a-4490-9d08-5ba01d5710da"><path d="m35.3,14.48c0,3.06,2.49,5.55,5.55,5.55.1,0,.18-.08.18-.18s-.08-.18-.18-.18c-2.86,0-5.19-2.33-5.19-5.19s2.33-5.19,5.19-5.19,5.19,2.33,5.19,5.19v5.37c0,.1.08.18.18.18s.18-.08.18-.18v-5.37c0-3.06-2.49-5.55-5.55-5.55s-5.55,2.49-5.55,5.55" style="stroke-width:0px;"/></clipPath><clipPath id="uuid-956401f9-39f8-4004-bbf1-98b1358a621e"><path d="m34.85,14.17c0,3.23,2.63,5.85,5.85,5.85.1,0,.18-.08.18-.18s-.08-.18-.18-.18c-3.03,0-5.49-2.46-5.49-5.49s2.46-5.49,5.49-5.49,5.49,2.46,5.49,5.49v5.67c0,.1.08.18.18.18s.18-.08.18-.18v-5.67c0-3.23-2.63-5.85-5.85-5.85s-5.85,2.63-5.85,5.85" style="stroke-width:0px;"/></clipPath><clipPath id="uuid-8c764a2e-3fc8-4ef4-a9b3-ab10b3e7b09c"><path d="m34.36,13.86c0,3.4,2.77,6.17,6.17,6.17.1,0,.18-.08.18-.18s-.08-.18-.18-.18c-3.21,0-5.81-2.61-5.81-5.81s2.61-5.81,5.81-5.81,5.81,2.61,5.81,5.81v5.99c0,.1.08.18.18.18s.18-.08.18-.18v-5.99c0-3.4-2.77-6.17-6.17-6.17s-6.17,2.77-6.17,6.17" style="stroke-width:0px;"/></clipPath><clipPath id="uuid-45c897d9-84bc-4560-b331-a3cda0faedc9"><path d="m33.84,13.52c0,3.59,2.92,6.51,6.51,6.51.1,0,.18-.08.18-.18s-.08-.18-.18-.18c-3.39,0-6.15-2.76-6.15-6.15s2.76-6.15,6.15-6.15,6.15,2.76,6.15,6.15v6.33c0,.1.08.18.18.18s.18-.08.18-.18v-6.33c0-3.59-2.92-6.51-6.51-6.51s-6.51,2.92-6.51,6.51" style="stroke-width:0px;"/></clipPath><clipPath id="uuid-01e1146c-66f1-460b-8a2d-187f97db08e2"><path d="m33.28,13.16c0,3.78,3.08,6.86,6.86,6.86.1,0,.18-.08.18-.18s-.08-.18-.18-.18c-3.59,0-6.5-2.92-6.5-6.5s2.92-6.5,6.5-6.5,6.5,2.92,6.5,6.5v6.68c0,.1.08.18.18.18s.18-.08.18-.18v-6.68c0-3.78-3.08-6.86-6.86-6.86s-6.86,3.08-6.86,6.86" style="stroke-width:0px;"/></clipPath><clipPath id="uuid-22763903-2e20-4ae8-a0ec-7e5926f82fea"><path d="m32.68,12.79c0,3.99,3.25,7.24,7.24,7.24.1,0,.18-.08.18-.18s-.08-.18-.18-.18c-3.79,0-6.88-3.09-6.88-6.88s3.09-6.88,6.88-6.88,6.88,3.09,6.88,6.88v7.06c0,.1.08.18.18.18s.18-.08.18-.18v-7.06c0-3.99-3.25-7.24-7.24-7.24s-7.24,3.25-7.24,7.24" style="stroke-width:0px;"/></clipPath><clipPath id="uuid-67bb5b01-a222-46bc-8066-7507db898b52"><path d="m32.04,12.39c0,4.21,3.42,7.63,7.63,7.63.1,0,.18-.08.18-.18s-.08-.18-.18-.18c-4.01,0-7.28-3.26-7.28-7.28s3.26-7.28,7.28-7.28,7.28,3.26,7.28,7.28v7.45c0,.1.08.18.18.18s.18-.08.18-.18v-7.45c0-4.21-3.42-7.63-7.63-7.63s-7.63,3.42-7.63,7.63" style="stroke-width:0px;"/></clipPath><clipPath id="uuid-efb424d8-c219-42d4-a3b7-233c06201a66"><path d="m31.35,11.97c0,4.44,3.61,8.05,8.05,8.05.1,0,.18-.08.18-.18s-.08-.18-.18-.18c-4.24,0-7.69-3.45-7.69-7.69s3.45-7.69,7.69-7.69,7.69,3.45,7.69,7.69v7.87c0,.1.08.18.18.18s.18-.08.18-.18v-7.87c0-4.44-3.61-8.05-8.05-8.05s-8.05,3.61-8.05,8.05" style="stroke-width:0px;"/></clipPath><clipPath id="uuid-0a972931-d84b-45d7-aabd-76df105d6c0a"><path d="m30.62,11.53c0,4.68,3.81,8.49,8.49,8.49.1,0,.18-.08.18-.18s-.08-.18-.18-.18c-4.49,0-8.14-3.65-8.14-8.14s3.65-8.14,8.14-8.14,8.14,3.65,8.14,8.14v8.32c0,.1.08.18.18.18s.18-.08.18-.18v-8.32c0-4.68-3.81-8.49-8.49-8.49s-8.49,3.81-8.49,8.49" style="stroke-width:0px;"/></clipPath><clipPath id="uuid-282e592b-c662-4ede-8010-aa0f89214f99"><path d="m29.84,11.07c0,4.94,4.02,8.96,8.96,8.96.1,0,.18-.08.18-.18s-.08-.18-.18-.18c-4.74,0-8.6-3.86-8.6-8.6s3.86-8.6,8.6-8.6,8.6,3.86,8.6,8.6v8.78c0,.1.08.18.18.18s.18-.08.18-.18v-8.78c0-4.94-4.02-8.96-8.96-8.96s-8.96,4.02-8.96,8.96" style="stroke-width:0px;"/></clipPath><clipPath id="uuid-fa4136c0-e990-49e9-a2f1-c0e8e9446fee"><path d="m29,10.57c0,5.21,4.24,9.45,9.45,9.45.1,0,.18-.08.18-.18s-.08-.18-.18-.18c-5.02,0-9.1-4.08-9.1-9.1S33.44,1.48,38.46,1.48s9.1,4.08,9.1,9.1v9.28c0,.1.08.18.18.18s.18-.08.18-.18v-9.28c0-5.21-4.24-9.45-9.45-9.45s-9.45,4.24-9.45,9.45" style="stroke-width:0px;"/></clipPath><clipPath id="uuid-2dd8bffc-0d56-4c01-b40b-1fb8bfa57b6c"><path d="m28.11,10.05c0,5.5,4.48,9.98,9.98,9.98.1,0,.18-.08.18-.18s-.08-.18-.18-.18c-5.3,0-9.62-4.31-9.62-9.62S32.78.43,38.09.43s9.62,4.31,9.62,9.62v9.8c0,.1.08.18.18.18s.18-.08.18-.18v-9.8C48.06,4.55,43.59.08,38.09.08s-9.98,4.47-9.98,9.98" style="stroke-width:0px;"/></clipPath><clipPath id="uuid-57cdd9a5-5155-4d50-9d6d-8e36debafd75"><path d="m58.11,12.83c0-.62.45-.92,1.69-1.09l.41-.06v1.28c-.46.38-.88.59-1.33.59s-.77-.29-.77-.72m-1.27-3.28l.67.82c.53-.48,1.07-.74,1.67-.74s1.02.3,1.02.91v.27l-.63.07c-1.69.18-2.89.56-2.89,2.01,0,.92.62,1.65,1.75,1.65.63,0,1.23-.24,1.85-.73v.62h1.35v-3.82c0-1.19-.76-2-2.34-2-.84,0-1.69.27-2.45.92" style="stroke-width:0px;"/></clipPath><clipPath id="uuid-61dc459e-e215-4a11-a425-20c208a0fedc"><path d="m64.31,9.58v-.84h-1.37v5.7h1.41v-3.74c.36-.42.84-.79,1.29-.79.29,0,.46.08.63.19l.58-1.24c-.33-.19-.58-.23-.94-.23-.59,0-1.17.43-1.59.95" style="stroke-width:0px;"/></clipPath><clipPath id="uuid-9be132b1-0935-44ed-bbca-a46f9da89ec3"><path d="m68.16,7.61v1.13h-.89v1.04h.89v3.04c0,1.18.33,1.73,1.84,1.73.24,0,.6-.04.82-.09v-1.09c-.19.04-.43.08-.6.08-.48,0-.64-.23-.64-.67v-3.01h1.24v-1.04h-1.24v-1.74l-1.42.62Z" style="stroke-width:0px;"/></clipPath><clipPath id="uuid-fb9da03d-aa0a-49c2-b45d-dd78f8205922"><path d="m74.3,9.63c.7,0,1.16.55,1.23,1.36h-2.48c.1-.81.56-1.36,1.25-1.36m-2.69,1.95c0,1.84,1.11,2.97,2.77,2.97,1.08,0,1.84-.32,2.46-1.05l-.87-.8c-.43.55-.93.77-1.47.77-.73,0-1.41-.47-1.46-1.56h3.92c0-1.63-.73-3.29-2.66-3.29-1.66,0-2.68,1.18-2.68,2.95" style="stroke-width:0px;"/></clipPath><clipPath id="uuid-17533e38-c195-41fb-8f1d-0dab6eb91028"><path d="m56.79,22.29c0,.93.57,1.34,1.51,1.65l.61.2c.66.22.92.39.92.73s-.37.63-.98.63c-.5,0-1.16-.25-1.65-.67l-.65.82c.64.6,1.45.85,2.31.85,1.23,0,2.38-.56,2.38-1.81,0-1.01-.66-1.39-1.7-1.75l-.6-.2c-.49-.16-.74-.31-.74-.63s.33-.54.87-.54c.47,0,.98.19,1.46.59l.65-.83c-.64-.54-1.33-.76-2.11-.76-1.68,0-2.28.89-2.28,1.7" style="stroke-width:0px;"/></clipPath><clipPath id="uuid-a8aaee31-9cf4-4bc0-840c-2c889d89b8bd"><path d="m63.51,23.55c0-1.22.54-1.89,1.31-1.89s1.32.67,1.32,1.89-.54,1.89-1.32,1.89-1.31-.67-1.31-1.89m-1.46,0c0,1.81,1.11,2.96,2.77,2.96s2.78-1.16,2.78-2.96-1.12-2.96-2.78-2.96-2.77,1.17-2.77,2.96m2.33-5.34l-1.46,1.38.41.49,1.49-.99,1.5,1,.41-.5-1.46-1.38h-.88Z" style="stroke-width:0px;"/></clipPath><clipPath id="uuid-1c0e9db8-cbf4-45c6-a860-39104b7c9706"><path d="m70.07,21.35v-.65h-1.34v5.7h1.41v-4.02c.37-.28.91-.59,1.36-.59.6,0,.77.4.77,1.06v3.54h1.41v-4.09c0-1.03-.59-1.72-1.7-1.72-.74,0-1.37.36-1.91.76" style="stroke-width:0px;"/></clipPath><clipPath id="uuid-1b1091f0-0fb3-4c3d-82f8-cada78acad87"><path d="m75.01,26.4h1.41v-5.7h-1.41v5.7Zm0-6.55h1.43v-1.12h-1.43v1.12Z" style="stroke-width:0px;"/></clipPath><clipPath id="uuid-b54b129e-0a47-4740-8ece-b14ca1fba789"><path d="m77.56,23.55c0,1.82,1.14,2.96,2.73,2.96,1.04,0,1.78-.42,2.4-1.21l-.92-.78c-.38.53-.8.91-1.41.91-.78,0-1.34-.67-1.34-1.86,0-1.28.56-1.92,1.33-1.92.55,0,.93.3,1.26.8l.99-.7c-.58-.81-1.35-1.18-2.27-1.18-1.64,0-2.77,1.17-2.77,2.96" style="stroke-width:0px;"/></clipPath><clipPath id="uuid-cd664bca-a536-48dd-becc-99cdfaa21443"><path d="m84.7,24.78c0-.62.45-.92,1.69-1.09l.41-.06v1.28c-.46.38-.88.59-1.33.59s-.77-.29-.77-.72m-1.27-3.28l.67.82c.53-.48,1.08-.74,1.67-.74s1.03.3,1.03.91v.27l-.63.07c-1.69.18-2.89.56-2.89,2.01,0,.92.62,1.65,1.75,1.65.63,0,1.23-.24,1.85-.73v.62h1.35v-3.81c0-1.19-.76-2-2.34-2-.84,0-1.69.27-2.45.92" style="stroke-width:0px;"/></clipPath><clipPath id="uuid-ef07deb0-7284-45dd-a312-2a7f22174856"><path d="m58.11,36.74c0-.62.45-.92,1.69-1.09l.41-.06v1.28c-.46.38-.88.59-1.33.59s-.77-.29-.77-.72m-1.27-3.28l.67.82c.53-.48,1.07-.74,1.67-.74s1.02.3,1.02.91v.27l-.63.07c-1.69.18-2.89.56-2.89,2.01,0,.92.62,1.65,1.75,1.65.63,0,1.23-.24,1.85-.73v.62h1.35v-3.81c0-1.19-.76-2-2.34-2-.84,0-1.69.27-2.45.92" style="stroke-width:0px;"/></clipPath><clipPath id="uuid-e8225dc1-3f09-4773-af48-3a93dbacfdad"><path d="m67.47,33.38c-.23-.5-.66-.84-1.41-.84-.63,0-1.31.36-1.79.76v-.65h-1.34v5.7h1.41v-4.02c.38-.35.85-.59,1.23-.59.52,0,.65.36.65,1.05v3.56h1.41v-4.01c.26-.27.77-.6,1.23-.6.38,0,.64.17.64.86v3.74h1.41v-4.09c0-1.05-.55-1.72-1.57-1.72-.71,0-1.38.41-1.87.84" style="stroke-width:0px;"/></clipPath><clipPath id="uuid-5216d617-5294-48f3-ad9a-f1ec5d5f8d4e"><path d="m73.64,36.73v-2.45c.32-.35.74-.66,1.23-.66.83,0,1.22.81,1.22,1.86,0,1.11-.4,1.9-1.24,1.9-.49,0-.92-.35-1.21-.65m-.07-3.42v-.66h-1.34v7.75h1.41v-2.64c.39.43.9.7,1.6.7,1.32,0,2.3-1.13,2.3-2.96s-.94-2.96-2.3-2.96c-.69,0-1.19.25-1.67.77" style="stroke-width:0px;"/></clipPath><clipPath id="uuid-109a283d-f1ca-4e28-91d8-a64bfb805243"><rect x="78.68" y="30.69" width="1.41" height="7.67" style="stroke-width:0px;"/></clipPath><clipPath id="uuid-62712e04-eb09-442a-bd91-da807274c6e9"><path d="m81.47,38.36h1.41v-5.7h-1.41v5.7Zm0-6.55h1.43v-1.12h-1.43v1.12Z" style="stroke-width:0px;"/></clipPath><clipPath id="uuid-f8a5d98f-7ec3-4f26-9e7a-997d264b0726"><path d="m84.53,32.36v.29h-.89v1.03h.89v4.67h1.41v-4.67h1.16v-1.03h-1.16v-.26c0-.47.24-.64.78-.64.23,0,.45.04.67.06v-1.06c-.27-.04-.57-.07-.82-.07-1.45,0-2.04.51-2.04,1.67" style="stroke-width:0px;"/></clipPath><clipPath id="uuid-f01da6dd-9830-48bd-b9d0-9116f45b752d"><path d="m87.95,38.36h1.41v-5.7h-1.41v5.7Zm0-6.55h1.43v-1.12h-1.43v1.12Z" style="stroke-width:0px;"/></clipPath><clipPath id="uuid-8bf027c3-7037-4107-a9e6-3d68d17b18df"><path d="m90.49,35.5c0,1.82,1.14,2.96,2.73,2.96,1.03,0,1.78-.42,2.4-1.21l-.92-.78c-.37.53-.8.91-1.41.91-.78,0-1.34-.67-1.34-1.86,0-1.28.56-1.92,1.33-1.92.55,0,.93.3,1.26.8l.99-.7c-.58-.81-1.35-1.18-2.27-1.18-1.64,0-2.77,1.17-2.77,2.96" style="stroke-width:0px;"/></clipPath><clipPath id="uuid-0fdfde9b-8bce-4616-be0c-e4b6e6be821c"><path d="m97.63,36.74c0-.62.45-.92,1.69-1.09l.41-.06v1.28c-.46.38-.88.59-1.33.59s-.77-.29-.77-.72m-1.27-3.28l.67.82c.53-.48,1.08-.74,1.67-.74s1.02.3,1.02.91v.27l-.63.07c-1.69.18-2.89.56-2.89,2.01,0,.92.62,1.65,1.75,1.65.63,0,1.23-.24,1.85-.73v.62h1.35v-3.81c0-1.19-.76-2-2.34-2-.84,0-1.69.27-2.45.92" style="stroke-width:0px;"/></clipPath><clipPath id="uuid-25ff0008-ec1e-4503-9a2e-72e276a98fa2"><path d="m103.69,35.52c0-1.11.4-1.9,1.24-1.9.49,0,.91.34,1.21.65v2.39c-.38.43-.78.71-1.23.71-.83,0-1.22-.81-1.22-1.86m2.44-4.84v2.56c-.4-.43-.88-.7-1.6-.7-1.33,0-2.3,1.15-2.3,2.96s.94,2.96,2.3,2.96c.65,0,1.2-.22,1.67-.82v.71h1.34v-7.67h-1.41Z" style="stroke-width:0px;"/></clipPath><clipPath id="uuid-0f2ebfe0-09d4-443f-8f81-5711c166a03c"><path d="m110.04,36.74c0-.62.45-.92,1.69-1.09l.41-.06v1.28c-.46.38-.88.59-1.33.59s-.77-.29-.77-.72m-1.27-3.28l.67.82c.53-.48,1.08-.74,1.67-.74s1.02.3,1.02.91v.27l-.63.07c-1.69.18-2.89.56-2.89,2.01,0,.92.62,1.65,1.75,1.65.63,0,1.23-.24,1.85-.73v.62h1.35v-3.81c0-1.19-.76-2-2.34-2-.84,0-1.69.27-2.45.92" style="stroke-width:0px;"/></clipPath></defs><g id="uuid-0955b451-3646-4977-bee1-127b19142deb"><path d="m22.52,21.97c0,.1.08.18.18.18,2.42,0,4.38,1.97,4.38,4.38s-1.97,4.38-4.38,4.38c-.1,0-.18.08-.18.18s.08.18.18.18c2.61,0,4.74-2.13,4.74-4.74s-2.13-4.74-4.74-4.74c-.1,0-.18.08-.18.18"/><g style="clip-path:url(#uuid-3df6a666-a8ea-4857-ab00-0e6ebffecd95);"><rect x="22.52" y="21.79" width="4.92" height="9.48" style="stroke-width:0px;"/></g><path d="m22.77,21.97c0,.1.08.18.18.18,2.56,0,4.64,2.08,4.64,4.64s-2.08,4.64-4.64,4.64c-.1,0-.18.08-.18.18s.08.18.18.18c2.75,0,4.99-2.24,4.99-4.99s-2.24-4.99-4.99-4.99c-.1,0-.18.08-.18.18"/><g style="clip-path:url(#uuid-7a0793e7-39bb-4cf4-8bf8-8f1d0ea2a2fc);"><rect x="22.77" y="21.79" width="5.17" height="9.99" style="stroke-width:0px;"/></g><path d="m23.04,21.97c0,.1.08.18.18.18,2.71,0,4.91,2.2,4.91,4.91s-2.2,4.91-4.91,4.91c-.1,0-.18.08-.18.18s.08.18.18.18c2.9,0,5.26-2.36,5.26-5.26s-2.36-5.26-5.26-5.26c-.1,0-.18.08-.18.18"/><g style="clip-path:url(#uuid-422789a9-db17-4432-8989-0cd3ffaa7b67);"><rect x="23.04" y="21.79" width="5.44" height="10.53" style="stroke-width:0px;"/></g><path d="m23.33,21.97c0,.1.08.18.18.18,2.86,0,5.19,2.33,5.19,5.19s-2.33,5.19-5.19,5.19c-.1,0-.18.08-.18.18s.08.18.18.18c3.06,0,5.55-2.49,5.55-5.55s-2.49-5.55-5.55-5.55c-.1,0-.18.08-.18.18"/><g style="clip-path:url(#uuid-0da1b729-64e6-4f31-b516-37fbe6d09a17);"><rect x="23.33" y="21.79" width="5.73" height="11.1" style="stroke-width:0px;"/></g><path d="m23.63,21.97c0,.1.08.18.18.18,3.03,0,5.49,2.46,5.49,5.49s-2.46,5.49-5.49,5.49c-.1,0-.18.08-.18.18s.08.18.18.18c3.23,0,5.85-2.62,5.85-5.85s-2.63-5.85-5.85-5.85c-.1,0-.18.08-.18.18"/><g style="clip-path:url(#uuid-e65194f6-8585-4463-a55f-444f043cbe3d);"><rect x="23.63" y="21.79" width="6.03" height="11.7" style="stroke-width:0px;"/></g><path d="m23.95,21.97c0,.1.08.18.18.18,3.2,0,5.81,2.61,5.81,5.81s-2.61,5.81-5.81,5.81c-.1,0-.18.08-.18.18s.08.18.18.18c3.4,0,6.17-2.77,6.17-6.17s-2.77-6.17-6.17-6.17c-.1,0-.18.08-.18.18"/><g style="clip-path:url(#uuid-d9ab3d44-6afd-4f3a-838e-d8035cebcff9);"><rect x="23.95" y="21.79" width="6.35" height="12.34" style="stroke-width:0px;"/></g><path d="m24.29,21.97c0,.1.08.18.18.18,3.39,0,6.15,2.76,6.15,6.15s-2.76,6.15-6.15,6.15c-.1,0-.18.08-.18.18s.08.18.18.18c3.59,0,6.51-2.92,6.51-6.51s-2.92-6.51-6.51-6.51c-.1,0-.18.08-.18.18"/><g style="clip-path:url(#uuid-d7efa922-d735-4314-9f33-3f26c6669007);"><rect x="24.29" y="21.79" width="6.69" height="13.01" style="stroke-width:0px;"/></g><path d="m24.64,21.97c0,.1.08.18.18.18,3.59,0,6.5,2.92,6.5,6.5s-2.92,6.5-6.5,6.5c-.1,0-.18.08-.18.18s.08.18.18.18c3.78,0,6.86-3.08,6.86-6.86s-3.08-6.86-6.86-6.86c-.1,0-.18.08-.18.18"/><g style="clip-path:url(#uuid-82cb2112-4f51-483c-8d9c-2826a4c2db93);"><rect x="24.64" y="21.79" width="7.04" height="13.72" style="stroke-width:0px;"/></g><path d="m25.02,21.97c0,.1.08.18.18.18,3.79,0,6.88,3.09,6.88,6.88s-3.09,6.88-6.88,6.88c-.1,0-.18.08-.18.18s.08.18.18.18c3.99,0,7.24-3.25,7.24-7.24s-3.25-7.24-7.24-7.24c-.1,0-.18.08-.18.18"/><g style="clip-path:url(#uuid-c88ae98b-565c-4586-87c7-ca414a6fe7d6);"><rect x="25.02" y="21.79" width="7.42" height="14.47" style="stroke-width:0px;"/></g><path d="m25.41,21.97c0,.1.08.18.18.18,4.01,0,7.28,3.26,7.28,7.28s-3.26,7.28-7.28,7.28c-.1,0-.18.08-.18.18s.08.18.18.18c4.21,0,7.63-3.42,7.63-7.63s-3.42-7.63-7.63-7.63c-.1,0-.18.08-.18.18"/><g style="clip-path:url(#uuid-fa06fae6-f598-45d6-9126-40033af5f976);"><rect x="25.41" y="21.79" width="7.81" height="15.27" style="stroke-width:0px;"/></g><path d="m25.83,21.97c0,.1.08.18.18.18,4.24,0,7.69,3.45,7.69,7.69s-3.45,7.69-7.69,7.69c-.1,0-.18.08-.18.18s.08.18.18.18c4.44,0,8.05-3.61,8.05-8.05s-3.61-8.05-8.05-8.05c-.1,0-.18.08-.18.18"/><g style="clip-path:url(#uuid-08b1b798-877c-4104-8f37-b7e5752641d3);"><rect x="25.83" y="21.79" width="8.23" height="16.1" style="stroke-width:0px;"/></g><path d="m26.27,21.97c0,.1.08.18.18.18,4.49,0,8.14,3.65,8.14,8.14s-3.65,8.14-8.14,8.14c-.1,0-.18.08-.18.18s.08.18.18.18c4.68,0,8.49-3.81,8.49-8.49s-3.81-8.49-8.49-8.49c-.1,0-.18.08-.18.18"/><g style="clip-path:url(#uuid-781331f2-4153-46ec-9584-7bb0c8f43ec7);"><rect x="26.27" y="21.79" width="8.67" height="16.99" style="stroke-width:0px;"/></g><path d="m26.74,21.97c0,.1.08.18.18.18,4.74,0,8.6,3.86,8.6,8.6s-3.86,8.6-8.6,8.6c-.1,0-.18.08-.18.18s.08.18.18.18c4.94,0,8.96-4.02,8.96-8.96s-4.02-8.96-8.96-8.96c-.1,0-.18.08-.18.18"/><g style="clip-path:url(#uuid-161f7cbf-8e01-4621-bfa0-a5b812f5954d);"><rect x="26.74" y="21.79" width="9.14" height="17.92" style="stroke-width:0px;"/></g><path d="m27.23,21.97c0,.1.08.18.18.18,5.02,0,9.1,4.08,9.1,9.1s-4.08,9.1-9.1,9.1c-.1,0-.18.08-.18.18s.08.18.18.18c5.21,0,9.45-4.24,9.45-9.45s-4.24-9.45-9.45-9.45c-.1,0-.18.08-.18.18"/><g style="clip-path:url(#uuid-4c6a32bf-34a5-4c8e-818a-8b8a66f411fd);"><rect x="27.23" y="21.79" width="9.63" height="18.91" style="stroke-width:0px;"/></g><path d="m27.75,21.97c0,.1.08.18.18.18,5.3,0,9.62,4.31,9.62,9.62s-4.31,9.62-9.62,9.62c-.1,0-.18.08-.18.18s.08.18.18.18c5.5,0,9.98-4.48,9.98-9.98s-4.48-9.98-9.98-9.98c-.1,0-.18.08-.18.18"/><g style="clip-path:url(#uuid-36ec52ac-f2b0-4598-9d7f-d6fb34a62d52);"><rect x="27.75" y="21.79" width="10.15" height="19.95" style="stroke-width:0px;"/></g><path d="m28.3,21.97c0,.1.08.18.18.18,5.61,0,10.17,4.56,10.17,10.17s-4.56,10.17-10.17,10.17c-.1,0-.18.08-.18.18s.08.18.18.18c5.8,0,10.53-4.72,10.53-10.52s-4.72-10.53-10.53-10.53c-.1,0-.18.08-.18.18"/><g style="clip-path:url(#uuid-d9318d3e-e9e5-4a50-82fa-1e07f524b74b);"><rect x="28.3" y="21.79" width="10.7" height="21.05" style="stroke-width:0px;"/></g><path d="m28.88,21.97c0,.1.08.18.18.18,5.93,0,10.75,4.82,10.75,10.75s-4.82,10.75-10.75,10.75c-.1,0-.18.08-.18.18s.08.18.18.18c6.12,0,11.11-4.98,11.11-11.11s-4.98-11.11-11.11-11.11c-.1,0-.18.08-.18.18"/><g style="clip-path:url(#uuid-365433b2-535e-46b5-8441-3191e7ce75ac);"><rect x="28.88" y="21.79" width="11.29" height="22.21" style="stroke-width:0px;"/></g><path d="m20.63,17.47c0,2.61,2.13,4.74,4.74,4.74.1,0,.18-.08.18-.18s-.08-.18-.18-.18c-2.42,0-4.38-1.96-4.38-4.38s1.96-4.38,4.38-4.38c.1,0,.18-.08.18-.18s-.08-.18-.18-.18c-2.61,0-4.74,2.13-4.74,4.74"/><g style="clip-path:url(#uuid-8ed5a380-c6c7-4fcc-abaf-a786928802f1);"><rect x="20.63" y="12.74" width="4.92" height="9.48" style="stroke-width:0px;"/></g><path d="m20.12,17.22c0,2.75,2.24,4.99,4.99,4.99.1,0,.18-.08.18-.18s-.08-.18-.18-.18c-2.56,0-4.64-2.08-4.64-4.64s2.08-4.64,4.64-4.64c.1,0,.18-.08.18-.18s-.08-.18-.18-.18c-2.75,0-4.99,2.24-4.99,4.99"/><g style="clip-path:url(#uuid-8657c350-366f-4d4b-864c-b9769921bf17);"><rect x="20.12" y="12.22" width="5.17" height="9.99" style="stroke-width:0px;"/></g><path d="m19.58,16.95c0,2.9,2.36,5.26,5.26,5.26.1,0,.18-.08.18-.18s-.08-.18-.18-.18c-2.71,0-4.91-2.2-4.91-4.91s2.2-4.91,4.91-4.91c.1,0,.18-.08.18-.18s-.08-.18-.18-.18c-2.9,0-5.26,2.36-5.26,5.26"/><g style="clip-path:url(#uuid-91bff9e4-c620-4e13-ab5b-b7bf8c69dc6a);"><rect x="19.58" y="11.68" width="5.44" height="10.53" style="stroke-width:0px;"/></g><path d="m19.01,16.66c0,3.06,2.49,5.55,5.55,5.55.1,0,.18-.08.18-.18s-.08-.18-.18-.18c-2.86,0-5.19-2.33-5.19-5.19s2.33-5.19,5.19-5.19c.1,0,.18-.08.18-.18s-.08-.18-.18-.18c-3.06,0-5.55,2.49-5.55,5.55"/><g style="clip-path:url(#uuid-6932ab33-d431-45e0-baf8-b139fd2e0fdd);"><rect x="19.01" y="11.11" width="5.73" height="11.1" style="stroke-width:0px;"/></g><path d="m18.4,16.36c0,3.23,2.63,5.85,5.85,5.85.1,0,.18-.08.18-.18s-.08-.18-.18-.18c-3.03,0-5.49-2.46-5.49-5.49s2.46-5.49,5.49-5.49c.1,0,.18-.08.18-.18s-.08-.18-.18-.18c-3.23,0-5.85,2.63-5.85,5.85"/><g style="clip-path:url(#uuid-300f631c-8806-4c4b-b014-3f4b71fbd877);"><rect x="18.4" y="10.51" width="6.03" height="11.7" style="stroke-width:0px;"/></g><path d="m17.77,16.04c0,3.4,2.77,6.17,6.17,6.17.1,0,.18-.08.18-.18s-.08-.18-.18-.18c-3.2,0-5.81-2.61-5.81-5.81s2.61-5.81,5.81-5.81c.1,0,.18-.08.18-.18s-.08-.18-.18-.18c-3.4,0-6.17,2.77-6.17,6.17"/><g style="clip-path:url(#uuid-61c45509-e540-4f5d-b87a-2c1e9fbf4a2b);"><rect x="17.77" y="9.87" width="6.35" height="12.34" style="stroke-width:0px;"/></g><path d="m17.09,15.71c0,3.59,2.92,6.51,6.51,6.51.1,0,.18-.08.18-.18s-.08-.18-.18-.18c-3.39,0-6.15-2.76-6.15-6.15s2.76-6.15,6.15-6.15c.1,0,.18-.08.18-.18s-.08-.18-.18-.18c-3.59,0-6.51,2.92-6.51,6.51"/><g style="clip-path:url(#uuid-6b7f4aab-7020-4a57-b29b-b9244abb3414);"><rect x="17.09" y="9.2" width="6.69" height="13.01" style="stroke-width:0px;"/></g><path d="m16.38,15.35c0,3.78,3.08,6.86,6.86,6.86.1,0,.18-.08.18-.18s-.08-.18-.18-.18c-3.59,0-6.5-2.92-6.5-6.5s2.92-6.5,6.5-6.5c.1,0,.18-.08.18-.18s-.08-.18-.18-.18c-3.78,0-6.86,3.08-6.86,6.86"/><g style="clip-path:url(#uuid-6c42c084-a29e-43a1-90de-1c2643f3a9f8);"><rect x="16.38" y="8.49" width="7.04" height="13.72" style="stroke-width:0px;"/></g><path d="m15.63,14.97c0,3.99,3.25,7.24,7.24,7.24.1,0,.18-.08.18-.18s-.08-.18-.18-.18c-3.79,0-6.88-3.09-6.88-6.88s3.09-6.88,6.88-6.88c.1,0,.18-.08.18-.18s-.08-.18-.18-.18c-3.99,0-7.24,3.25-7.24,7.24"/><g style="clip-path:url(#uuid-168541b4-1fcf-4e7d-9740-b459fff0482b);"><rect x="15.63" y="7.74" width="7.42" height="14.47" style="stroke-width:0px;"/></g><path d="m14.84,14.58c0,4.21,3.42,7.63,7.63,7.63.1,0,.18-.08.18-.18s-.08-.18-.18-.18c-4.01,0-7.28-3.26-7.28-7.28s3.26-7.28,7.28-7.28c.1,0,.18-.08.18-.18s-.08-.18-.18-.18c-4.21,0-7.63,3.42-7.63,7.63"/><g style="clip-path:url(#uuid-ff007c1e-2739-4009-a944-292346820ee1);"><rect x="14.84" y="6.95" width="7.81" height="15.27" style="stroke-width:0px;"/></g><path d="m14,14.16c0,4.44,3.61,8.05,8.05,8.05.1,0,.18-.08.18-.18s-.08-.18-.18-.18c-4.24,0-7.69-3.45-7.69-7.69s3.45-7.69,7.69-7.69c.1,0,.18-.08.18-.18s-.08-.18-.18-.18c-4.44,0-8.05,3.61-8.05,8.05"/><g style="clip-path:url(#uuid-18751029-71ba-49a1-81c6-3e45d6316112);"><rect x="14" y="6.11" width="8.23" height="16.1" style="stroke-width:0px;"/></g><path d="m13.12,13.72c0,4.68,3.81,8.49,8.49,8.49.1,0,.18-.08.18-.18s-.08-.18-.18-.18c-4.49,0-8.14-3.65-8.14-8.14s3.65-8.14,8.14-8.14c.1,0,.18-.08.18-.18s-.08-.18-.18-.18c-4.68,0-8.49,3.81-8.49,8.49"/><g style="clip-path:url(#uuid-fee2620e-8387-411c-bd68-af79bf0f2295);"><rect x="13.12" y="5.22" width="8.67" height="16.99" style="stroke-width:0px;"/></g><path d="m12.18,13.25c0,4.94,4.02,8.96,8.96,8.96.1,0,.18-.08.18-.18s-.08-.18-.18-.18c-4.74,0-8.6-3.86-8.6-8.6s3.86-8.6,8.6-8.6c.1,0,.18-.08.18-.18s-.08-.18-.18-.18c-4.94,0-8.96,4.02-8.96,8.96"/><g style="clip-path:url(#uuid-0b5ef295-2ea5-44c6-abbc-cc4ac8fe475d);"><rect x="12.18" y="4.29" width="9.14" height="17.92" style="stroke-width:0px;"/></g><path d="m11.2,12.76c0,5.21,4.24,9.45,9.45,9.45.1,0,.18-.08.18-.18s-.08-.18-.18-.18c-5.02,0-9.1-4.08-9.1-9.1S15.64,3.66,20.65,3.66c.1,0,.18-.08.18-.18s-.08-.18-.18-.18c-5.21,0-9.45,4.24-9.45,9.45"/><g style="clip-path:url(#uuid-9350198e-f4bc-4487-8e4a-510eabc83146);"><rect x="11.2" y="3.3" width="9.63" height="18.91" style="stroke-width:0px;"/></g><path d="m10.16,12.24c0,5.5,4.47,9.98,9.98,9.98.1,0,.18-.08.18-.18s-.08-.18-.18-.18c-5.3,0-9.62-4.31-9.62-9.62S14.83,2.62,20.13,2.62c.1,0,.18-.08.18-.18s-.08-.18-.18-.18c-5.5,0-9.98,4.47-9.98,9.98"/><g style="clip-path:url(#uuid-ae88ff90-5630-4e7c-ba6e-8d216c5595b8);"><rect x="10.16" y="2.26" width="10.15" height="19.95" style="stroke-width:0px;"/></g><path d="m9.06,11.69c0,5.8,4.72,10.53,10.53,10.53.1,0,.18-.08.18-.18s-.08-.18-.18-.18c-5.61,0-10.17-4.56-10.17-10.17S13.97,1.52,19.58,1.52c.1,0,.18-.08.18-.18s-.08-.18-.18-.18c-5.8,0-10.53,4.72-10.53,10.53"/><g style="clip-path:url(#uuid-59caa168-dbd1-4430-9691-a5529ea84279);"><rect x="9.06" y="1.16" width="10.7" height="21.05" style="stroke-width:0px;"/></g><path d="m7.89,11.11c0,6.12,4.98,11.11,11.11,11.11.1,0,.18-.08.18-.18s-.08-.18-.18-.18c-5.93,0-10.75-4.82-10.75-10.75S13.07.36,19,.36c.1,0,.18-.08.18-.18s-.08-.18-.18-.18C12.88,0,7.89,4.98,7.89,11.11"/><g style="clip-path:url(#uuid-2bdb1ee4-374e-4c5e-adbe-eb315dc36b2c);"><rect x="7.89" width="11.29" height="22.21" style="stroke-width:0px;"/></g><path d="m8.36,39.25c0,2.61,2.13,4.74,4.74,4.74.1,0,.18-.08.18-.18s-.08-.18-.18-.18c-2.42,0-4.38-1.96-4.38-4.38s1.97-4.38,4.38-4.38,4.38,1.97,4.38,4.38v4.58c0,.1.08.18.18.18s.18-.08.18-.18v-4.58c0-2.61-2.13-4.74-4.74-4.74s-4.74,2.13-4.74,4.74"/><g style="clip-path:url(#uuid-687aa531-1c50-41d1-89b5-cc63ddf01e92);"><rect x="8.36" y="34.51" width="9.48" height="9.5" style="stroke-width:0px;"/></g><path d="m8,38.99c0,2.75,2.24,4.99,4.99,4.99.1,0,.18-.08.18-.18s-.08-.18-.18-.18c-2.56,0-4.64-2.08-4.64-4.64s2.08-4.64,4.64-4.64,4.64,2.08,4.64,4.64v4.83c0,.1.08.18.18.18s.18-.08.18-.18v-4.83c0-2.75-2.24-4.99-4.99-4.99s-4.99,2.24-4.99,4.99"/><g style="clip-path:url(#uuid-57af6228-4a4c-4852-980b-a814f95220a9);"><rect x="8" y="33.99" width="9.99" height="10.01" style="stroke-width:0px;"/></g><path d="m7.61,38.72c0,2.9,2.36,5.26,5.26,5.26.1,0,.18-.08.18-.18s-.08-.18-.18-.18c-2.71,0-4.91-2.2-4.91-4.91s2.2-4.91,4.91-4.91,4.91,2.2,4.91,4.91v5.1c0,.1.08.18.18.18s.18-.08.18-.18v-5.1c0-2.9-2.36-5.26-5.26-5.26s-5.26,2.36-5.26,5.26"/><g style="clip-path:url(#uuid-11f8f66a-3be0-4ebc-b45a-c0602d7aa5b7);"><rect x="7.61" y="33.45" width="10.53" height="10.55" style="stroke-width:0px;"/></g><path d="m7.19,38.43c0,3.06,2.49,5.55,5.55,5.55.1,0,.18-.08.18-.18s-.08-.18-.18-.18c-2.86,0-5.19-2.33-5.19-5.19s2.33-5.19,5.19-5.19,5.19,2.33,5.19,5.19v5.39c0,.1.08.18.18.18s.18-.08.18-.18v-5.39c0-3.06-2.49-5.55-5.55-5.55s-5.55,2.49-5.55,5.55"/><g style="clip-path:url(#uuid-aa6e1ad2-7726-4660-ae12-8ccbd81bac3a);"><rect x="7.19" y="32.88" width="11.1" height="11.12" style="stroke-width:0px;"/></g><path d="m6.74,38.13c0,3.23,2.63,5.85,5.85,5.85.1,0,.18-.08.18-.18s-.08-.18-.18-.18c-3.03,0-5.49-2.46-5.49-5.49s2.46-5.49,5.49-5.49,5.49,2.46,5.49,5.49v5.69c0,.1.08.18.18.18s.18-.08.18-.18v-5.69c0-3.23-2.63-5.85-5.85-5.85s-5.85,2.62-5.85,5.85"/><g style="clip-path:url(#uuid-044f3473-21cf-4eea-822f-87a84dac05a7);"><rect x="6.74" y="32.28" width="11.7" height="11.72" style="stroke-width:0px;"/></g><path d="m6.25,37.81c0,3.4,2.77,6.17,6.17,6.17.1,0,.18-.08.18-.18s-.08-.18-.18-.18c-3.2,0-5.81-2.61-5.81-5.81s2.61-5.81,5.81-5.81,5.81,2.61,5.81,5.81v6.01c0,.1.08.18.18.18s.18-.08.18-.18v-6.01c0-3.4-2.77-6.17-6.17-6.17s-6.17,2.77-6.17,6.17"/><g style="clip-path:url(#uuid-58e7482a-ba4a-4321-bf5c-124bcbb3b493);"><rect x="6.25" y="31.64" width="12.34" height="12.36" style="stroke-width:0px;"/></g><path d="m5.73,37.48c0,3.59,2.92,6.51,6.51,6.51.1,0,.18-.08.18-.18s-.08-.18-.18-.18c-3.39,0-6.15-2.76-6.15-6.15s2.76-6.15,6.15-6.15,6.15,2.76,6.15,6.15v6.35c0,.1.08.18.18.18s.18-.08.18-.18v-6.35c0-3.59-2.92-6.51-6.51-6.51s-6.51,2.92-6.51,6.51"/><g style="clip-path:url(#uuid-d470ae63-0d06-41cc-a34d-c235b40a1b4b);"><rect x="5.73" y="30.97" width="13.01" height="13.03" style="stroke-width:0px;"/></g><path d="m5.17,37.12c0,3.78,3.08,6.86,6.86,6.86.1,0,.18-.08.18-.18s-.08-.18-.18-.18c-3.59,0-6.5-2.92-6.5-6.5s2.92-6.5,6.5-6.5,6.5,2.92,6.5,6.5v6.7c0,.1.08.18.18.18s.18-.08.18-.18v-6.7c0-3.78-3.08-6.86-6.86-6.86s-6.86,3.08-6.86,6.86"/><g style="clip-path:url(#uuid-3a7505d8-f1e2-41c4-8091-b6bc686e7e1b);"><rect x="5.17" y="30.26" width="13.72" height="13.74" style="stroke-width:0px;"/></g><path d="m4.57,36.75c0,3.99,3.25,7.24,7.24,7.24.1,0,.18-.08.18-.18s-.08-.18-.18-.18c-3.79,0-6.88-3.09-6.88-6.88s3.09-6.88,6.88-6.88,6.88,3.09,6.88,6.88v7.08c0,.1.08.18.18.18s.18-.08.18-.18v-7.08c0-3.99-3.25-7.24-7.24-7.24s-7.24,3.25-7.24,7.24"/><g style="clip-path:url(#uuid-2a08a893-9311-40cb-815b-8b4ae8381a02);"><rect x="4.57" y="29.51" width="14.47" height="14.49" style="stroke-width:0px;"/></g><path d="m3.93,36.35c0,4.21,3.42,7.63,7.63,7.63.1,0,.18-.08.18-.18s-.08-.18-.18-.18c-4.01,0-7.28-3.26-7.28-7.28s3.26-7.28,7.28-7.28,7.28,3.26,7.28,7.28v7.47c0,.1.08.18.18.18s.18-.08.18-.18v-7.47c0-4.21-3.42-7.63-7.63-7.63s-7.63,3.42-7.63,7.63"/><g style="clip-path:url(#uuid-8d93611e-260a-4664-b70d-3252fb1f1af0);"><rect x="3.93" y="28.72" width="15.27" height="15.29" style="stroke-width:0px;"/></g><path d="m3.24,35.93c0,4.44,3.61,8.05,8.05,8.05.1,0,.18-.08.18-.18s-.08-.18-.18-.18c-4.24,0-7.69-3.45-7.69-7.69s3.45-7.69,7.69-7.69,7.69,3.45,7.69,7.69v7.89c0,.1.08.18.18.18s.18-.08.18-.18v-7.89c0-4.44-3.61-8.05-8.05-8.05s-8.05,3.61-8.05,8.05"/><g style="clip-path:url(#uuid-bae57969-b8ca-4a6d-afbb-6a2dc38b41b4);"><rect x="3.24" y="27.88" width="16.1" height="16.12" style="stroke-width:0px;"/></g><path d="m2.51,35.49c0,4.68,3.81,8.49,8.49,8.49.1,0,.18-.08.18-.18s-.08-.18-.18-.18c-4.49,0-8.14-3.65-8.14-8.14s3.65-8.14,8.14-8.14,8.14,3.65,8.14,8.14v8.33c0,.1.08.18.18.18s.18-.08.18-.18v-8.33c0-4.68-3.81-8.49-8.49-8.49s-8.49,3.81-8.49,8.49"/><g style="clip-path:url(#uuid-6c0eac29-e084-48ef-8337-efec1bd9c91e);"><rect x="2.51" y="26.99" width="16.99" height="17.01" style="stroke-width:0px;"/></g><path d="m1.73,35.02c0,4.94,4.02,8.96,8.96,8.96.1,0,.18-.08.18-.18s-.08-.18-.18-.18c-4.74,0-8.6-3.86-8.6-8.6s3.86-8.6,8.6-8.6,8.6,3.86,8.6,8.6v8.8c0,.1.08.18.18.18s.18-.08.18-.18v-8.8c0-4.94-4.02-8.96-8.96-8.96S1.73,30.08,1.73,35.02"/><g style="clip-path:url(#uuid-2e258fea-947f-40c8-aae8-71f4e63a8779);"><rect x="1.73" y="26.06" width="17.92" height="17.94" style="stroke-width:0px;"/></g><path d="m.89,34.53c0,5.21,4.24,9.45,9.45,9.45.1,0,.18-.08.18-.18s-.08-.18-.18-.18c-5.02,0-9.1-4.08-9.1-9.1s4.08-9.1,9.1-9.1,9.1,4.08,9.1,9.1v9.29c0,.1.08.18.18.18s.18-.08.18-.18v-9.29c0-5.21-4.24-9.45-9.45-9.45S.89,29.32.89,34.53"/><g style="clip-path:url(#uuid-9a8fd9a0-1c5f-4ba6-81a3-8cc4357bf5f7);"><rect x=".89" y="25.07" width="18.91" height="18.93" style="stroke-width:0px;"/></g><path d="m0,34.01C0,39.51,4.47,43.98,9.97,43.98c.1,0,.18-.08.18-.18s-.08-.18-.18-.18c-5.3,0-9.62-4.31-9.62-9.62s4.31-9.62,9.62-9.62,9.62,4.31,9.62,9.62v9.82c0,.1.08.18.18.18s.18-.08.18-.18v-9.82c0-5.5-4.48-9.97-9.98-9.97S0,28.51,0,34.01"/><g style="clip-path:url(#uuid-83e479f9-d241-45f4-bcc8-a0a26d754a69);"><rect y="24.03" width="19.95" height="19.97" style="stroke-width:0px;"/></g><path d="m36.47,15.29c0,2.61,2.13,4.74,4.74,4.74.1,0,.18-.08.18-.18s-.08-.18-.18-.18c-2.42,0-4.38-1.97-4.38-4.38s1.97-4.38,4.38-4.38,4.38,1.97,4.38,4.38v4.56c0,.1.08.18.18.18s.18-.08.18-.18v-4.56c0-2.61-2.13-4.74-4.74-4.74s-4.74,2.13-4.74,4.74"/><g style="clip-path:url(#uuid-38f7ef8a-a777-4cf3-9bd8-02c84d3308a4);"><rect x="36.47" y="10.55" width="9.48" height="9.48" style="stroke-width:0px;"/></g><path d="m36.11,15.03c0,2.75,2.24,4.99,4.99,4.99.1,0,.18-.08.18-.18s-.08-.18-.18-.18c-2.56,0-4.64-2.08-4.64-4.64s2.08-4.64,4.64-4.64,4.64,2.08,4.64,4.64v4.82c0,.1.08.18.18.18s.18-.08.18-.18v-4.82c0-2.75-2.24-4.99-4.99-4.99s-4.99,2.24-4.99,4.99"/><g style="clip-path:url(#uuid-31277a8e-933e-44e8-a08d-0435726d3dc8);"><rect x="36.11" y="10.04" width="9.99" height="9.99" style="stroke-width:0px;"/></g><path d="m35.72,14.76c0,2.9,2.36,5.26,5.27,5.26.1,0,.18-.08.18-.18s-.08-.18-.18-.18c-2.71,0-4.91-2.2-4.91-4.91s2.2-4.91,4.91-4.91,4.91,2.2,4.91,4.91v5.09c0,.1.08.18.18.18s.18-.08.18-.18v-5.09c0-2.9-2.36-5.26-5.26-5.26s-5.27,2.36-5.27,5.26"/><g style="clip-path:url(#uuid-582c898b-1171-4f21-aec0-d7d05a0a0aab);"><rect x="35.72" y="9.5" width="10.53" height="10.53" style="stroke-width:0px;"/></g><path d="m35.3,14.48c0,3.06,2.49,5.55,5.55,5.55.1,0,.18-.08.18-.18s-.08-.18-.18-.18c-2.86,0-5.19-2.33-5.19-5.19s2.33-5.19,5.19-5.19,5.19,2.33,5.19,5.19v5.37c0,.1.08.18.18.18s.18-.08.18-.18v-5.37c0-3.06-2.49-5.55-5.55-5.55s-5.55,2.49-5.55,5.55"/><g style="clip-path:url(#uuid-cf8dda8b-de4a-4490-9d08-5ba01d5710da);"><rect x="35.3" y="8.93" width="11.1" height="11.1" style="stroke-width:0px;"/></g><path d="m34.85,14.17c0,3.23,2.63,5.85,5.85,5.85.1,0,.18-.08.18-.18s-.08-.18-.18-.18c-3.03,0-5.49-2.46-5.49-5.49s2.46-5.49,5.49-5.49,5.49,2.46,5.49,5.49v5.67c0,.1.08.18.18.18s.18-.08.18-.18v-5.67c0-3.23-2.63-5.85-5.85-5.85s-5.85,2.63-5.85,5.85"/><g style="clip-path:url(#uuid-956401f9-39f8-4004-bbf1-98b1358a621e);"><rect x="34.85" y="8.32" width="11.7" height="11.7" style="stroke-width:0px;"/></g><path d="m34.36,13.86c0,3.4,2.77,6.17,6.17,6.17.1,0,.18-.08.18-.18s-.08-.18-.18-.18c-3.21,0-5.81-2.61-5.81-5.81s2.61-5.81,5.81-5.81,5.81,2.61,5.81,5.81v5.99c0,.1.08.18.18.18s.18-.08.18-.18v-5.99c0-3.4-2.77-6.17-6.17-6.17s-6.17,2.77-6.17,6.17"/><g style="clip-path:url(#uuid-8c764a2e-3fc8-4ef4-a9b3-ab10b3e7b09c);"><rect x="34.36" y="7.69" width="12.34" height="12.34" style="stroke-width:0px;"/></g><path d="m33.84,13.52c0,3.59,2.92,6.51,6.51,6.51.1,0,.18-.08.18-.18s-.08-.18-.18-.18c-3.39,0-6.15-2.76-6.15-6.15s2.76-6.15,6.15-6.15,6.15,2.76,6.15,6.15v6.33c0,.1.08.18.18.18s.18-.08.18-.18v-6.33c0-3.59-2.92-6.51-6.51-6.51s-6.51,2.92-6.51,6.51"/><g style="clip-path:url(#uuid-45c897d9-84bc-4560-b331-a3cda0faedc9);"><rect x="33.84" y="7.01" width="13.01" height="13.01" style="stroke-width:0px;"/></g><path d="m33.28,13.16c0,3.78,3.08,6.86,6.86,6.86.1,0,.18-.08.18-.18s-.08-.18-.18-.18c-3.59,0-6.5-2.92-6.5-6.5s2.92-6.5,6.5-6.5,6.5,2.92,6.5,6.5v6.68c0,.1.08.18.18.18s.18-.08.18-.18v-6.68c0-3.78-3.08-6.86-6.86-6.86s-6.86,3.08-6.86,6.86"/><g style="clip-path:url(#uuid-01e1146c-66f1-460b-8a2d-187f97db08e2);"><rect x="33.28" y="6.3" width="13.72" height="13.72" style="stroke-width:0px;"/></g><path d="m32.68,12.79c0,3.99,3.25,7.24,7.24,7.24.1,0,.18-.08.18-.18s-.08-.18-.18-.18c-3.79,0-6.88-3.09-6.88-6.88s3.09-6.88,6.88-6.88,6.88,3.09,6.88,6.88v7.06c0,.1.08.18.18.18s.18-.08.18-.18v-7.06c0-3.99-3.25-7.24-7.24-7.24s-7.24,3.25-7.24,7.24"/><g style="clip-path:url(#uuid-22763903-2e20-4ae8-a0ec-7e5926f82fea);"><rect x="32.68" y="5.55" width="14.47" height="14.47" style="stroke-width:0px;"/></g><path d="m32.04,12.39c0,4.21,3.42,7.63,7.63,7.63.1,0,.18-.08.18-.18s-.08-.18-.18-.18c-4.01,0-7.28-3.26-7.28-7.28s3.26-7.28,7.28-7.28,7.28,3.26,7.28,7.28v7.45c0,.1.08.18.18.18s.18-.08.18-.18v-7.45c0-4.21-3.42-7.63-7.63-7.63s-7.63,3.42-7.63,7.63"/><g style="clip-path:url(#uuid-67bb5b01-a222-46bc-8066-7507db898b52);"><rect x="32.04" y="4.76" width="15.27" height="15.27" style="stroke-width:0px;"/></g><path d="m31.35,11.97c0,4.44,3.61,8.05,8.05,8.05.1,0,.18-.08.18-.18s-.08-.18-.18-.18c-4.24,0-7.69-3.45-7.69-7.69s3.45-7.69,7.69-7.69,7.69,3.45,7.69,7.69v7.87c0,.1.08.18.18.18s.18-.08.18-.18v-7.87c0-4.44-3.61-8.05-8.05-8.05s-8.05,3.61-8.05,8.05"/><g style="clip-path:url(#uuid-efb424d8-c219-42d4-a3b7-233c06201a66);"><rect x="31.35" y="3.92" width="16.1" height="16.1" style="stroke-width:0px;"/></g><path d="m30.62,11.53c0,4.68,3.81,8.49,8.49,8.49.1,0,.18-.08.18-.18s-.08-.18-.18-.18c-4.49,0-8.14-3.65-8.14-8.14s3.65-8.14,8.14-8.14,8.14,3.65,8.14,8.14v8.32c0,.1.08.18.18.18s.18-.08.18-.18v-8.32c0-4.68-3.81-8.49-8.49-8.49s-8.49,3.81-8.49,8.49"/><g style="clip-path:url(#uuid-0a972931-d84b-45d7-aabd-76df105d6c0a);"><rect x="30.62" y="3.04" width="16.99" height="16.99" style="stroke-width:0px;"/></g><path d="m29.84,11.07c0,4.94,4.02,8.96,8.96,8.96.1,0,.18-.08.18-.18s-.08-.18-.18-.18c-4.74,0-8.6-3.86-8.6-8.6s3.86-8.6,8.6-8.6,8.6,3.86,8.6,8.6v8.78c0,.1.08.18.18.18s.18-.08.18-.18v-8.78c0-4.94-4.02-8.96-8.96-8.96s-8.96,4.02-8.96,8.96"/><g style="clip-path:url(#uuid-282e592b-c662-4ede-8010-aa0f89214f99);"><rect x="29.84" y="2.1" width="17.92" height="17.92" style="stroke-width:0px;"/></g><path d="m29,10.57c0,5.21,4.24,9.45,9.45,9.45.1,0,.18-.08.18-.18s-.08-.18-.18-.18c-5.02,0-9.1-4.08-9.1-9.1S33.44,1.48,38.46,1.48s9.1,4.08,9.1,9.1v9.28c0,.1.08.18.18.18s.18-.08.18-.18v-9.28c0-5.21-4.24-9.45-9.45-9.45s-9.45,4.24-9.45,9.45"/><g style="clip-path:url(#uuid-fa4136c0-e990-49e9-a2f1-c0e8e9446fee);"><rect x="29" y="1.12" width="18.91" height="18.91" style="stroke-width:0px;"/></g><path d="m28.11,10.05c0,5.5,4.48,9.98,9.98,9.98.1,0,.18-.08.18-.18s-.08-.18-.18-.18c-5.3,0-9.62-4.31-9.62-9.62S32.78.43,38.09.43s9.62,4.31,9.62,9.62v9.8c0,.1.08.18.18.18s.18-.08.18-.18v-9.8C48.06,4.55,43.59.08,38.09.08s-9.98,4.47-9.98,9.98"/><g style="clip-path:url(#uuid-2dd8bffc-0d56-4c01-b40b-1fb8bfa57b6c);"><rect x="28.11" y=".08" width="19.95" height="19.95" style="stroke-width:0px;"/></g><path d="m58.11,12.83c0-.62.45-.92,1.69-1.09l.41-.06v1.28c-.46.38-.88.59-1.33.59s-.77-.29-.77-.72m-1.27-3.28l.67.82c.53-.48,1.07-.74,1.67-.74s1.02.3,1.02.91v.27l-.63.07c-1.69.18-2.89.56-2.89,2.01,0,.92.62,1.65,1.75,1.65.63,0,1.23-.24,1.85-.73v.62h1.35v-3.82c0-1.19-.76-2-2.34-2-.84,0-1.69.27-2.45.92"/><g style="clip-path:url(#uuid-57cdd9a5-5155-4d50-9d6d-8e36debafd75);"><rect x="56.69" y="8.63" width="4.94" height="5.93" style="stroke-width:0px;"/></g><path d="m64.31,9.58v-.84h-1.37v5.7h1.41v-3.74c.36-.42.84-.79,1.29-.79.29,0,.46.08.63.19l.58-1.24c-.33-.19-.58-.23-.94-.23-.59,0-1.17.43-1.59.95"/><g style="clip-path:url(#uuid-61dc459e-e215-4a11-a425-20c208a0fedc);"><rect x="62.94" y="8.63" width="3.91" height="5.81" style="stroke-width:0px;"/></g><path d="m68.16,7.61v1.13h-.89v1.04h.89v3.04c0,1.18.33,1.73,1.84,1.73.24,0,.6-.04.82-.09v-1.09c-.19.04-.43.08-.6.08-.48,0-.64-.23-.64-.67v-3.01h1.24v-1.04h-1.24v-1.74l-1.42.62Z"/><g style="clip-path:url(#uuid-9be132b1-0935-44ed-bbca-a46f9da89ec3);"><rect x="67.27" y="6.99" width="3.55" height="7.56" style="stroke-width:0px;"/></g><path d="m74.3,9.63c.7,0,1.16.55,1.23,1.36h-2.48c.1-.81.56-1.36,1.25-1.36m-2.69,1.95c0,1.84,1.11,2.97,2.77,2.97,1.08,0,1.84-.32,2.46-1.05l-.87-.8c-.43.55-.93.77-1.47.77-.73,0-1.41-.47-1.46-1.56h3.92c0-1.63-.73-3.29-2.66-3.29-1.66,0-2.68,1.18-2.68,2.95"/><g style="clip-path:url(#uuid-fb9da03d-aa0a-49c2-b45d-dd78f8205922);"><rect x="71.61" y="8.63" width="5.34" height="5.93" style="stroke-width:0px;"/></g><path d="m56.79,22.29c0,.93.57,1.34,1.51,1.65l.61.2c.66.22.92.39.92.73s-.37.63-.98.63c-.5,0-1.16-.25-1.65-.67l-.65.82c.64.6,1.45.85,2.31.85,1.23,0,2.38-.56,2.38-1.81,0-1.01-.66-1.39-1.7-1.75l-.6-.2c-.49-.16-.74-.31-.74-.63s.33-.54.87-.54c.47,0,.98.19,1.46.59l.65-.83c-.64-.54-1.33-.76-2.11-.76-1.68,0-2.28.89-2.28,1.7"/><g style="clip-path:url(#uuid-17533e38-c195-41fb-8f1d-0dab6eb91028);"><rect x="56.54" y="20.58" width="4.7" height="5.93" style="stroke-width:0px;"/></g><path d="m63.51,23.55c0-1.22.54-1.89,1.31-1.89s1.32.67,1.32,1.89-.54,1.89-1.32,1.89-1.31-.67-1.31-1.89m-1.46,0c0,1.81,1.11,2.96,2.77,2.96s2.78-1.16,2.78-2.96-1.12-2.96-2.78-2.96-2.77,1.17-2.77,2.96m2.33-5.34l-1.46,1.38.41.49,1.49-.99,1.5,1,.41-.5-1.46-1.38h-.88Z"/><g style="clip-path:url(#uuid-a8aaee31-9cf4-4bc0-840c-2c889d89b8bd);"><rect x="62.05" y="18.21" width="5.55" height="8.3" style="stroke-width:0px;"/></g><path d="m70.07,21.35v-.65h-1.34v5.7h1.41v-4.02c.37-.28.91-.59,1.36-.59.6,0,.77.4.77,1.06v3.54h1.41v-4.09c0-1.03-.59-1.72-1.7-1.72-.74,0-1.37.36-1.91.76"/><g style="clip-path:url(#uuid-1c0e9db8-cbf4-45c6-a860-39104b7c9706);"><rect x="68.73" y="20.58" width="4.95" height="5.81" style="stroke-width:0px;"/></g><path d="m75.01,26.4h1.41v-5.7h-1.41v5.7Zm0-6.55h1.43v-1.12h-1.43v1.12Z"/><g style="clip-path:url(#uuid-1b1091f0-0fb3-4c3d-82f8-cada78acad87);"><rect x="75" y="18.73" width="1.43" height="7.67" style="stroke-width:0px;"/></g><path d="m77.56,23.55c0,1.82,1.14,2.96,2.73,2.96,1.04,0,1.78-.42,2.4-1.21l-.92-.78c-.38.53-.8.91-1.41.91-.78,0-1.34-.67-1.34-1.86,0-1.28.56-1.92,1.33-1.92.55,0,.93.3,1.26.8l.99-.7c-.58-.81-1.35-1.18-2.27-1.18-1.64,0-2.77,1.17-2.77,2.96"/><g style="clip-path:url(#uuid-b54b129e-0a47-4740-8ece-b14ca1fba789);"><rect x="77.56" y="20.58" width="5.13" height="5.93" style="stroke-width:0px;"/></g><path d="m84.7,24.78c0-.62.45-.92,1.69-1.09l.41-.06v1.28c-.46.38-.88.59-1.33.59s-.77-.29-.77-.72m-1.27-3.28l.67.82c.53-.48,1.08-.74,1.67-.74s1.03.3,1.03.91v.27l-.63.07c-1.69.18-2.89.56-2.89,2.01,0,.92.62,1.65,1.75,1.65.63,0,1.23-.24,1.85-.73v.62h1.35v-3.81c0-1.19-.76-2-2.34-2-.84,0-1.69.27-2.45.92"/><g style="clip-path:url(#uuid-cd664bca-a536-48dd-becc-99cdfaa21443);"><rect x="83.28" y="20.58" width="4.94" height="5.93" style="stroke-width:0px;"/></g><path d="m58.11,36.74c0-.62.45-.92,1.69-1.09l.41-.06v1.28c-.46.38-.88.59-1.33.59s-.77-.29-.77-.72m-1.27-3.28l.67.82c.53-.48,1.07-.74,1.67-.74s1.02.3,1.02.91v.27l-.63.07c-1.69.18-2.89.56-2.89,2.01,0,.92.62,1.65,1.75,1.65.63,0,1.23-.24,1.85-.73v.62h1.35v-3.81c0-1.19-.76-2-2.34-2-.84,0-1.69.27-2.45.92"/><g style="clip-path:url(#uuid-ef07deb0-7284-45dd-a312-2a7f22174856);"><rect x="56.69" y="32.54" width="4.94" height="5.93" style="stroke-width:0px;"/></g><path d="m67.47,33.38c-.23-.5-.66-.84-1.41-.84-.63,0-1.31.36-1.79.76v-.65h-1.34v5.7h1.41v-4.02c.38-.35.85-.59,1.23-.59.52,0,.65.36.65,1.05v3.56h1.41v-4.01c.26-.27.77-.6,1.23-.6.38,0,.64.17.64.86v3.74h1.41v-4.09c0-1.05-.55-1.72-1.57-1.72-.71,0-1.38.41-1.87.84"/><g style="clip-path:url(#uuid-e8225dc1-3f09-4773-af48-3a93dbacfdad);"><rect x="62.94" y="32.54" width="7.97" height="5.81" style="stroke-width:0px;"/></g><path d="m73.64,36.73v-2.45c.32-.35.74-.66,1.23-.66.83,0,1.22.81,1.22,1.86,0,1.11-.4,1.9-1.24,1.9-.49,0-.92-.35-1.21-.65m-.07-3.42v-.66h-1.34v7.75h1.41v-2.64c.39.43.9.7,1.6.7,1.32,0,2.3-1.13,2.3-2.96s-.94-2.96-2.3-2.96c-.69,0-1.19.25-1.67.77"/><g style="clip-path:url(#uuid-5216d617-5294-48f3-ad9a-f1ec5d5f8d4e);"><rect x="72.23" y="32.54" width="5.32" height="7.86" style="stroke-width:0px;"/></g><rect x="78.68" y="30.69" width="1.41" height="7.67"/><g style="clip-path:url(#uuid-109a283d-f1ca-4e28-91d8-a64bfb805243);"><rect x="78.68" y="30.69" width="1.41" height="7.67" style="stroke-width:0px;"/></g><path d="m81.47,38.36h1.41v-5.7h-1.41v5.7Zm0-6.55h1.43v-1.12h-1.43v1.12Z"/><g style="clip-path:url(#uuid-62712e04-eb09-442a-bd91-da807274c6e9);"><rect x="81.46" y="30.69" width="1.43" height="7.67" style="stroke-width:0px;"/></g><path d="m84.53,32.36v.29h-.89v1.03h.89v4.67h1.41v-4.67h1.16v-1.03h-1.16v-.26c0-.47.24-.64.78-.64.23,0,.45.04.67.06v-1.06c-.27-.04-.57-.07-.82-.07-1.45,0-2.04.51-2.04,1.67"/><g style="clip-path:url(#uuid-f8a5d98f-7ec3-4f26-9e7a-997d264b0726);"><rect x="83.63" y="30.69" width="3.75" height="7.67" style="stroke-width:0px;"/></g><path d="m87.95,38.36h1.41v-5.7h-1.41v5.7Zm0-6.55h1.43v-1.12h-1.43v1.12Z"/><g style="clip-path:url(#uuid-f01da6dd-9830-48bd-b9d0-9116f45b752d);"><rect x="87.94" y="30.69" width="1.43" height="7.67" style="stroke-width:0px;"/></g><path d="m90.49,35.5c0,1.82,1.14,2.96,2.73,2.96,1.03,0,1.78-.42,2.4-1.21l-.92-.78c-.37.53-.8.91-1.41.91-.78,0-1.34-.67-1.34-1.86,0-1.28.56-1.92,1.33-1.92.55,0,.93.3,1.26.8l.99-.7c-.58-.81-1.35-1.18-2.27-1.18-1.64,0-2.77,1.17-2.77,2.96"/><g style="clip-path:url(#uuid-8bf027c3-7037-4107-a9e6-3d68d17b18df);"><rect x="90.49" y="32.54" width="5.13" height="5.93" style="stroke-width:0px;"/></g><path d="m97.63,36.74c0-.62.45-.92,1.69-1.09l.41-.06v1.28c-.46.38-.88.59-1.33.59s-.77-.29-.77-.72m-1.27-3.28l.67.82c.53-.48,1.08-.74,1.67-.74s1.02.3,1.02.91v.27l-.63.07c-1.69.18-2.89.56-2.89,2.01,0,.92.62,1.65,1.75,1.65.63,0,1.23-.24,1.85-.73v.62h1.35v-3.81c0-1.19-.76-2-2.34-2-.84,0-1.69.27-2.45.92"/><g style="clip-path:url(#uuid-0fdfde9b-8bce-4616-be0c-e4b6e6be821c);"><rect x="96.21" y="32.54" width="4.94" height="5.93" style="stroke-width:0px;"/></g><path d="m103.69,35.52c0-1.11.4-1.9,1.24-1.9.49,0,.91.34,1.21.65v2.39c-.38.43-.78.71-1.23.71-.83,0-1.22-.81-1.22-1.86m2.44-4.84v2.56c-.4-.43-.88-.7-1.6-.7-1.33,0-2.3,1.15-2.3,2.96s.94,2.96,2.3,2.96c.65,0,1.2-.22,1.67-.82v.71h1.34v-7.67h-1.41Z"/><g style="clip-path:url(#uuid-25ff0008-ec1e-4503-9a2e-72e276a98fa2);"><rect x="102.23" y="30.69" width="5.32" height="7.78" style="stroke-width:0px;"/></g><path d="m110.04,36.74c0-.62.45-.92,1.69-1.09l.41-.06v1.28c-.46.38-.88.59-1.33.59s-.77-.29-.77-.72m-1.27-3.28l.67.82c.53-.48,1.08-.74,1.67-.74s1.02.3,1.02.91v.27l-.63.07c-1.69.18-2.89.56-2.89,2.01,0,.92.62,1.65,1.75,1.65.63,0,1.23-.24,1.85-.73v.62h1.35v-3.81c0-1.19-.76-2-2.34-2-.84,0-1.69.27-2.45.92"/><g style="clip-path:url(#uuid-0f2ebfe0-09d4-443f-8f81-5711c166a03c);"><rect x="108.62" y="32.54" width="4.94" height="5.93" style="stroke-width:0px;"/></g></g></svg>