<?xml version="1.0" encoding="UTF-8"?><svg id="uuid-b72dae2a-5eeb-43c0-aa51-8570702d5847" xmlns="http://www.w3.org/2000/svg" viewBox="0 0 99.57 28.54"><g id="uuid-92d964e1-96dd-47bf-84c0-bc262a72905e"><path d="m34.06,13.16V1.1h4.43c.95,0,1.57.15,2.09.38,1.22.59,1.77,1.7,1.77,2.73,0,1.15-.48,1.94-1.45,2.53v.04c1.39.31,2.23,1.28,2.23,2.74,0,1.63-.99,2.87-2.67,3.39-.6.18-1.26.26-2.31.26h-4.1m5.42-9.99c-.28-.13-.61-.2-1.14-.2h-2.21v3.15h2.09c.66,0,1.06-.11,1.35-.28.48-.27.71-.73.71-1.32s-.27-1.1-.8-1.35m.64,4.99c-.29-.13-.66-.2-1.37-.2h-2.62v3.33h2.47c.75,0,1.19-.09,1.54-.26.59-.29.88-.81.88-1.5,0-.62-.33-1.12-.9-1.37" style="stroke-width:0px;"/><rect x="55.2" y="1.1" width="2.07" height="12.06" style="stroke-width:0px;"/><rect x="70.21" y="1.1" width="2.07" height="12.06" style="stroke-width:0px;"/><path d="m78.95.99c1.3,0,2.62.31,3.35.68l-.03,1.98c-1.04-.51-2.11-.84-3.37-.84-1.13,0-2.1.35-2.1,1.3,0,2.47,6.2,1.48,6.2,5.56,0,2.25-1.9,3.68-4.67,3.68-1.88,0-3.18-.53-4.08-1.08l.86-1.68c.73.46,1.91.95,3.29.95,1.24,0,2.4-.48,2.4-1.57,0-2.58-6.15-1.45-6.15-5.56,0-2.2,1.75-3.4,4.3-3.4" style="stroke-width:0px;"/><polygon points="92.78 13.16 92.78 7.96 86.93 7.96 86.93 13.16 84.86 13.16 84.86 1.1 86.93 1.1 86.93 6.04 92.78 6.04 92.78 1.1 94.85 1.1 94.85 13.16 92.78 13.16" style="stroke-width:0px;"/><path d="m38.63,15.28c1.32,0,2.32.26,3.35.71l-.62,1.76c-.59-.27-1.35-.6-2.5-.6-2.29,0-3.71,1.94-3.71,4.3s1.33,4.32,3.71,4.32c1.15,0,1.92-.33,2.5-.6l.62,1.76c-1.03.46-2.03.71-3.35.71-3.61,0-5.67-2.52-5.67-6.15,0-3.38,2.07-6.2,5.67-6.2" style="stroke-width:0px;"/><path d="m83.86,15.28c1.32,0,2.32.26,3.35.71l-.62,1.76c-.59-.27-1.36-.6-2.51-.6-2.29,0-3.71,1.94-3.71,4.3s1.34,4.32,3.71,4.32c1.15,0,1.92-.33,2.51-.6l.62,1.76c-1.02.46-2.03.71-3.35.71-3.61,0-5.67-2.52-5.67-6.15,0-3.38,2.07-6.2,5.67-6.2" style="stroke-width:0px;"/><path d="m53.79,21.4c0,3.62-2.31,6.22-5.71,6.22s-5.71-2.51-5.71-6.13,2.3-6.22,5.71-6.22,5.71,2.51,5.71,6.13m-2.18.04c0-2.63-1.5-4.32-3.53-4.32s-3.53,1.68-3.53,4.33,1.5,4.32,3.53,4.32,3.53-1.68,3.53-4.34" style="stroke-width:0px;"/><path d="m55.19,22.9v-7.52h2.07v7.59c0,2.01,1.08,2.76,2.8,2.76s2.8-.75,2.8-2.76v-7.59h2.07v7.52c0,3.28-1.87,4.72-4.9,4.72s-4.83-1.44-4.83-4.72" style="stroke-width:0px;"/><path d="m68.81,18.66h-.04c.04.4.05,1.04.05,1.61v7.17h-2.07v-12.05h2.23l5.6,8.21h.04c-.04-.4-.05-1.04-.05-1.61v-6.6h2.07v12.05h-1.83l-6-8.78Z" style="stroke-width:0px;"/><rect x="88.83" y="15.39" width="2.06" height="12.06" style="stroke-width:0px;"/><polygon points="92.78 27.44 92.78 15.39 94.85 15.39 94.85 25.58 99.57 25.58 99.57 27.44 92.78 27.44" style="stroke-width:0px;"/><polygon points="68.63 1.1 58.84 1.1 58.84 2.99 62.7 2.99 62.7 13.16 64.77 13.16 64.77 2.99 68.63 2.99 68.63 1.1" style="stroke-width:0px;"/><path d="m51.48,13.16c-1.75-3.64-2.21-4.66-2.94-4.66h-1.92v4.66h-2.07V1.1h4.08c3.11,0,4.3,1.65,4.3,3.47,0,1.61-.93,2.69-2.23,3.09v.02c.55.31,1.13,1.45,3.15,5.47h-2.36Zm-2.72-10.19h-2.14v3.66h2.05c1.48,0,2.18-.77,2.18-1.87,0-.99-.64-1.79-2.08-1.79" style="stroke-width:0px;"/><path d="m13.79,21.65c0,3.81-3.09,6.89-6.89,6.89S0,25.46,0,21.65s3.09-6.89,6.89-6.89,6.89,3.09,6.89,6.89" style="stroke-width:0px;"/><path d="m28.54,21.65c0,3.81-3.09,6.89-6.89,6.89s-6.89-3.09-6.89-6.89,3.09-6.89,6.89-6.89,6.89,3.09,6.89,6.89" style="stroke-width:0px;"/><path d="m13.79,6.89c0,3.81-3.09,6.89-6.89,6.89S0,10.7,0,6.89,3.09,0,6.89,0s6.89,3.09,6.89,6.89" style="stroke-width:0px;"/><path d="m28.54,6.89c0,3.81-3.09,6.89-6.89,6.89s-6.89-3.09-6.89-6.89S17.84,0,21.65,0s6.89,3.09,6.89,6.89" style="stroke-width:0px;"/></g></svg>