<?xml version="1.0" encoding="UTF-8"?><svg id="uuid-3f545117-720d-49eb-9ef8-0b934beeb3d7" xmlns="http://www.w3.org/2000/svg" viewBox="0 0 75.36 48.95"><g id="uuid-85109885-7f88-470f-a190-06ef56181785"><rect x="29.62" y="30.4" width="45.55" height="2.04" style="stroke-width:0px;"/><path d="m4.08,38.46c-.39.58-.78.87-1.26.87-.78,0-1.46-.68-1.46-1.85,0-.87.58-1.75,1.46-1.75.39,0,.87.19,1.07.97l.29-.1c-.1-.39-.1-.58-.19-.97-.1,0-.58-.19-1.07-.19-1.46,0-2.43.87-2.43,2.14,0,.97.68,2.04,2.33,2.04.39,0,.97-.1,1.07-.1.1-.29.29-.68.39-1.07h-.19Zm2.72-3.01c-1.36,0-2.14,1.07-2.14,2.14,0,1.17.87,2.04,2.04,2.04s2.14-.78,2.14-2.14c0-1.17-.87-2.04-2.04-2.04h0Zm-.1.29c.68,0,1.17.78,1.17,1.94s-.39,1.75-.97,1.75c-.87,0-1.26-.97-1.26-1.94,0-1.07.49-1.75,1.07-1.75h0Zm7.58,3.79v-.19c-.49,0-.58-.1-.58-.68v-2.23c0-.49,0-.58.49-.58v-.29h-1.26l-1.17,2.72-1.17-2.72h-1.26v.29c.49,0,.58.1.49.78l-.1,1.17c0,.68-.1.97-.1,1.17-.1.29-.19.39-.49.39v.19h1.46v-.19c-.39,0-.58-.1-.58-.39v-.97l.1-1.55h0l1.26,3.11h.19l1.36-3.2h0v2.33c0,.58,0,.68-.49.68v.19h1.85Zm.39-3.98v.29c.39,0,.49,0,.49.58v2.33c0,.49-.1.58-.49.58v.19h1.85v-.19c-.49,0-.58-.1-.58-.58v-.87l.39.1h.29c.68-.1,1.26-.49,1.26-1.26,0-.39-.19-.68-.49-.87-.19-.19-.58-.29-1.07-.29h-1.65Zm1.26.49q0-.1.1-.19h.19c.39,0,.78.19.78.87,0,.87-.49.97-.68.97h-.39v-1.65Zm5.63,3.5v-.19c-.39,0-.49-.1-.68-.68-.39-1.07-.78-2.14-1.17-3.2l-.29.1-1.26,3.2c-.19.49-.29.58-.68.58v.19h1.36v-.19q-.39-.1-.39-.39c.1-.29.19-.49.29-.68h1.17c.1.19.19.49.19.68q.1.29-.29.39v.19h1.75Zm-1.75-1.65h-.97c.1-.39.29-.87.49-1.26h0l.49,1.26Zm6.31-2.33h-1.46v.19c.39.1.49.19.58.49v2.04h0l-2.33-2.72h-1.17v.19c.29.1.49.1.58.29.1.1.1.19.1.68v1.26c0,.49,0,.78-.1.97,0,.29-.1.39-.49.39v.19h1.55v-.19c-.49,0-.58-.1-.68-.39v-2.33h0l2.53,3.01h.29v-2.43c0-.58.1-.87.1-1.07s.19-.29.49-.39v-.19Zm4.66,0h-1.85v.29q.49,0,.49.58v.87h-1.65v-.87q0-.58.49-.58v-.29h-1.85v.29c.49,0,.58,0,.58.58v2.33c0,.49-.1.58-.58.58v.19h1.85v-.19c-.49,0-.49-.1-.49-.58v-1.17h1.65v1.17c0,.49,0,.58-.49.58v.19h1.85v-.19c-.49,0-.49-.1-.49-.58v-2.33q0-.58.49-.58v-.29Zm2.23,3.98v-.19c-.39,0-.49-.1-.49-.58v-2.33c0-.58.1-.58.49-.58v-.29h-1.85v.29c.49,0,.58,0,.58.58v2.33c0,.49-.1.58-.58.58v.19h1.85Zm4.27,0v-.19c-.39,0-.49-.1-.68-.68-.39-1.07-.78-2.14-1.17-3.2l-.29.1-1.26,3.2c-.19.49-.29.58-.68.58v.19h1.36v-.19q-.49-.1-.39-.39c.1-.29.1-.49.19-.68h1.17c.1.19.19.49.29.68.1.29,0,.29-.29.39v.19h1.75Zm-1.85-1.65h-.97c.19-.39.29-.87.49-1.26h0l.49,1.26Zm6.51.58c-.1.29-.19.49-.29.68-.19.1-.39.19-.68.19s-.49-.1-.58-.1c-.1-.1-.19-.19-.19-.49v-1.07h.49c.49,0,.58,0,.68.49h.19v-1.26h-.19c-.1.39-.19.49-.68.49h-.49v-1.36c0-.19.1-.19.29-.19h.29c.39,0,.49.1.58.19.1.1.19.29.29.49h.19v-.97h-2.91v.29c.39,0,.49,0,.49.58v2.33c0,.49-.1.58-.58.58v.19h3.11c.1-.19.19-.68.19-.97l-.19-.1Zm.58-2.91v.29c.39,0,.49,0,.49.58v2.33c0,.49-.1.58-.58.58v.19h1.55c.78,0,1.36-.1,1.85-.49.49-.39.78-.87.78-1.65,0-.58-.19-.97-.58-1.26-.39-.39-.97-.58-1.75-.58h-1.75Zm1.26.68c0-.19,0-.29.1-.29,0-.1.1-.1.39-.1.39,0,.68.1.97.39.29.29.49.68.49,1.26,0,1.17-.58,1.85-1.46,1.85-.39,0-.49-.19-.49-.68v-2.43Zm5.05,3.3v-.19c-.49,0-.49-.1-.49-.58v-2.33q0-.58.49-.58v-.29h-1.85v.29c.49,0,.58,0,.58.58v2.33c0,.49-.1.58-.58.58v.19h1.85Zm3.98-2.91v-1.17h-.19c-.1.1-.19.1-.29.1h-2.53q-.19,0-.29-.1h-.19c0,.29,0,.78-.1,1.17h.29c.1-.29.1-.49.19-.58.1-.1.19-.19.78-.19h.19v2.91c0,.49-.1.58-.58.58v.19h1.94v-.19c-.49,0-.58-.1-.58-.58v-2.91h.29c.39,0,.49,0,.58.19.1.1.19.29.29.58h.19Zm2.43-1.17c-1.36,0-2.14,1.07-2.14,2.14,0,1.17.87,2.04,2.04,2.04s2.14-.78,2.14-2.14c0-1.17-.87-2.04-2.04-2.04h0Zm-.1.29c.68,0,1.17.78,1.17,1.94s-.39,1.75-.97,1.75c-.78,0-1.26-.97-1.26-1.94,0-1.07.49-1.75,1.07-1.75h0Zm6.31,3.69c-.1-.1-.19-.1-.39-.29-.1-.1-.19-.29-.39-.68-.19-.29-.39-.68-.49-.87.39-.1.68-.39.68-.97,0-.39-.1-.68-.39-.78-.19-.19-.58-.29-1.07-.29h-1.75v.29c.49,0,.49.1.49.58v2.33c0,.49,0,.58-.49.58v.19h1.85v-.19c-.49,0-.49-.1-.49-.58v-.87h.1c.19,0,.29,0,.39.19.19.39.39.68.49.97.29.39.49.49,1.26.58h.19v-.19Zm-2.43-1.85v-1.75h.29c.39,0,.78.19.78.87,0,.29-.1.58-.39.68-.1.19-.29.19-.58.19h-.1Zm6.7,1.94v-.19c-.39,0-.49-.1-.68-.68-.39-1.07-.78-2.14-1.17-3.2l-.29.1-1.26,3.2c-.19.49-.29.58-.68.58v.19h1.36v-.19q-.49-.1-.39-.39c.1-.29.19-.49.19-.68h1.26c0,.19.1.49.19.68q.1.29-.29.39v.19h1.75Zm-1.85-1.65h-.87c.1-.39.29-.87.39-1.26h.1l.39,1.26Zm3.5-2.33v.29q.49,0,.49.58v2.33c0,.49,0,.58-.49.58v.19h1.55c.78,0,1.36-.1,1.84-.49.49-.39.78-.87.78-1.65,0-.58-.29-.97-.58-1.26-.39-.39-.97-.58-1.75-.58h-1.85Zm1.36.68v-.29c.1-.1.19-.1.39-.1.49,0,.78.1,1.07.39.29.29.39.68.39,1.26,0,1.17-.49,1.85-1.36,1.85-.39,0-.49-.19-.49-.68v-2.43Zm6.22,2.23c-.1.29-.19.49-.29.68-.19.1-.39.19-.68.19-.19,0-.49-.1-.58-.1-.1-.1-.1-.19-.1-.49v-1.07h.39c.49,0,.58,0,.68.49h.19v-1.26h-.19c-.1.39-.19.49-.68.49h-.39v-1.36q0-.19.19-.19h.29c.39,0,.58.1.68.19.1.1.19.29.19.49h.29c-.1-.39-.1-.87-.1-.97h-2.91v.29q.49,0,.49.58v2.33c0,.49,0,.58-.58.58v.19h3.11c.1-.19.19-.68.29-.97l-.29-.1ZM.49,41.66v.39c.78.1.87.19.87,1.07v4.18c0,.87-.1.97-.87,1.07v.39h3.4v-.39c-.97-.1-1.07-.19-1.07-1.07v-1.46l.78.1h.39c1.17-.1,2.23-.78,2.23-2.23,0-.68-.29-1.26-.78-1.55-.49-.39-1.07-.49-1.94-.49H.49Zm2.33.87c0-.19,0-.29.1-.29.1-.1.19-.1.39-.1.68,0,1.36.39,1.36,1.55,0,1.46-.87,1.75-1.26,1.75-.19,0-.49,0-.58-.1v-2.82Zm9.52,4.27c-.19.49-.39.87-.58,1.07-.29.29-.58.39-1.17.39-.49,0-.78,0-.97-.1-.29-.1-.29-.39-.29-.87v-1.94h.68c.97,0,1.07.1,1.26.87h.39v-2.23h-.39c-.19.78-.29.87-1.26.87h-.68v-2.33q0-.39.49-.39h.49c.58,0,.87.1,1.07.29.19.19.39.58.49.87h.39c-.1-.68-.1-1.46-.1-1.65h-5.15v.39c.78.1.87.1.87,1.07v4.18c0,.87-.1.97-1.07,1.07v.39h5.54c.1-.39.39-1.36.39-1.85l-.39-.1Zm7.77,1.65c-.29-.1-.49-.19-.68-.49-.19-.19-.49-.49-.87-1.17-.29-.49-.68-1.17-.87-1.55.78-.29,1.36-.78,1.36-1.75,0-.68-.29-1.17-.68-1.46-.49-.29-1.07-.39-2.04-.39h-3.01v.39c.78.1.87.19.87,1.07v4.18c0,.87-.1.97-.97,1.07v.39h3.3v-.39c-.78-.1-.87-.19-.87-1.07v-1.55h.19c.39,0,.58.1.68.39.39.58.68,1.17.97,1.65.39.68.78.97,2.23,1.07h.29l.1-.39Zm-4.47-3.2v-2.62c0-.19,0-.39.1-.39.1-.1.19-.1.49-.1.58,0,1.26.39,1.26,1.55,0,.58-.1.97-.49,1.26-.29.19-.68.29-1.07.29h-.29Zm12.33-3.59h-2.72v.39c.87,0,1.07.19,1.17.68v3.69h0l-4.18-4.76h-2.04v.39c.49,0,.78.1.97.39.19.29.19.49.19,1.17v2.23c0,.97-.1,1.46-.1,1.85-.1.49-.29.58-.87.68v.39h2.62v-.39c-.78,0-.97-.29-1.07-.68,0-.39-.1-.87-.1-1.85v-2.43h.1l4.47,5.44h.58v-4.27c0-.97,0-1.55.1-1.85,0-.49.29-.68.87-.68v-.39Zm7.19,7.09v-.39c-.78-.1-.87-.19-1.26-1.17-.68-1.94-1.36-3.79-2.04-5.73l-.58.19-2.23,5.54c-.39.97-.49,1.07-1.26,1.17v.39h2.52v-.39c-.87-.1-.87-.29-.68-.78.1-.39.29-.87.39-1.17h2.04c.19.39.39.87.49,1.26.19.49.1.58-.58.68v.39h3.2Zm-3.3-2.91h-1.65c.29-.78.49-1.55.87-2.33h0l.78,2.33Zm12.82,2.91v-.39c-.87-.1-.87-.19-.87-1.17l-.1-4.08c-.1-.87,0-.97.87-1.07v-.39h-2.23l-2.14,4.76-2.04-4.76h-2.33v.39c.97.1,1.07.29.97,1.46l-.19,2.14c-.1,1.17-.19,1.75-.19,2.04-.1.39-.29.58-.87.68v.39h2.62v-.39c-.78-.1-.97-.19-.97-.68-.1-.29-.1-.87,0-1.75l.1-2.82h0l2.23,5.54h.29l2.43-5.63h.1v4.18c0,.97-.1,1.07-.87,1.17v.39h3.2Zm4.66-3.88c.78-.1,1.75-.58,1.75-1.55,0-.58-.29-.97-.68-1.26-.39-.29-.97-.39-1.75-.39h-3.2v.39c.78.1.87.19.87,1.07v4.18c0,.87-.1.97-.97,1.07v.39h2.82c.87,0,1.75-.19,2.33-.49.58-.29.97-.87.97-1.65,0-.97-.87-1.55-2.14-1.65v-.1Zm-1.55-.1v-2.04c0-.19,0-.39.1-.49,0,0,.19-.1.49-.1.58,0,1.17.39,1.17,1.36,0,.87-.49,1.26-1.55,1.26h-.19Zm0,.49h.19c1.26,0,1.85.49,1.85,1.46,0,1.07-.68,1.55-1.26,1.55s-.78-.19-.78-.97v-2.04Zm11.85-3.59h-2.72v.39c.78.1.97.29,1.07.68,0,.29.1.68.1,1.46v1.17c0,1.85-.58,2.82-1.85,2.82-1.17,0-1.75-.97-1.75-2.62v-2.33c0-.97.1-1.07.87-1.17v-.39h-3.3v.39c.78.1.97.19.97,1.17v2.52c0,1.26.29,2.14.87,2.62.49.39,1.17.58,1.94.58s1.46-.29,2.04-.87c.58-.58.78-1.55.78-2.72v-1.17c0-.78,0-1.17.1-1.46,0-.39.29-.68.87-.68v-.39Zm6.9,5.05c-.58,1.07-1.26,1.65-2.14,1.65-1.46,0-2.62-1.26-2.62-3.3,0-1.55.87-3.11,2.52-3.11.78,0,1.65.39,2.04,1.75l.39-.1c-.1-.68-.19-1.17-.29-1.85-.29,0-1.07-.29-1.94-.29-2.62,0-4.37,1.55-4.37,3.79,0,1.75,1.26,3.69,4.18,3.69.68,0,1.75-.29,2.04-.29.1-.39.39-1.26.58-1.75l-.39-.19Zm4.95-5.15c-2.53,0-3.79,1.75-3.79,3.69,0,2.04,1.46,3.69,3.69,3.69,2.04,0,3.69-1.46,3.69-3.79,0-2.14-1.65-3.59-3.59-3.59h0Zm-.19.39c1.26,0,2.14,1.36,2.14,3.5,0,1.94-.87,3.01-1.85,3.01-1.46,0-2.23-1.55-2.23-3.5s.87-3.01,1.94-3.01h0Zm-43.99-15.34c-1.36,2.53-4.08,5.54-9.13,5.54-7.58,0-13.01-6.41-13.01-15.73,0-7.58,4.37-14.66,12.72-14.57,5.34.1,7.87,1.94,9.42,6.31l1.46-1.36c-.29-2.72-.29-2.62-.68-5.44-1.46-.19-4.86-1.36-8.84-1.36C8.16,0,0,6.9,0,17.38c0,7.96,5.44,16.51,17.87,16.51,3.59,0,7.77-.97,9.13-1.26.97-1.75,1.36-2.62,2.04-4.95l-1.75-1.07Zm13.69-4.18c-1.85,1.65-3.69,2.43-5.73,2.43-3.5,0-7.48-2.72-7.48-9.52,6.02-.19,12.24-.78,13.11-.87.87-.19,1.07-.58,1.07-1.65,0-3.79-3.3-7.58-7.48-7.58h0c-2.53,0-5.24,1.46-7.28,3.69-2.04,2.23-3.3,5.34-3.3,8.74,0,5.63,3.59,10.59,9.71,10.59,1.55,0,5.05-.87,8.16-4.76l-.78-1.07Zm-7.67-15.34c2.72,0,4.47,2.43,4.37,5.05,0,.68-.29.97-1.17.97-2.91.1-5.73.19-8.45.19.68-4.08,2.91-6.22,5.24-6.22h0Zm40.98,15.34c-1.84,1.65-3.69,2.43-5.73,2.43-3.5,0-7.48-2.72-7.48-9.52,6.02-.19,12.24-.78,13.11-.87.87-.19,1.17-.58,1.17-1.65,0-3.79-3.4-7.58-7.58-7.58h0c-2.53,0-5.24,1.46-7.28,3.69-2.04,2.23-3.3,5.34-3.3,8.74,0,5.63,3.59,10.59,9.71,10.59,1.55,0,5.05-.87,8.16-4.76l-.78-1.07Zm-7.67-15.34c2.72,0,4.47,2.43,4.37,5.05,0,.68-.29.97-1.17.97-2.91.1-5.73.19-8.45.19.68-4.08,2.91-6.22,5.24-6.22h0Zm-26.9-1.85v1.26c2.33.19,2.72.49,2.72,3.4v13.21c0,2.91-.39,3.2-2.91,3.4v1.17h10.68v-1.17c-2.91-.19-3.3-.49-3.3-3.4v-4.76l2.43.58c.29,0,.87,0,1.36-.1,3.69-.39,7.09-2.53,7.09-7.19,0-2.23-.97-3.88-2.53-5.05-1.46-.97-3.3-1.36-6.12-1.36h-9.42Zm7.19,2.82c0-.49.1-.87.39-1.07.19-.19.58-.39,1.26-.39,2.04,0,4.27,1.26,4.27,5.24,0,4.56-2.82,5.54-3.98,5.54-.78,0-1.46-.19-1.94-.39v-8.93Z" style="fill:#0a151e; stroke-width:0px;"/></g></svg>