<?xml version="1.0" encoding="UTF-8"?><svg id="uuid-6a256a51-c7a0-485b-bb78-fb518e96c48e" xmlns="http://www.w3.org/2000/svg" viewBox="0 0 133.73 50.47"><g id="uuid-8c66df84-3d02-42b0-9c17-91ad8bdef884"><path d="m48.03,6.46c.96,0,1.84.26,2.58.73,1.12-.52,2.44-.74,3.89-.74h3.53v1.55c1.62-1.22,3.68-1.91,6.02-1.91,2.98,0,5.42,1.17,7,3.18v-1.71c-.4-.7-.62-1.53-.62-2.43,0-2.81,2.18-4.85,5.19-4.85s5.19,2.04,5.19,4.85c0,.47-.06.91-.17,1.33h2.06c.96,0,1.84.38,2.58.85,1.12-.52,2.44-.86,3.89-.86h7.39c6.05,0,9.38,3.14,9.38,8.83v2.75h1.72v5.38h6.1v3.86h8.6c6.04,0,9.37,3.16,9.37,8.89v2.86h1.72v8.17h-5.99c-.93,0-1.77-.24-2.49-.69-1,.58-2.23.72-3.8.72-.28,0-.55-.01-.81-.03h-7.69c-2.96,0-5.28-.98-6.73-2.73-.78,1.17-2.09,2.02-3.71,2.53-.01,0-.03.01-.04.01-.09.03-.19.06-.28.08-.16.04-.31.08-.48.12-.04.01-.09.02-.13.03-.07.01-.13.03-.2.04-1.79.35-3.85.3-5.95-.23-.56-.14-1.1-.32-1.62-.51-.06-.02-.11-.04-.17-.07-.07-.03-.14-.06-.21-.08-.05-.02-.09-.04-.14-.06-.85-.36-1.64-.75-2.34-1.23-1.8,1.51-4.14,2.41-6.74,2.41-2.87,0-5.4-1.02-7.25-2.72v2.12l-1.08.71c-2.62,1.74-5.26,2.55-8.3,2.55-7.73,0-13.13-5.27-13.13-12.81,0-4.77,2.08-8.64,5.5-10.85H26.25c-5.3-.02-9.31-3.36-10.15-8.2h-4.07v8.18H2.39V9.63H.29V.9h20.1v6.76c1.54-.99,3.4-1.55,5.46-1.55,2.8,0,5.12,1.05,6.7,2.87v-2.5h4.14c.96,0,1.84.26,2.57.73,1.12-.52,2.44-.74,3.89-.74h4.86Z" style="stroke-width:0px;"/><path d="m49.3,6.93c-.4-.11-.83-.18-1.28-.18h-4.86c-.71,0-1.39.06-2.02.17-.63.12-1.21.29-1.75.54l-.15.07-.14-.09c-.35-.22-.73-.4-1.14-.51-.4-.11-.83-.17-1.27-.17h-3.85v2.99l-.51-.59c-.77-.88-1.72-1.58-2.82-2.05-1.08-.46-2.31-.71-3.65-.71-.99,0-1.93.13-2.81.38-.9.26-1.74.64-2.49,1.12l-.45.29V1.19H.58v8.14h2.09v16.88h9.05v-8.18h4.61l.04.24c.41,2.36,1.6,4.36,3.33,5.76,1.71,1.38,3.97,2.19,6.53,2.2,11.46.06,22.94,0,34.41,0l-.83.53c-1.69,1.09-3.04,2.6-3.97,4.42-.9,1.78-1.4,3.87-1.4,6.18,0,3.69,1.32,6.82,3.58,9.03,2.26,2.21,5.47,3.49,9.26,3.49,1.49,0,2.88-.2,4.22-.61,1.34-.41,2.63-1.04,3.92-1.89l.95-.63v-2.63l.49.45c.91.84,2,1.51,3.21,1.96,1.17.44,2.47.68,3.84.68,1.24,0,2.43-.21,3.51-.6,1.13-.4,2.15-1,3.04-1.74l.17-.14.18.13c.34.24.71.45,1.08.65.38.2.78.38,1.21.56l.51.2c.27.1.53.19.79.28.26.08.53.16.8.23,1.01.26,2.01.4,2.98.44.99.04,1.95-.03,2.84-.21.37-.07.75-.16,1.1-.28.8-.25,1.52-.59,2.13-1.01.58-.39,1.06-.87,1.42-1.41l.22-.33.25.3c.7.84,1.62,1.5,2.72,1.95,1.09.44,2.36.68,3.79.68,2.62,0,5.5-.14,8.09.02h.4c.77,0,1.45-.03,2.06-.13.59-.1,1.12-.27,1.59-.54l.15-.09.15.09c.33.21.7.37,1.1.48.39.11.8.16,1.24.16h5.7v-7.59h-1.72v-3.15c0-2.78-.8-4.94-2.33-6.39-1.53-1.45-3.81-2.21-6.75-2.21h-8.9v-3.86h-6.1v-5.38h-1.72v-3.04c0-2.76-.8-4.9-2.33-6.34-1.53-1.44-3.81-2.2-6.75-2.2h-7.39c-.68,0-1.33.07-1.93.21-.66.15-1.27.36-1.83.62l-.14.07-.14-.09c-.35-.22-.74-.42-1.15-.57-.4-.14-.83-.23-1.27-.23h-2.44l.1-.36c.05-.2.09-.4.12-.61.02-.21.04-.42.04-.64,0-1.32-.51-2.46-1.37-3.27-.87-.81-2.1-1.29-3.52-1.29s-2.65.48-3.52,1.29c-.86.81-1.37,1.95-1.37,3.27,0,.42.05.83.15,1.2.1.39.24.75.43,1.09l.04.07v2.63l-.52-.66c-.77-.98-1.76-1.75-2.91-2.28-1.13-.51-2.43-.79-3.86-.79-1.13,0-2.18.16-3.15.47-.99.31-1.89.78-2.69,1.38l-.47.35v-1.85h-3.23c-.71,0-1.39.05-2.02.17-.63.12-1.21.29-1.75.54l-.14.07-.14-.09c-.35-.22-.73-.4-1.14-.51m-1.28-.76c.5,0,.98.07,1.44.2.41.12.8.29,1.16.5.54-.24,1.13-.41,1.75-.52.67-.12,1.38-.18,2.12-.18h3.82v1.28c.73-.48,1.53-.86,2.4-1.14,1.03-.33,2.14-.5,3.33-.5,1.51,0,2.89.3,4.1.84.99.45,1.87,1.07,2.61,1.84v-.86c-.19-.36-.35-.75-.45-1.16-.11-.42-.16-.88-.16-1.34,0-1.49.58-2.78,1.56-3.69.97-.91,2.34-1.45,3.92-1.45s2.95.54,3.92,1.45c.98.92,1.56,2.2,1.56,3.69,0,.24-.02.48-.04.71l-.05.32h1.7c.51,0,1.01.1,1.47.27.4.14.78.33,1.13.54.56-.25,1.17-.45,1.81-.6.65-.14,1.34-.22,2.06-.22h7.39c3.1,0,5.51.81,7.16,2.36,1.65,1.55,2.51,3.83,2.51,6.76v2.46h1.72v5.38h6.1v3.86h8.31c3.1,0,5.51.82,7.15,2.38,1.65,1.56,2.51,3.86,2.51,6.81v2.57h1.72v8.75h-6.28c-.48,0-.95-.06-1.39-.18-.39-.11-.76-.26-1.1-.46-.49.26-1.03.42-1.63.53-.65.11-1.36.15-2.16.15h-.43s-.4-.03-.4-.03h-7.67c-1.5,0-2.85-.25-4.01-.72-1.07-.43-1.98-1.05-2.7-1.83-.37.48-.83.9-1.36,1.26-.66.45-1.43.81-2.29,1.08-.38.12-.78.22-1.17.3-.93.18-1.94.26-2.98.22-1-.04-2.05-.19-3.1-.46-.28-.07-.56-.15-.83-.24-.29-.09-.56-.19-.82-.29l-.53-.21c-.43-.18-.84-.37-1.25-.58-.34-.17-.66-.36-.96-.56-.9.72-1.93,1.3-3.05,1.71-1.15.41-2.4.64-3.71.64-1.45,0-2.81-.25-4.05-.72-1.07-.4-2.05-.96-2.91-1.66v1.64l-1.21.8c-1.33.88-2.67,1.54-4.07,1.96-1.4.43-2.84.64-4.39.64-3.94,0-7.3-1.35-9.67-3.66-2.37-2.31-3.76-5.59-3.76-9.44,0-2.4.52-4.58,1.46-6.44.83-1.63,1.99-3.03,3.41-4.11H25.95c-2.58-.07-4.86-.92-6.61-2.33-1.78-1.44-3.02-3.47-3.49-5.87h-3.54v8.18H2.09V9.92H0V.61h20.69v6.53c.68-.39,1.42-.7,2.2-.92.93-.26,1.93-.41,2.97-.41,1.42,0,2.73.26,3.88.76.95.41,1.8.97,2.52,1.67v-2.06h4.43c.5,0,.98.07,1.43.2.41.12.8.29,1.16.5.54-.24,1.13-.41,1.75-.52.67-.12,1.38-.18,2.12-.18h4.86Z" style="fill:#fff; stroke-width:0px;"/><path d="m38.85,10.47c-.24-.98-1.11-1.59-2.15-1.59h-1.72v14.94h4.62v-8.14c0-2.33,1.6-3.37,3.63-3.37h1.05v-3.49h-1.11c-1.97,0-3.45.61-4.31,1.65m46.73,5.2c0-2.33,1.6-3.37,3.63-3.37h1.05v-3.49h-1.11c-1.97,0-3.45.61-4.31,1.65-.25-.98-1.11-1.59-2.16-1.59h-1.72v14.94h4.62v-8.14Zm-59.72-7.16c-4.49,0-7.51,3.25-7.51,7.9,0,4.41,3.08,7.71,7.94,7.71,2.28,0,4.13-.43,5.48-1.41v-3.49c-1.6.86-3.14,1.16-5.05,1.16-2.09,0-3.57-1.1-4-2.94h9.54c.06-.49.12-1.22.12-1.84,0-4.22-2.46-7.1-6.53-7.1Zm-3.02,5.75c.43-1.47,1.41-2.32,2.96-2.32,1.36,0,2.28.86,2.4,2.32h-5.36Zm27.34-3.79c-.25-.98-1.11-1.59-2.15-1.59h-1.72v14.94h4.62v-8.14c0-2.33,1.6-3.37,3.63-3.37h1.05v-3.49h-1.11c-1.97,0-3.45.61-4.31,1.65Zm25.92-1.59h-2.65v14.94h4.62v-12.86c0-1.28-.74-2.08-1.97-2.08ZM2.71,7.22h1.23c.62,0,.86.24.86.86v16.02h4.8v-8.18h6.95v-3.92h-6.95v-4.77h8.37v-3.92H2.71v3.92Zm100.79,12.36v-4.41c0-4.22-2.16-6.43-6.96-6.43h-4.49v3.55h3.94c2.03,0,3.02.61,3.08,2.39h-1.35c-4.56,0-7.2,1.29-7.2,4.84,0,2.82,1.85,4.59,4.86,4.59,1.91,0,3.02-.8,4.06-1.9.43,1.04,1.17,1.59,2.22,1.59h3.57v-3.37h-.86c-.56,0-.86-.31-.86-.86Zm-7.21,1.16c-.92,0-1.6-.61-1.6-1.41,0-1.28.86-1.78,3.02-1.78h1.35c-.06,1.84-1.17,3.18-2.77,3.18Zm-31.83,3.37c2.28,0,4.12-.43,5.54-1.41v-3.49c-1.6.86-3.2,1.16-5.11,1.16-2.09,0-3.57-1.1-3.94-2.94h9.48c.12-.49.18-1.22.18-1.84,0-4.22-2.46-7.1-6.59-7.1-4.49,0-7.45,3.24-7.45,7.9,0,4.41,3.08,7.71,7.88,7.71Zm-.49-12.18c1.36,0,2.34.85,2.4,2.33h-5.3c.43-1.47,1.35-2.33,2.89-2.33Zm-2.4,25.43c0-4.04,2.65-6.24,6.1-6.24,2.34,0,4.19.67,6.22,2.02v-4.22c-1.91-1.22-4.25-2.02-6.96-2.02-6.22,0-10.34,4.35-10.34,10.47s4.31,10.41,10.71,10.41c2.77,0,4.93-.8,6.96-2.14v-4.28c-2.21,1.47-4.31,2.14-6.59,2.14-3.51,0-6.1-2.2-6.1-6.12Zm49.75-11.54h-4.68v13.4c0,3.98,2.59,5.57,6.04,5.57h2.28v-3.67h-1.66c-1.17,0-1.97-.61-1.97-2.26v-5.63h4.43v-3.55h-4.43v-3.86Zm18.9,15.61c-.62,0-.93-.3-.93-.92v-4.35c0-4.28-2.15-6.49-6.96-6.49h-4.68v3.55h4.19c1.97,0,2.96.67,3.08,2.39h-1.42c-4.56,0-7.14,1.35-7.14,4.9,0,2.82,1.79,4.59,4.8,4.59,1.91,0,3.08-.86,4.13-1.9.37,1.04,1.11,1.59,2.16,1.59h3.57v-3.37h-.8Zm-8.07.25c-.98,0-1.66-.55-1.66-1.35,0-1.35.92-1.84,3.08-1.84h1.36c-.06,1.9-1.17,3.18-2.77,3.18Zm-38.24-12.12c-4.56,0-8,3.37-8,7.83s3.45,7.71,8,7.71,7.94-3.43,7.94-7.84-3.39-7.71-7.94-7.71Zm0,11.81c-2.03,0-3.33-1.53-3.33-4.04s1.29-4.04,3.33-4.04,3.26,1.47,3.26,4.04-1.29,4.04-3.26,4.04Zm9.42-7.16c0,2.08,1.11,3.24,3.82,4.35,2.09.86,2.89,1.35,2.89,2.02,0,.73-.49.92-1.48.92-1.85,0-3.63-.37-5.3-1.23v3.55c1.23.74,3.51,1.29,5.79,1.29,3.39,0,5.73-1.84,5.73-4.65s-2.16-3.73-4.19-4.65c-1.85-.86-2.65-1.04-2.65-1.71s.49-.86,1.66-.86h5.17v-3.55h-5.54c-3.51,0-5.91,1.59-5.91,4.53Zm-17.73-26.56c1.66,0,2.77-.98,2.77-2.51s-1.11-2.45-2.77-2.45-2.77.98-2.77,2.45,1.11,2.51,2.77,2.51Z" style="fill:#fff; stroke-width:0px;"/></g></svg>