<?xml version="1.0" encoding="UTF-8"?><svg id="uuid-6e925cb4-f1aa-4fe7-8e62-9ad4da9d0615" xmlns="http://www.w3.org/2000/svg" viewBox="0 0 69.36 83.19"><g id="uuid-a22c11b6-c767-458d-9f3a-b0161941c70b"><path d="m15.66,63.17h1.85v-24.41c0-10.57,7.75-18.94,17.53-18.94,11.1,0,16.83,7.58,16.83,18.59v24.76h1.85v-24.93c0-12.16-6.61-20.18-18.5-20.18-10.49,0-16.1,6.58-18.24,13.11-1.04,3.71-1.16,5.91-1.32,9.88v22.13Z" style="fill-rule:evenodd; stroke-width:0px;"/><path d="m69.36,36.21h0c0-19.58-14.92-28.1-16.62-29.01l-.87,1.63c1.6.85,15.64,8.88,15.64,27.37h0s0,.01,0,.01v3.35c-4.41-1.59-8.79-2.73-14.96-2.73-11.01,0-20.18,4.76-20.18,14.01s7.84,13.39,16.48,13.39c11.28,0,17.42-4.97,19.63-11.81.78-2.64.61-4.74.88-10.79v-5.42h0Zm-1.85,10.84c.13,8.63-6.77,15.42-18.58,15.42-7.75,0-14.63-3.79-14.63-11.54,0-8.28,8.38-12.33,18.33-12.33,6.7,0,10.2,1.06,14.87,2.82v5.64Z" style="fill-rule:evenodd; stroke-width:0px;"/><rect x="25.55" y="11.11" width="1.85" height="52.06" style="stroke-width:0px;"/><rect x="25.54" y="6.07" width="1.85" height="2.33" style="stroke-width:0px;"/><path d="m8.28,11.75C12.36,7.28,18.28,3.99,25.41,2.23c.52-.13,1.25-.27,1.98-.37V0c-.95.12-1.88.31-2.43.44C9.34,4.28,0,14.86,0,28.75v6.78h0v3.36s0,.02-.01.03h.01v24.25h1.85v-23.9c.56-1.18,3.24-5.79,10.85-6.27.1-.6.23-1.22.38-1.87-5.99.23-9.4,2.72-11.23,4.83v-3.59h0s0-3.62,0-3.62c0-6.61,2.16-12.33,6.42-17Z" style="stroke-width:0px;"/><path d="m1.74,75.53h2.35c1.42,0,2.35.75,2.35,1.99v.02c0,1.35-1.13,2.05-2.46,2.05h-1.52v2.21h-.71v-6.27Zm2.26,3.41c1.04,0,1.72-.56,1.72-1.38v-.02c0-.9-.67-1.36-1.68-1.36h-1.59v2.76h1.55Z" style="stroke-width:0px;"/><path d="m9.51,75.53h2.7c.77,0,1.39.23,1.78.63.3.3.48.74.48,1.24v.02c0,1.04-.72,1.65-1.7,1.83l1.93,2.56h-.87l-1.82-2.44h-1.79v2.44h-.71v-6.27Zm2.63,3.2c.94,0,1.61-.48,1.61-1.29v-.02c0-.77-.59-1.24-1.6-1.24h-1.94v2.55h1.93Z" style="stroke-width:0px;"/><path d="m17.51,78.69v-.02c0-1.73,1.3-3.24,3.21-3.24s3.19,1.5,3.19,3.23v.02c0,1.73-1.3,3.24-3.21,3.24s-3.19-1.5-3.19-3.23Zm5.66,0v-.02c0-1.43-1.04-2.59-2.47-2.59s-2.46,1.15-2.46,2.57v.02c0,1.42,1.04,2.59,2.47,2.59s2.46-1.15,2.46-2.57Z" style="stroke-width:0px;"/><path d="m27.2,75.53h2.18c1.97,0,3.33,1.35,3.33,3.12v.02c0,1.77-1.36,3.14-3.33,3.14h-2.18v-6.27Zm2.18,5.62c1.59,0,2.6-1.08,2.6-2.46v-.02c0-1.39-1.01-2.48-2.6-2.48h-1.47v4.96h1.47Z" style="stroke-width:0px;"/><path d="m35.9,79.18v-3.65h.71v3.6c0,1.35.72,2.11,1.92,2.11s1.89-.7,1.89-2.07v-3.65h.71v3.59c0,1.83-1.05,2.78-2.62,2.78s-2.61-.95-2.61-2.72Z" style="stroke-width:0px;"/><path d="m46.34,82.89l.69-1c-1.59-.21-2.72-1.54-2.72-3.2v-.02c0-1.77,1.33-3.24,3.17-3.24,1.14,0,1.82.4,2.45.99l-.48.52c-.53-.5-1.12-.86-1.97-.86-1.39,0-2.43,1.13-2.43,2.57v.02c0,1.45,1.05,2.59,2.43,2.59.86,0,1.43-.33,2.03-.9l.47.46c-.63.64-1.31,1.06-2.37,1.09l-.59,1.29-.67-.3Z" style="stroke-width:0px;"/><path d="m55.32,75.49h.66l2.86,6.32h-.76l-.74-1.66h-3.41l-.74,1.66h-.73l2.86-6.32Zm-1.12-.65c.18-.62.42-.91.84-.91.39,0,.91.35,1.2.35.23,0,.33-.13.47-.42l.44.13c-.18.62-.42.91-.84.91-.39,0-.91-.35-1.2-.35-.23,0-.33.13-.47.43l-.44-.13Zm2.87,4.67l-1.43-3.2-1.43,3.2h2.86Z" style="stroke-width:0px;"/><path d="m61.23,78.69v-.02c0-1.73,1.3-3.24,3.21-3.24s3.19,1.5,3.19,3.23v.02c0,1.73-1.3,3.24-3.21,3.24s-3.19-1.5-3.19-3.23Zm5.66,0v-.02c0-1.43-1.04-2.59-2.47-2.59s-2.46,1.15-2.46,2.57v.02c0,1.42,1.04,2.59,2.47,2.59s2.46-1.15,2.46-2.57Z" style="stroke-width:0px;"/></g></svg>