<?xml version="1.0" encoding="UTF-8"?><svg id="uuid-2eadb154-f960-46bd-8bed-ec15ab6d6d18" xmlns="http://www.w3.org/2000/svg" xmlns:xlink="http://www.w3.org/1999/xlink" viewBox="0 0 96.52 73.95"><defs><clipPath id="uuid-0d27fcab-2fba-4e0e-a567-34f0bdbceee7"><path d="m78.93,10.49c-5.53.88-9.34,5.86-8.5,11.13.26,1.66.96,3.15,1.95,4.39,2.17,2.69,11.03,12.79,11.03,12.79,0,0-5.31-12.34-6.54-15.57-.57-1.49-.77-3.12-.5-4.78.6-3.79,3.44-6.7,7.04-7.71-.9-.25-1.84-.38-2.81-.38-.55,0-1.11.04-1.67.13" style="fill:none; stroke-width:0px;"/></clipPath><linearGradient id="uuid-2a76319c-792e-481d-b079-2887b21a42a9" x1="-746.79" y1="-272.65" x2="-746.47" y2="-272.65" gradientTransform="translate(7739.29 21001.7) rotate(90) scale(28.11 -28.11)" gradientUnits="userSpaceOnUse"><stop offset="0" stop-color="#f7f719"/><stop offset="0" stop-color="#f7f719"/><stop offset="0" stop-color="#f4f519"/><stop offset=".07" stop-color="#c4e01e"/><stop offset=".14" stop-color="#9acc23"/><stop offset=".22" stop-color="#75bb28"/><stop offset=".3" stop-color="#56ad2b"/><stop offset=".39" stop-color="#3ca22e"/><stop offset=".49" stop-color="#299931"/><stop offset=".61" stop-color="#1b9232"/><stop offset=".75" stop-color="#138f33"/><stop offset="1" stop-color="#118e34"/></linearGradient><clipPath id="uuid-afe9a788-b4f4-4b7c-805d-d827354abf90"><path d="m76.37,18.45c-.26,1.66-.06,3.3.5,4.78,1.23,3.23,6.54,15.57,6.54,15.57,0,0,5.32-12.35,6.55-15.58.56-1.48.76-3.11.5-4.77-.6-3.79-3.44-6.7-7.05-7.71-3.6,1.01-6.44,3.92-7.04,7.71" style="fill:none; stroke-width:0px;"/></clipPath><linearGradient id="uuid-242f4eaa-a7fc-4b49-92d0-09c4ca79b6e8" x1="-753.15" y1="-262.72" x2="-752.84" y2="-262.72" gradientTransform="translate(24883.37 71106.32) rotate(90) scale(94.4 -94.4)" gradientUnits="userSpaceOnUse"><stop offset="0" stop-color="#39a32b"/><stop offset=".24" stop-color="#2c9c2d"/><stop offset=".68" stop-color="#1b9431"/><stop offset="1" stop-color="#159133"/></linearGradient><clipPath id="uuid-c3d43701-822b-4b3a-ab76-0c8fee809cd6"><path d="m78.93,10.6c-5.51.87-9.31,5.84-8.48,11.1.26,1.65.95,3.14,1.95,4.38,2.16,2.68,11,12.75,11,12.75,0,0-5.29-12.3-6.52-15.52-.57-1.48-.76-3.11-.5-4.77.6-3.78,3.43-6.68,7.02-7.68-.89-.25-1.83-.38-2.8-.38-.55,0-1.11.04-1.67.13" style="stroke-width:0px;"/></clipPath><clipPath id="uuid-acade6d3-2ef6-413c-b7b6-b2309a72007f"><path d="m76.38,18.54c-.26,1.66-.06,3.29.5,4.77,1.23,3.22,6.52,15.52,6.52,15.52,0,0,5.3-12.31,6.53-15.53.56-1.48.76-3.1.5-4.76-.6-3.78-3.43-6.68-7.02-7.68-3.59,1-6.42,3.9-7.02,7.68" style="stroke-width:0px;"/></clipPath><clipPath id="uuid-202b3b57-6207-4e67-ace5-f353e1fd7e0f"><path d="m17.21,36.35c0,11.13,9.42,17.84,20.94,17.84,10.52,0,18.59-7.62,18.59-13.78,0-5.78-3.64-8.57-8.36-11.7-4.24-2.81-7.48-8.94-16.21-8.94-9.8,0-14.96,8.96-14.96,16.59" style="fill:none; stroke-width:0px;"/></clipPath></defs><g id="uuid-8aaf3119-2005-4f70-9c54-f5b07cecb73c"><path d="m87.9,10.49c-1.55-.25-3.08-.14-4.48.25,3.61,1.01,6.45,3.92,7.05,7.71.26,1.66.07,3.29-.5,4.77-1.23,3.23-6.55,15.58-6.55,15.58,0,0,8.87-10.1,11.04-12.8,1-1.23,1.68-2.72,1.95-4.38.84-5.27-2.97-10.26-8.5-11.13" style="fill:#159133; stroke-width:0px;"/><g style="clip-path:url(#uuid-0d27fcab-2fba-4e0e-a567-34f0bdbceee7);"><rect x="62.98" y="8.88" width="27.06" height="31.39" transform="translate(-1.08 45.5) rotate(-32.91)" style="fill:url(#uuid-2a76319c-792e-481d-b079-2887b21a42a9); stroke-width:0px;"/></g><g style="clip-path:url(#uuid-afe9a788-b4f4-4b7c-805d-d827354abf90);"><rect x="73.96" y="9.75" width="18.9" height="30.03" transform="translate(-2.88 13.62) rotate(-9.18)" style="fill:url(#uuid-242f4eaa-a7fc-4b49-92d0-09c4ca79b6e8); stroke-width:0px;"/></g><polygon points="87.65 41.86 89.46 41.86 89.46 42.48 87.65 42.48 87.65 44.25 87.02 44.25 87.02 40.12 89.46 40.12 89.46 40.74 87.65 40.74 87.65 41.86" style="fill:#58595b; stroke-width:0px;"/><path d="m92.6,40.12h.63v2.73c0,.89-.6,1.46-1.48,1.46s-1.48-.57-1.48-1.46v-2.73h.63v2.73c0,.58.44.83.85.83s.85-.25.85-.83v-2.73Z" style="fill:#58595b; stroke-width:0px;"/><polygon points="88.64 45.67 88.64 49.17 88.01 49.17 88.01 45.67 86.85 45.67 86.85 45.04 89.81 45.04 89.81 45.67 88.64 45.67" style="fill:#58595b; stroke-width:0px;"/><path d="m92.6,45.04h.63v2.73c0,.89-.6,1.46-1.48,1.46s-1.48-.57-1.48-1.46v-2.73h.63v2.73c0,.58.44.83.85.83s.85-.25.85-.83v-2.73Z" style="fill:#58595b; stroke-width:0px;"/><path d="m87.48,52.32v1.78h-.63v-4.13h1.62c.82,0,1.27.47,1.27,1.18,0,.61-.32,1.03-.93,1.15l1.06,1.81h-.71l-1.05-1.78h-.64Zm1.62-1.17c0-.36-.24-.56-.63-.56h-.99v1.12h.99c.38,0,.63-.2.63-.56" style="fill:#58595b; stroke-width:0px;"/><path d="m90.3,51.36c0-.89.6-1.46,1.48-1.46s1.48.57,1.48,1.46v1.33c0,.89-.6,1.46-1.48,1.46s-1.48-.57-1.48-1.46v-1.33Zm2.33,0c0-.58-.44-.83-.85-.83s-.85.25-.85.83v1.33c0,.58.44.83.85.83s.85-.25.85-.83v-1.33Z" style="fill:#58595b; stroke-width:0px;"/><path d="m83.3,43.2c.91,0,1.64-.74,1.64-1.64s-.73-1.64-1.64-1.64-1.64.74-1.64,1.64.73,1.64,1.64,1.64m.02,1.22c-.92,0-1.67,2.2-1.67,4.9s.75,4.9,1.67,4.9,1.67-2.19,1.67-4.9-.75-4.9-1.67-4.9m-7.46,0c-2.75,0-4.58,2.18-4.58,4.9s1.83,4.9,4.58,4.9,4.57-2.17,4.57-4.9-1.83-4.9-4.57-4.9m0,7.5c-1.26,0-1.96-1.29-1.96-2.61s.7-2.57,1.96-2.57,1.95,1.26,1.95,2.57-.7,2.61-1.95,2.61" style="fill:#58595b; stroke-width:0px;"/><path d="m87.87,10.6c-1.55-.24-3.07-.14-4.47.25,3.59,1,6.42,3.9,7.02,7.68.26,1.65.07,3.28-.5,4.76-1.23,3.22-6.53,15.53-6.53,15.53,0,0,8.84-10.07,11.01-12.75.99-1.23,1.68-2.72,1.94-4.37.83-5.26-2.96-10.22-8.48-11.1" style="stroke-width:0px;"/><path d="m78.93,10.6c-5.51.87-9.31,5.84-8.48,11.1.26,1.65.95,3.14,1.95,4.38,2.16,2.68,11,12.75,11,12.75,0,0-5.29-12.3-6.52-15.52-.57-1.48-.76-3.11-.5-4.77.6-3.78,3.43-6.68,7.02-7.68-.89-.25-1.83-.38-2.8-.38-.55,0-1.11.04-1.67.13"/><g style="clip-path:url(#uuid-c3d43701-822b-4b3a-ab76-0c8fee809cd6);"><rect x="63.02" y="9" width="26.97" height="31.29" transform="translate(-1.11 45.52) rotate(-32.91)" style="stroke-width:0px;"/></g><path d="m76.38,18.54c-.26,1.66-.06,3.29.5,4.77,1.23,3.22,6.52,15.52,6.52,15.52,0,0,5.3-12.31,6.53-15.53.56-1.48.76-3.1.5-4.76-.6-3.78-3.43-6.68-7.02-7.68-3.59,1-6.42,3.9-7.02,7.68"/><g style="clip-path:url(#uuid-acade6d3-2ef6-413c-b7b6-b2309a72007f);"><rect x="73.98" y="9.87" width="18.84" height="29.93" transform="translate(-2.89 13.62) rotate(-9.18)" style="stroke-width:0px;"/></g><polygon points="87.62 41.87 89.42 41.87 89.42 42.49 87.62 42.49 87.62 44.26 86.99 44.26 86.99 40.14 89.42 40.14 89.42 40.76 87.62 40.76 87.62 41.87" style="fill:#57595b; stroke-width:0px;"/><path d="m92.56,40.14h.63v2.73c0,.89-.59,1.45-1.48,1.45s-1.48-.57-1.48-1.45v-2.73h.63v2.73c0,.58.44.83.85.83s.85-.25.85-.83v-2.73Z" style="fill:#57595b; stroke-width:0px;"/><polygon points="88.61 45.66 88.61 49.16 87.98 49.16 87.98 45.66 86.82 45.66 86.82 45.04 89.77 45.04 89.77 45.66 88.61 45.66" style="fill:#57595b; stroke-width:0px;"/><path d="m92.56,45.04h.63v2.73c0,.89-.59,1.45-1.48,1.45s-1.48-.57-1.48-1.45v-2.73h.63v2.73c0,.58.44.83.85.83s.85-.25.85-.83v-2.73Z" style="fill:#57595b; stroke-width:0px;"/><path d="m87.45,52.29v1.77h-.63v-4.12h1.62c.82,0,1.27.47,1.27,1.18,0,.61-.32,1.03-.92,1.14l1.06,1.8h-.71l-1.04-1.77h-.64Zm1.61-1.17c0-.36-.24-.56-.62-.56h-.99v1.12h.99c.38,0,.62-.2.62-.56" style="fill:#57595b; stroke-width:0px;"/><path d="m90.26,51.34c0-.89.59-1.45,1.48-1.45s1.48.57,1.48,1.45v1.33c0,.89-.59,1.45-1.48,1.45s-1.48-.57-1.48-1.45v-1.33Zm2.32,0c0-.58-.44-.83-.85-.83s-.85.25-.85.83v1.33c0,.58.44.83.85.83s.85-.25.85-.83v-1.33Z" style="fill:#57595b; stroke-width:0px;"/><path d="m83.29,43.2c.91,0,1.64-.73,1.64-1.64s-.73-1.63-1.64-1.63-1.63.73-1.63,1.63.73,1.64,1.63,1.64m.02,1.21c-.92,0-1.67,2.19-1.67,4.89s.75,4.89,1.67,4.89,1.67-2.19,1.67-4.89-.75-4.89-1.67-4.89m-7.43,0c-2.74,0-4.56,2.17-4.56,4.89s1.82,4.89,4.56,4.89,4.55-2.17,4.55-4.89-1.82-4.89-4.55-4.89m0,7.47c-1.26,0-1.95-1.29-1.95-2.6s.7-2.56,1.95-2.56,1.95,1.25,1.95,2.56-.69,2.6-1.95,2.6" style="fill:#57595b; stroke-width:0px;"/><g style="clip-path:url(#uuid-202b3b57-6207-4e67-ace5-f353e1fd7e0f);"><rect x="10.83" y="10.83" width="52.29" height="52.29" transform="translate(-15.32 36.97) rotate(-45)" style="stroke-width:0px;"/></g><path d="m40.52,33.38c.88,0,1.59-.71,1.59-1.59s-.71-1.59-1.59-1.59-1.59.71-1.59,1.59.71,1.59,1.59,1.59m.02,1.18c-.89,0-1.62,2.12-1.62,4.75s.73,4.74,1.62,4.74,1.62-2.12,1.62-4.74-.72-4.75-1.62-4.75m-7.22,0c-2.66,0-4.43,2.11-4.43,4.75s1.77,4.75,4.43,4.75,4.42-2.1,4.42-4.75-1.77-4.75-4.42-4.75m0,7.25c-1.22,0-1.9-1.25-1.9-2.52s.68-2.49,1.9-2.49,1.89,1.22,1.89,2.49-.67,2.52-1.89,2.52" style="fill:#fff; stroke-width:0px;"/></g></svg>