<?xml version="1.0" encoding="UTF-8"?><svg id="uuid-277cf143-bd41-4f93-811e-e1921a3afb87" xmlns="http://www.w3.org/2000/svg" viewBox="0 0 125.81 61.12"><g id="uuid-6cc9459a-fe30-4880-9e50-fe58c7d28783"><path d="m.2,34.48h5.82c-.08.39-.12.7-.12.96,0,1.52.98,2.29,2.95,2.29,2.07,0,3.27-.79,3.62-2.37.04-.19.06-.38.06-.55,0-.71-.48-1.21-1.45-1.48l-4.83-1.33c-2.74-.75-4.11-2.21-4.11-4.37,0-.42.05-.88.14-1.36.41-1.85,1.42-3.37,3.04-4.54,1.83-1.33,4.22-2,7.15-2,4.9,0,7.35,1.58,7.35,4.75,0,.52-.08,1.16-.23,1.91h-5.88c.1-.39.14-.71.14-.98,0-1.27-.75-1.91-2.26-1.91-.83,0-1.54.21-2.14.62-.6.41-.96.94-1.07,1.58-.04.17-.06.34-.06.49,0,.79.57,1.34,1.71,1.65l3.68,1.01c1.6.44,2.72.89,3.36,1.33,1.08.73,1.62,1.79,1.62,3.18,0,.46-.06.96-.17,1.51-.46,2.24-1.71,3.95-3.73,5.12-1.85,1.08-4.16,1.62-6.92,1.62-3.57,0-5.92-.83-7.06-2.49-.54-.77-.81-1.72-.81-2.84,0-.46.07-1.06.2-1.79H.2Zm20.26,6.66l4.43-20.84h15.69l-.84,3.99h-9.96l-.93,4.34h9.38l-.87,3.99h-9.38l-.93,4.46h10.19l-.87,4.05h-15.92Zm19.08,0h9.23c2.66,0,4.61-.29,5.83-.87,1.23-.58,2.21-1.4,2.94-2.47.73-1.07,1.1-2.26,1.1-3.58,0-2.08-1.36-3.38-4.08-3.88l.03-.06c3.13-.75,4.95-2.34,5.47-4.75.08-.37.12-.72.12-1.07,0-.98-.32-1.82-.96-2.52-.69-.75-1.71-1.25-3.04-1.51-.79-.14-2.07-.2-3.85-.2h-8.37l-4.43,20.9h0Zm9.26-17.11h3.16c.83,0,1.42.16,1.77.49.44.42.58,1.04.41,1.85-.19.95-.69,1.62-1.51,2.03-.37.17-1.06.26-2.08.26h-2.72l.98-4.63h0Zm-1.77,8.34h3.04c1.81,0,2.72.61,2.72,1.82,0,.21-.03.44-.09.69-.35,1.62-1.52,2.43-3.5,2.43h-3.21l1.04-4.95h0Zm13.52,8.77l4.43-20.9h9.67c1.66,0,2.76.04,3.3.12,1.31.19,2.25.66,2.81,1.39.52.66.78,1.48.78,2.46,0,.5-.06,1.03-.17,1.59-.39,1.79-1.3,3.09-2.75,3.88-.95.52-2.08.88-3.42,1.07l-.03.12c1.51.04,2.53.34,3.07.9.46.46.7,1.24.7,2.34,0,.37-.03.99-.09,1.88-.17,2.59-.21,4.3-.12,5.15h-6.28c-.04-.77.07-2.34.32-4.72.08-.83.12-1.4.12-1.71,0-.64-.16-1.09-.48-1.35-.32-.26-.94-.39-1.87-.39h-2.43l-1.74,8.16h-5.82Zm9.44-17.05l-1.07,5.12h2.17c1.24,0,2.05-.06,2.43-.17,1.1-.33,1.78-1.12,2.03-2.37.06-.27.09-.51.09-.72,0-.81-.39-1.35-1.16-1.62-.46-.15-1.23-.23-2.32-.23h-2.17Zm9.82,17.05h5.79l2.32-4.2h8.37l.55,4.2h6.54l-3.82-20.9h-7.06l-12.68,20.9h0Zm10.28-8.05l4.75-8.77h.09l.84,8.77h-5.67Zm15.6,8.05l4.43-20.84h15.69l-.84,3.99h-9.96l-.93,4.34h9.38l-.87,3.99h-9.38l-.93,4.46h10.19l-.87,4.05h-15.92Z" style="fill-rule:evenodd; stroke-width:0px;"/><polygon points="38.32 45.01 77.43 45.01 76.17 51.06 37.07 51.06 38.32 45.01" style="fill-rule:evenodd; stroke-width:0px;"/><polygon points="36.1 55.06 75.2 55.06 73.94 61.12 34.84 61.12 36.1 55.06" style="fill-rule:evenodd; stroke-width:0px;"/><polygon points="48.2 0 87.3 0 86.04 6.05 46.94 6.05 48.2 0" style="fill-rule:evenodd; stroke-width:0px;"/><polygon points="45.97 10.05 85.07 10.05 83.82 16.1 44.71 16.1 45.97 10.05" style="fill-rule:evenodd; stroke-width:0px;"/></g></svg>