<?xml version="1.0" encoding="UTF-8"?><svg id="uuid-f4c2ff39-268d-42eb-8b5a-017d017d784a" xmlns="http://www.w3.org/2000/svg" viewBox="0 0 84.36 61.23"><g id="uuid-c8cca861-957e-4829-b8be-6ef46370eaaa"><path d="m28.42.22c-2.3.56-3.2,2.04-3.2,4.73,0,3.13-.18,22.41.05,23.76.38,2.18,2.07,3.18,4.63,3.16,3.1,0,22.96.17,24.19-.09,2.33-.47,2.97-2.78,2.94-4.82,0-3.16.18-22.45-.08-23.74-.38-2.11-2.07-3.14-4.58-3.14C48.18.08,30-.18,28.42.22" style="fill-rule:evenodd; stroke-width:0px;"/><path d="m47.28,13.85h-16.18c-1.74,0-3.35.19-3.43,2.03-.15,3.07,4.45,2.25,8.7,2.25h10.85c-.1.33-2.15,2.38-2.43,2.62l-2.59,2.62c-.69.7-2.15,1.61-1.33,3.35,1.51,3.23,4.81-.7,6.12-2.04.92-.96,1.77-1.76,2.69-2.72,1.41-1.47,4.81-4.45,4.89-5.71.15-1.69-1.2-2.38-1.92-3.23-1.07-1.26-4.38-4.14-5.35-5.26-.92-1.05-1.84-1.78-2.71-2.69-1.36-1.41-2.79-1.19-3.56-.09-1.02,1.5.1,2.76,1,3.56.95.86,1.77,1.71,2.66,2.55l2.59,2.76Z" style="fill:#fff; fill-rule:evenodd; stroke-width:0px;"/><path d="m9.5,49.31l1.97.05c1.05-.56,3.66-5.82,4.86-6.97,0,1.69-.2,5.28.18,6.6,2.97,1.33,3.1-2.93,6.3-6.55l.08,6.85,1.89.05c.05-1.78.28-9.36-.18-10.46-1.59-.63-2.23,1.05-3.38,2.76-.61.89-2.25,3.56-2.97,4.07.05-5.48.79-10.43-3.4-4.35l-4.04,5.96c-.38.61-1.05,1.45-1.31,1.99" style="fill:#231f20; fill-rule:evenodd; stroke-width:0px;"/><path d="m37.12,44.19l.03.87c1.25-.96,3.12-.31,3.97-1.78.36-.61.26-1.52-.1-2.03-.64-.87-2.59-.68-3.89-.68v3.62Zm-1.92,5.12l1.92.02.03-3.6.84.86c2.74,3.23,2.25,2.66,5.22,2.76-.28-.37-.44-.47-.74-.8l-1.95-2.06c-.38-.45-.1-.03-.38-.58,2.43-.4,4.35-3.04,2.61-5.57-1.41-2.06-5.04-1.76-7.47-1.57l-.08,10.55Z" style="fill:#231f20; fill-rule:evenodd; stroke-width:0px;"/><path d="m60.67,49.34h1.84v-7.16c1.46.94,5.66,8.82,7.09,6.97.41-1.05.13-8.54.18-10.36l-1.89-.07.03,7.21c-1.07-.86-4.86-6.48-5.58-6.95-2.25-1.52-1.69,2.81-1.69,4.02,0,2.08-.05,4.28.03,6.34" style="fill:#231f20; fill-rule:evenodd; stroke-width:0px;"/><path d="m75.51,45.17c.2.59.87,1.36,1.33,2.03.54.77,1,1.38,1.46,2.13l2.56.02-2.07-2.86c-.77-1.05-1.41-1.89-2.18-3.07.56-.93,2.87-4.05,3.02-4.68h-2.07c-1.74,2.08-2.97,5-4.66,7l-.05-6.99-1.79-.02c-.28,1.12-.2,7.93-.13,9.47.05,1.43,1.15,2.01,2.46-.09.28-.47,1.64-2.57,2.12-2.93" style="fill:#231f20; fill-rule:evenodd; stroke-width:0px;"/><path d="m1.57,47.54v1.78c3.33.16,7.63.47,7.55-3.34-.03-1.61-1.05-2.74-2.43-3.04-1.38-.3-4.43.07-2.99-1.99.95-.73,3.25-.28,4.66-.42l.03-1.78c-1.79-.12-4.89-.23-6.01.68-1.38,1.12-1.23,3.56.33,4.65,1.33.94,5.02-.19,4.63,2.22-.31,1.83-3.92,1.1-5.76,1.24" style="fill:#231f20; fill-rule:evenodd; stroke-width:0px;"/><path d="m25.27,49.33l2.25.03,4.58-6.97v6.95l1.92.02c.08-1.85.23-9.33-.2-10.57-2-.38-2.64,1.87-4.66,4.7l-3.89,5.83Z" style="fill:#231f20; fill-rule:evenodd; stroke-width:0px;"/><polygon points="43.85 40.56 46.64 40.61 46.64 49.36 48.56 49.34 48.56 40.64 51.27 40.57 51.3 38.76 43.95 38.72 43.85 40.56" style="fill:#231f20; fill-rule:evenodd; stroke-width:0px;"/><path d="m51.94,49.34h4.84v-1.78l-2.89-.07-.05-8.77h-1.82c-.33,1.38-.15,8.77-.08,10.62" style="fill:#231f20; fill-rule:evenodd; stroke-width:0px;"/><polygon points="57.52 49.26 59.44 49.36 59.44 38.74 57.57 38.76 57.52 49.26" style="fill:#231f20; fill-rule:evenodd; stroke-width:0px;"/><line y1="35.62" x2="84.36" y2="35.62" style="fill:none; stroke:#000; stroke-miterlimit:22.93; stroke-width:.57px;"/><line y1="51.76" x2="84.36" y2="51.76" style="fill:none; stroke:#000; stroke-miterlimit:22.93; stroke-width:.57px;"/><text transform="translate(13.57 59.05) scale(1.02 1)" style="font-family:Arial-BoldMT, Arial; font-size:5.8px; font-weight:700;"><tspan x="0" y="0" xml:space="preserve">I   </tspan></text><text transform="translate(20.14 59.05) scale(1.02 1)" style="font-family:Arial-BoldMT, Arial; font-size:5.8px; font-weight:700;"><tspan x="0" y="0" xml:space="preserve">N  </tspan></text><text transform="translate(27.7 59.05) scale(1.02 1)" style="font-family:Arial-BoldMT, Arial; font-size:5.8px; font-weight:700;"><tspan x="0" y="0" xml:space="preserve">T  </tspan></text><text transform="translate(49.38 59.05) scale(1.02 1)" style="font-family:Arial-BoldMT, Arial; font-size:5.8px; font-weight:700;"><tspan x="0" y="0" xml:space="preserve">N   </tspan></text><text transform="translate(65.81 59.05) scale(1.02 1)" style="font-family:Arial-BoldMT, Arial; font-size:5.8px; font-weight:700;"><tspan x="0" y="0">T</tspan></text><path d="m42.96,56.89v.34c.49-.37,1.21-.12,1.54-.69.14-.24.1-.59-.04-.78-.25-.34-1-.26-1.5-.26v1.39Zm-.73,2.16h.74s0-1.38,0-1.38l.33.33c1.05,1.24.87,1.02,2.01,1.06-.11-.14-.17-.18-.29-.31l-.75-.79c-.15-.18-.04-.01-.15-.22.94-.15,1.68-1.17,1.01-2.15-.54-.79-1.94-.68-2.88-.61l-.03,4.06Z" style="fill-rule:evenodd; stroke-width:0px;"/><rect x="35" y="54.9" width="2.1" height=".78" style="stroke-width:0px;"/><rect x="35" y="58.27" width="2.1" height=".78" style="stroke-width:0px;"/><rect x="35" y="56.59" width="1.88" height=".78" style="stroke-width:0px;"/><rect x="35.01" y="54.89" width=".83" height="4.16" style="stroke-width:0px;"/><rect x="58.87" y="54.91" width="2.1" height=".78" style="stroke-width:0px;"/><rect x="58.87" y="58.28" width="2.1" height=".78" style="stroke-width:0px;"/><rect x="58.87" y="56.6" width="1.88" height=".78" style="stroke-width:0px;"/><rect x="58.88" y="54.9" width=".83" height="4.16" style="stroke-width:0px;"/></g></svg>