<?xml version="1.0" encoding="UTF-8"?><svg id="uuid-abca6021-6f57-4f2b-955a-5e87a05c2cee" xmlns="http://www.w3.org/2000/svg" viewBox="0 0 120.02 120.2"><g id="uuid-c924216f-0aa0-4d18-ac04-216e9eaf6651"><path d="m60.22,9h-.18l.96-1.61h.17l-.96,1.61Z" style="stroke-width:0px;"/><path d="m47.02,11.4h-.18l.96-1.61h.17l-.96,1.61Z" style="stroke-width:0px;"/><path d="m59.32,10.71v-.34l-.26.18-.09-.16.3-.15-.3-.15.09-.16.26.18v-.34h.18v.34s.26-.18.26-.18l.09.15-.3.15.3.15-.09.16-.26-.19v.34s-.18,0-.18,0Z" style="stroke-width:0px;"/><path d="m60.22,11.4h-.18l.96-1.61h.17l-.96,1.61Z" style="stroke-width:0px;"/><path d="m72.22,11.4h-.18l.96-1.61h.17l-.96,1.61Z" style="stroke-width:0px;"/><path d="m33.82,13.8h-.18l.96-1.61h.17l-.96,1.61Z" style="stroke-width:0px;"/><path d="m47.02,13.8h-.18l.96-1.61h.17l-.96,1.61Z" style="stroke-width:0px;"/><path d="m48.22,13.8h-.18l.96-1.61h.17l-.96,1.61Z" style="stroke-width:0px;"/><path d="m59.02,13.8h-.18l.96-1.61h.17l-.96,1.61Z" style="stroke-width:0px;"/><path d="m60.22,13.8h-.18l.96-1.61h.17l-.96,1.61Z" style="stroke-width:0px;"/><path d="m71.32,13.11v-.34l-.26.18-.09-.16.3-.15-.3-.15.09-.16.26.18v-.34h.18v.34s.26-.18.26-.18l.09.15-.3.15.3.15-.09.16-.26-.19v.34s-.18,0-.18,0Z" style="stroke-width:0px;"/><path d="m72.22,13.8h-.18l.96-1.61h.17l-.96,1.61Z" style="stroke-width:0px;"/><path d="m85.42,13.8h-.18l.96-1.61h.17l-.96,1.61Z" style="stroke-width:0px;"/><path d="m35.02,16.2h-.18l.96-1.61h.17l-.96,1.61Z" style="stroke-width:0px;"/><path d="m48.22,16.2h-.18l.96-1.61h.17l-.96,1.61Z" style="stroke-width:0px;"/><path d="m59.02,16.2h-.18l.96-1.61h.17l-.96,1.61Z" style="stroke-width:0px;"/><path d="m60.22,16.2h-.18l.96-1.61h.17l-.96,1.61Z" style="stroke-width:0px;"/><path d="m71.02,16.2h-.18l.96-1.61h.17l-.96,1.61Z" style="stroke-width:0px;"/><path d="m84.22,16.2h-.18l.96-1.61h.17l-.96,1.61Z" style="stroke-width:0px;"/><path d="m36.22,18.6h-.18l.96-1.61h.17l-.96,1.61Z" style="stroke-width:0px;"/><path d="m37.42,18.6h-.18l.96-1.61h.17l-.96,1.61Z" style="stroke-width:0px;"/><path d="m48.22,18.6h-.18l.96-1.61h.17l-.96,1.61Z" style="stroke-width:0px;"/><path d="m49.42,18.6h-.18l.96-1.61h.17l-.96,1.61Z" style="stroke-width:0px;"/><path d="m59.02,18.6h-.18l.96-1.61h.17l-.96,1.61Z" style="stroke-width:0px;"/><path d="m60.22,18.6h-.18l.96-1.61h.17l-.96,1.61Z" style="stroke-width:0px;"/><path d="m69.82,18.6h-.18l.96-1.61h.17l-.96,1.61Z" style="stroke-width:0px;"/><path d="m71.02,18.6h-.18l.96-1.61h.17l-.96,1.61Z" style="stroke-width:0px;"/><path d="m83.02,18.6h-.18l.96-1.61h.17l-.96,1.61Z" style="stroke-width:0px;"/><path d="m23.01,21h-.18l.96-1.61h.17l-.96,1.61Z" style="stroke-width:0px;"/><path d="m37.42,21h-.18l.96-1.61h.17l-.96,1.61Z" style="stroke-width:0px;"/><path d="m38.62,21h-.18l.96-1.61h.17l-.96,1.61Z" style="stroke-width:0px;"/><path d="m49.42,21h-.18l.96-1.61h.17l-.96,1.61Z" style="stroke-width:0px;"/><path d="m59.02,21h-.18l.96-1.61h.17l-.96,1.61Z" style="stroke-width:0px;"/><path d="m60.22,21h-.18l.96-1.61h.17l-.96,1.61Z" style="stroke-width:0px;"/><path d="m69.82,21h-.18l.96-1.61h.17l-.96,1.61Z" style="stroke-width:0px;"/><path d="m80.62,21h-.18l.96-1.61h.17l-.96,1.61Z" style="stroke-width:0px;"/><path d="m81.82,21h-.18l.96-1.61h.17l-.96,1.61Z" style="stroke-width:0px;"/><path d="m96.23,21h-.18l.96-1.61h.17l-.96,1.61Z" style="stroke-width:0px;"/><path d="m25.42,23.4h-.18l.96-1.61h.17l-.96,1.61Z" style="stroke-width:0px;"/><path d="m38.62,23.4h-.18l.96-1.61h.17l-.96,1.61Z" style="stroke-width:0px;"/><path d="m39.82,23.4h-.18l.96-1.61h.17l-.96,1.61Z" style="stroke-width:0px;"/><path d="m49.42,23.4h-.18l.96-1.61h.17l-.96,1.61Z" style="stroke-width:0px;"/><path d="m50.62,23.4h-.18l.96-1.61h.17l-.96,1.61Z" style="stroke-width:0px;"/><path d="m59.02,23.4h-.18l.96-1.61h.17l-.96,1.61Z" style="stroke-width:0px;"/><path d="m60.22,23.4h-.18l.96-1.61h.17l-.96,1.61Z" style="stroke-width:0px;"/><path d="m68.62,23.4h-.18l.96-1.61h.17l-.96,1.61Z" style="stroke-width:0px;"/><path d="m69.82,23.4h-.18l.96-1.61h.17l-.96,1.61Z" style="stroke-width:0px;"/><path d="m79.42,23.4h-.18l.96-1.61h.17l-.96,1.61Z" style="stroke-width:0px;"/><path d="m80.62,23.4h-.18l.96-1.61h.17l-.96,1.61Z" style="stroke-width:0px;"/><path d="m93.83,23.4h-.18l.96-1.61h.17l-.96,1.61Z" style="stroke-width:0px;"/><path d="m27.82,25.8h-.18l.96-1.61h.17l-.96,1.61Z" style="stroke-width:0px;"/><path d="m39.82,25.8h-.18l.96-1.61h.17l-.96,1.61Z" style="stroke-width:0px;"/><path d="m41.02,25.8h-.18l.96-1.61h.17l-.96,1.61Z" style="stroke-width:0px;"/><path d="m50.62,25.8h-.18l.96-1.61h.17l-.96,1.61Z" style="stroke-width:0px;"/><path d="m59.02,25.8h-.18l.96-1.61h.17l-.96,1.61Z" style="stroke-width:0px;"/><path d="m60.22,25.8h-.18l.96-1.61h.17l-.96,1.61Z" style="stroke-width:0px;"/><path d="m68.62,25.8h-.18l.96-1.61h.17l-.96,1.61Z" style="stroke-width:0px;"/><path d="m70.12,25.11v-.34l-.26.18-.09-.16.3-.15-.3-.15.09-.16.26.18v-.34h.18v.34s.26-.18.26-.18l.09.15-.3.15.3.15-.09.16-.26-.19v.34s-.18,0-.18,0Z" style="stroke-width:0px;"/><path d="m78.22,25.8h-.18l.96-1.61h.17l-.96,1.61Z" style="stroke-width:0px;"/><path d="m79.42,25.8h-.18l.96-1.61h.17l-.96,1.61Z" style="stroke-width:0px;"/><path d="m91.43,25.8h-.18l.96-1.61h.17l-.96,1.61Z" style="stroke-width:0px;"/><path d="m92.92,25.11v-.34l-.26.18-.09-.16.3-.15-.3-.15.09-.16.26.18v-.34h.18v.34s.26-.18.26-.18l.09.15-.3.15.3.15-.09.16-.26-.19v.34s-.18,0-.18,0Z" style="stroke-width:0px;"/><path d="m29.02,28.2h-.18l.96-1.61h.17l-.96,1.61Z" style="stroke-width:0px;"/><path d="m30.22,28.2h-.18l.96-1.61h.17l-.96,1.61Z" style="stroke-width:0px;"/><path d="m41.02,28.2h-.18l.96-1.61h.17l-.96,1.61Z" style="stroke-width:0px;"/><path d="m42.22,28.2h-.18l.96-1.61h.17l-.96,1.61Z" style="stroke-width:0px;"/><path d="m50.62,28.2h-.18l.96-1.61h.17l-.96,1.61Z" style="stroke-width:0px;"/><path d="m51.82,28.2h-.18l.96-1.61h.17l-.96,1.61Z" style="stroke-width:0px;"/><path d="m59.02,28.2h-.18l.96-1.61h.17l-.96,1.61Z" style="stroke-width:0px;"/><path d="m60.22,28.2h-.18l.96-1.61h.17l-.96,1.61Z" style="stroke-width:0px;"/><path d="m67.42,28.2h-.18l.96-1.61h.17l-.96,1.61Z" style="stroke-width:0px;"/><path d="m68.62,28.2h-.18l.96-1.61h.17l-.96,1.61Z" style="stroke-width:0px;"/><path d="m77.02,28.2h-.18l.96-1.61h.17l-.96,1.61Z" style="stroke-width:0px;"/><path d="m78.22,28.2h-.18l.96-1.61h.17l-.96,1.61Z" style="stroke-width:0px;"/><path d="m89.03,28.2h-.18l.96-1.61h.17l-.96,1.61Z" style="stroke-width:0px;"/><path d="m90.23,28.2h-.18l.96-1.61h.17l-.96,1.61Z" style="stroke-width:0px;"/><path d="m14.61,30.6h-.18l.96-1.61h.17l-.96,1.61Z" style="stroke-width:0px;"/><path d="m15.81,30.6h-.18l.96-1.61h.17l-.96,1.61Z" style="stroke-width:0px;"/><path d="m31.42,30.6h-.18l.96-1.61h.17l-.96,1.61Z" style="stroke-width:0px;"/><path d="m32.62,30.6h-.18l.96-1.61h.17l-.96,1.61Z" style="stroke-width:0px;"/><path d="m42.22,30.6h-.18l.96-1.61h.17l-.96,1.61Z" style="stroke-width:0px;"/><path d="m43.42,30.6h-.18l.96-1.61h.17l-.96,1.61Z" style="stroke-width:0px;"/><path d="m50.62,30.6h-.18l.96-1.61h.17l-.96,1.61Z" style="stroke-width:0px;"/><path d="m51.82,30.6h-.18l.96-1.61h.17l-.96,1.61Z" style="stroke-width:0px;"/><path d="m53.02,30.6h-.18l.96-1.61h.17l-.96,1.61Z" style="stroke-width:0px;"/><path d="m59.02,30.6h-.18l.96-1.61h.17l-.96,1.61Z" style="stroke-width:0px;"/><path d="m60.22,30.6h-.18l.96-1.61h.17l-.96,1.61Z" style="stroke-width:0px;"/><path d="m66.52,29.91v-.34l-.26.18-.09-.16.3-.15-.3-.15.09-.16.26.18v-.34h.18v.34s.26-.18.26-.18l.09.15-.3.15.3.15-.09.16-.26-.19v.34s-.18,0-.18,0Z" style="stroke-width:0px;"/><path d="m67.42,30.6h-.18l.96-1.61h.17l-.96,1.61Z" style="stroke-width:0px;"/><path d="m68.62,30.6h-.18l.96-1.61h.17l-.96,1.61Z" style="stroke-width:0px;"/><path d="m75.82,30.6h-.18l.96-1.61h.17l-.96,1.61Z" style="stroke-width:0px;"/><path d="m77.02,30.6h-.18l.96-1.61h.17l-.96,1.61Z" style="stroke-width:0px;"/><path d="m86.62,30.6h-.18l.96-1.61h.17l-.96,1.61Z" style="stroke-width:0px;"/><path d="m87.83,30.6h-.18l.96-1.61h.17l-.96,1.61Z" style="stroke-width:0px;"/><path d="m103.43,30.6h-.18l.96-1.61h.17l-.96,1.61Z" style="stroke-width:0px;"/><path d="m104.63,30.6h-.18l.96-1.61h.17l-.96,1.61Z" style="stroke-width:0px;"/><path d="m18.21,33h-.18l.96-1.61h.17l-.96,1.61Z" style="stroke-width:0px;"/><path d="m19.41,33h-.18l.96-1.61h.17l-.96,1.61Z" style="stroke-width:0px;"/><path d="m33.82,33h-.18l.96-1.61h.17l-.96,1.61Z" style="stroke-width:0px;"/><path d="m35.02,33h-.18l.96-1.61h.17l-.96,1.61Z" style="stroke-width:0px;"/><path d="m43.42,33h-.18l.96-1.61h.17l-.96,1.61Z" style="stroke-width:0px;"/><path d="m44.62,33h-.18l.96-1.61h.17l-.96,1.61Z" style="stroke-width:0px;"/><path d="m46.11,32.31v-.34l-.26.18-.09-.16.3-.15-.3-.15.09-.16.26.18v-.34h.18v.34s.26-.18.26-.18l.09.15-.3.15.3.15-.09.16-.26-.19v.34s-.18,0-.18,0Z" style="stroke-width:0px;"/><path d="m51.82,33h-.18l.96-1.61h.17l-.96,1.61Z" style="stroke-width:0px;"/><path d="m53.02,33h-.18l.96-1.61h.17l-.96,1.61Z" style="stroke-width:0px;"/><path d="m59.02,33h-.18l.96-1.61h.17l-.96,1.61Z" style="stroke-width:0px;"/><path d="m60.22,33h-.18l.96-1.61h.17l-.96,1.61Z" style="stroke-width:0px;"/><path d="m66.22,33h-.18l.96-1.61h.17l-.96,1.61Z" style="stroke-width:0px;"/><path d="m67.42,33h-.18l.96-1.61h.17l-.96,1.61Z" style="stroke-width:0px;"/><path d="m74.62,33h-.18l.96-1.61h.17l-.96,1.61Z" style="stroke-width:0px;"/><path d="m75.82,33h-.18l.96-1.61h.17l-.96,1.61Z" style="stroke-width:0px;"/><path d="m84.22,33h-.18l.96-1.61h.17l-.96,1.61Z" style="stroke-width:0px;"/><path d="m85.42,33h-.18l.96-1.61h.17l-.96,1.61Z" style="stroke-width:0px;"/><path d="m99.83,33h-.18l.96-1.61h.17l-.96,1.61Z" style="stroke-width:0px;"/><path d="m101.03,33h-.18l.96-1.61h.17l-.96,1.61Z" style="stroke-width:0px;"/><path d="m21.81,35.4h-.18l.96-1.61h.17l-.96,1.61Z" style="stroke-width:0px;"/><path d="m23.01,35.4h-.18l.96-1.61h.17l-.96,1.61Z" style="stroke-width:0px;"/><path d="m35.02,35.4h-.18l.96-1.61h.17l-.96,1.61Z" style="stroke-width:0px;"/><path d="m36.22,35.4h-.18l.96-1.61h.17l-.96,1.61Z" style="stroke-width:0px;"/><path d="m37.42,35.4h-.18l.96-1.61h.17l-.96,1.61Z" style="stroke-width:0px;"/><path d="m44.62,35.4h-.18l.96-1.61h.17l-.96,1.61Z" style="stroke-width:0px;"/><path d="m45.82,35.4h-.18l.96-1.61h.17l-.96,1.61Z" style="stroke-width:0px;"/><path d="m47.02,35.4h-.18l.96-1.61h.17l-.96,1.61Z" style="stroke-width:0px;"/><path d="m51.82,35.4h-.18l.96-1.61h.17l-.96,1.61Z" style="stroke-width:0px;"/><path d="m53.02,35.4h-.18l.96-1.61h.17l-.96,1.61Z" style="stroke-width:0px;"/><path d="m54.22,35.4h-.18l.96-1.61h.17l-.96,1.61Z" style="stroke-width:0px;"/><path d="m59.02,35.4h-.18l.96-1.61h.17l-.96,1.61Z" style="stroke-width:0px;"/><path d="m60.22,35.4h-.18l.96-1.61h.17l-.96,1.61Z" style="stroke-width:0px;"/><path d="m65.02,35.4h-.18l.96-1.61h.17l-.96,1.61Z" style="stroke-width:0px;"/><path d="m66.22,35.4h-.18l.96-1.61h.17l-.96,1.61Z" style="stroke-width:0px;"/><path d="m67.42,35.4h-.18l.96-1.61h.17l-.96,1.61Z" style="stroke-width:0px;"/><path d="m72.22,35.4h-.18l.96-1.61h.17l-.96,1.61Z" style="stroke-width:0px;"/><path d="m73.42,35.4h-.18l.96-1.61h.17l-.96,1.61Z" style="stroke-width:0px;"/><path d="m74.62,35.4h-.18l.96-1.61h.17l-.96,1.61Z" style="stroke-width:0px;"/><path d="m81.82,35.4h-.18l.96-1.61h.17l-.96,1.61Z" style="stroke-width:0px;"/><path d="m83.02,35.4h-.18l.96-1.61h.17l-.96,1.61Z" style="stroke-width:0px;"/><path d="m84.22,35.4h-.18l.96-1.61h.17l-.96,1.61Z" style="stroke-width:0px;"/><path d="m96.23,35.4h-.18l.96-1.61h.17l-.96,1.61Z" style="stroke-width:0px;"/><path d="m97.43,35.4h-.18l.96-1.61h.17l-.96,1.61Z" style="stroke-width:0px;"/><path d="m24.51,37.11v-.34l-.26.18-.09-.16.3-.15-.3-.15.09-.16.26.18v-.34h.18v.34s.26-.18.26-.18l.09.15-.3.15.3.15-.09.16-.26-.19v.34s-.18,0-.18,0Z" style="stroke-width:0px;"/><path d="m25.42,37.8h-.18l.96-1.61h.17l-.96,1.61Z" style="stroke-width:0px;"/><path d="m26.62,37.8h-.18l.96-1.61h.17l-.96,1.61Z" style="stroke-width:0px;"/><path d="m37.42,37.8h-.18l.96-1.61h.17l-.96,1.61Z" style="stroke-width:0px;"/><path d="m38.62,37.8h-.18l.96-1.61h.17l-.96,1.61Z" style="stroke-width:0px;"/><path d="m39.82,37.8h-.18l.96-1.61h.17l-.96,1.61Z" style="stroke-width:0px;"/><path d="m45.82,37.8h-.18l.96-1.61h.17l-.96,1.61Z" style="stroke-width:0px;"/><path d="m47.02,37.8h-.18l.96-1.61h.17l-.96,1.61Z" style="stroke-width:0px;"/><path d="m48.22,37.8h-.18l.96-1.61h.17l-.96,1.61Z" style="stroke-width:0px;"/><path d="m53.02,37.8h-.18l.96-1.61h.17l-.96,1.61Z" style="stroke-width:0px;"/><path d="m54.22,37.8h-.18l.96-1.61h.17l-.96,1.61Z" style="stroke-width:0px;"/><path d="m59.02,37.8h-.18l.96-1.61h.17l-.96,1.61Z" style="stroke-width:0px;"/><path d="m60.22,37.8h-.18l.96-1.61h.17l-.96,1.61Z" style="stroke-width:0px;"/><path d="m65.02,37.8h-.18l.96-1.61h.17l-.96,1.61Z" style="stroke-width:0px;"/><path d="m66.22,37.8h-.18l.96-1.61h.17l-.96,1.61Z" style="stroke-width:0px;"/><path d="m71.02,37.8h-.18l.96-1.61h.17l-.96,1.61Z" style="stroke-width:0px;"/><path d="m72.22,37.8h-.18l.96-1.61h.17l-.96,1.61Z" style="stroke-width:0px;"/><path d="m73.42,37.8h-.18l.96-1.61h.17l-.96,1.61Z" style="stroke-width:0px;"/><path d="m79.42,37.8h-.18l.96-1.61h.17l-.96,1.61Z" style="stroke-width:0px;"/><path d="m80.62,37.8h-.18l.96-1.61h.17l-.96,1.61Z" style="stroke-width:0px;"/><path d="m81.82,37.8h-.18l.96-1.61h.17l-.96,1.61Z" style="stroke-width:0px;"/><path d="m92.63,37.8h-.18l.96-1.61h.17l-.96,1.61Z" style="stroke-width:0px;"/><path d="m93.83,37.8h-.18l.96-1.61h.17l-.96,1.61Z" style="stroke-width:0px;"/><path d="m95.03,37.8h-.18l.96-1.61h.17l-.96,1.61Z" style="stroke-width:0px;"/><path d="m27.82,40.2h-.18l.96-1.61h.17l-.96,1.61Z" style="stroke-width:0px;"/><path d="m29.02,40.2h-.18l.96-1.61h.17l-.96,1.61Z" style="stroke-width:0px;"/><path d="m30.22,40.2h-.18l.96-1.61h.17l-.96,1.61Z" style="stroke-width:0px;"/><path d="m39.82,40.2h-.18l.96-1.61h.17l-.96,1.61Z" style="stroke-width:0px;"/><path d="m41.02,40.2h-.18l.96-1.61h.17l-.96,1.61Z" style="stroke-width:0px;"/><path d="m42.22,40.2h-.18l.96-1.61h.17l-.96,1.61Z" style="stroke-width:0px;"/><path d="m47.02,40.2h-.18l.96-1.61h.17l-.96,1.61Z" style="stroke-width:0px;"/><path d="m48.22,40.2h-.18l.96-1.61h.17l-.96,1.61Z" style="stroke-width:0px;"/><path d="m49.42,40.2h-.18l.96-1.61h.17l-.96,1.61Z" style="stroke-width:0px;"/><path d="m53.02,40.2h-.18l.96-1.61h.17l-.96,1.61Z" style="stroke-width:0px;"/><path d="m54.22,40.2h-.18l.96-1.61h.17l-.96,1.61Z" style="stroke-width:0px;"/><path d="m55.42,40.2h-.18l.96-1.61h.17l-.96,1.61Z" style="stroke-width:0px;"/><path d="m59.02,40.2h-.18l.96-1.61h.17l-.96,1.61Z" style="stroke-width:0px;"/><path d="m60.22,40.2h-.18l.96-1.61h.17l-.96,1.61Z" style="stroke-width:0px;"/><path d="m63.82,40.2h-.18l.96-1.61h.17l-.96,1.61Z" style="stroke-width:0px;"/><path d="m65.02,40.2h-.18l.96-1.61h.17l-.96,1.61Z" style="stroke-width:0px;"/><path d="m66.22,40.2h-.18l.96-1.61h.17l-.96,1.61Z" style="stroke-width:0px;"/><path d="m69.82,40.2h-.18l.96-1.61h.17l-.96,1.61Z" style="stroke-width:0px;"/><path d="m71.02,40.2h-.18l.96-1.61h.17l-.96,1.61Z" style="stroke-width:0px;"/><path d="m72.22,40.2h-.18l.96-1.61h.17l-.96,1.61Z" style="stroke-width:0px;"/><path d="m77.02,40.2h-.18l.96-1.61h.17l-.96,1.61Z" style="stroke-width:0px;"/><path d="m78.22,40.2h-.18l.96-1.61h.17l-.96,1.61Z" style="stroke-width:0px;"/><path d="m79.42,40.2h-.18l.96-1.61h.17l-.96,1.61Z" style="stroke-width:0px;"/><path d="m89.03,40.2h-.18l.96-1.61h.17l-.96,1.61Z" style="stroke-width:0px;"/><path d="m90.23,40.2h-.18l.96-1.61h.17l-.96,1.61Z" style="stroke-width:0px;"/><path d="m91.43,40.2h-.18l.96-1.61h.17l-.96,1.61Z" style="stroke-width:0px;"/><path d="m12.21,42.6h-.18l.96-1.61h.17l-.96,1.61Z" style="stroke-width:0px;"/><path d="m13.41,42.6h-.18l.96-1.61h.17l-.96,1.61Z" style="stroke-width:0px;"/><path d="m14.61,42.6h-.18l.96-1.61h.17l-.96,1.61Z" style="stroke-width:0px;"/><path d="m31.42,42.6h-.18l.96-1.61h.17l-.96,1.61Z" style="stroke-width:0px;"/><path d="m32.62,42.6h-.18l.96-1.61h.17l-.96,1.61Z" style="stroke-width:0px;"/><path d="m33.82,42.6h-.18l.96-1.61h.17l-.96,1.61Z" style="stroke-width:0px;"/><path d="m41.02,42.6h-.18l.96-1.61h.17l-.96,1.61Z" style="stroke-width:0px;"/><path d="m42.22,42.6h-.18l.96-1.61h.17l-.96,1.61Z" style="stroke-width:0px;"/><path d="m43.42,42.6h-.18l.96-1.61h.17l-.96,1.61Z" style="stroke-width:0px;"/><path d="m44.62,42.6h-.18l.96-1.61h.17l-.96,1.61Z" style="stroke-width:0px;"/><path d="m48.22,42.6h-.18l.96-1.61h.17l-.96,1.61Z" style="stroke-width:0px;"/><path d="m49.42,42.6h-.18l.96-1.61h.17l-.96,1.61Z" style="stroke-width:0px;"/><path d="m50.62,42.6h-.18l.96-1.61h.17l-.96,1.61Z" style="stroke-width:0px;"/><path d="m54.22,42.6h-.18l.96-1.61h.17l-.96,1.61Z" style="stroke-width:0px;"/><path d="m55.42,42.6h-.18l.96-1.61h.17l-.96,1.61Z" style="stroke-width:0px;"/><path d="m56.92,41.91v-.34l-.26.18-.09-.16.3-.15-.3-.15.09-.16.26.18v-.34h.18v.34s.26-.18.26-.18l.09.15-.3.15.3.15-.09.16-.26-.19v.34s-.18,0-.18,0Z" style="stroke-width:0px;"/><path d="m59.02,42.6h-.18l.96-1.61h.17l-.96,1.61Z" style="stroke-width:0px;"/><path d="m60.22,42.6h-.18l.96-1.61h.17l-.96,1.61Z" style="stroke-width:0px;"/><path d="m63.82,42.6h-.18l.96-1.61h.17l-.96,1.61Z" style="stroke-width:0px;"/><path d="m65.02,42.6h-.18l.96-1.61h.17l-.96,1.61Z" style="stroke-width:0px;"/><path d="m68.62,42.6h-.18l.96-1.61h.17l-.96,1.61Z" style="stroke-width:0px;"/><path d="m69.82,42.6h-.18l.96-1.61h.17l-.96,1.61Z" style="stroke-width:0px;"/><path d="m71.02,42.6h-.18l.96-1.61h.17l-.96,1.61Z" style="stroke-width:0px;"/><path d="m74.92,41.91v-.34l-.26.18-.09-.16.3-.15-.3-.15.09-.16.26.18v-.34h.18v.34s.26-.18.26-.18l.09.15-.3.15.3.15-.09.16-.26-.19v.34s-.18,0-.18,0Z" style="stroke-width:0px;"/><path d="m75.82,42.6h-.18l.96-1.61h.17l-.96,1.61Z" style="stroke-width:0px;"/><path d="m77.02,42.6h-.18l.96-1.61h.17l-.96,1.61Z" style="stroke-width:0px;"/><path d="m78.22,42.6h-.18l.96-1.61h.17l-.96,1.61Z" style="stroke-width:0px;"/><path d="m85.42,42.6h-.18l.96-1.61h.17l-.96,1.61Z" style="stroke-width:0px;"/><path d="m86.62,42.6h-.18l.96-1.61h.17l-.96,1.61Z" style="stroke-width:0px;"/><path d="m87.83,42.6h-.18l.96-1.61h.17l-.96,1.61Z" style="stroke-width:0px;"/><path d="m104.63,42.6h-.18l.96-1.61h.17l-.96,1.61Z" style="stroke-width:0px;"/><path d="m105.83,42.6h-.18l.96-1.61h.17l-.96,1.61Z" style="stroke-width:0px;"/><path d="m107.03,42.6h-.18l.96-1.61h.17l-.96,1.61Z" style="stroke-width:0px;"/><path d="m17.01,45h-.18l.96-1.61h.17l-.96,1.61Z" style="stroke-width:0px;"/><path d="m18.21,45h-.18l.96-1.61h.17l-.96,1.61Z" style="stroke-width:0px;"/><path d="m19.41,45h-.18l.96-1.61h.17l-.96,1.61Z" style="stroke-width:0px;"/><path d="m20.61,45h-.18l.96-1.61h.17l-.96,1.61Z" style="stroke-width:0px;"/><path d="m35.02,45h-.18l.96-1.61h.17l-.96,1.61Z" style="stroke-width:0px;"/><path d="m36.22,45h-.18l.96-1.61h.17l-.96,1.61Z" style="stroke-width:0px;"/><path d="m37.42,45h-.18l.96-1.61h.17l-.96,1.61Z" style="stroke-width:0px;"/><path d="m43.42,45h-.18l.96-1.61h.17l-.96,1.61Z" style="stroke-width:0px;"/><path d="m44.62,45h-.18l.96-1.61h.17l-.96,1.61Z" style="stroke-width:0px;"/><path d="m45.82,45h-.18l.96-1.61h.17l-.96,1.61Z" style="stroke-width:0px;"/><path d="m47.31,44.31v-.34l-.26.18-.09-.16.3-.15-.3-.15.09-.16.26.18v-.34h.18v.34s.26-.18.26-.18l.09.15-.3.15.3.15-.09.16-.26-.19v.34s-.18,0-.18,0Z" style="stroke-width:0px;"/><path d="m49.42,45h-.18l.96-1.61h.17l-.96,1.61Z" style="stroke-width:0px;"/><path d="m50.62,45h-.18l.96-1.61h.17l-.96,1.61Z" style="stroke-width:0px;"/><path d="m51.82,45h-.18l.96-1.61h.17l-.96,1.61Z" style="stroke-width:0px;"/><path d="m54.22,45h-.18l.96-1.61h.17l-.96,1.61Z" style="stroke-width:0px;"/><path d="m55.42,45h-.18l.96-1.61h.17l-.96,1.61Z" style="stroke-width:0px;"/><path d="m56.62,45h-.18l.96-1.61h.17l-.96,1.61Z" style="stroke-width:0px;"/><path d="m59.02,45h-.18l.96-1.61h.17l-.96,1.61Z" style="stroke-width:0px;"/><path d="m60.22,45h-.18l.96-1.61h.17l-.96,1.61Z" style="stroke-width:0px;"/><path d="m62.62,45h-.18l.96-1.61h.17l-.96,1.61Z" style="stroke-width:0px;"/><path d="m63.82,45h-.18l.96-1.61h.17l-.96,1.61Z" style="stroke-width:0px;"/><path d="m65.02,45h-.18l.96-1.61h.17l-.96,1.61Z" style="stroke-width:0px;"/><path d="m67.42,45h-.18l.96-1.61h.17l-.96,1.61Z" style="stroke-width:0px;"/><path d="m68.62,45h-.18l.96-1.61h.17l-.96,1.61Z" style="stroke-width:0px;"/><path d="m69.82,45h-.18l.96-1.61h.17l-.96,1.61Z" style="stroke-width:0px;"/><path d="m73.42,45h-.18l.96-1.61h.17l-.96,1.61Z" style="stroke-width:0px;"/><path d="m74.62,45h-.18l.96-1.61h.17l-.96,1.61Z" style="stroke-width:0px;"/><path d="m75.82,45h-.18l.96-1.61h.17l-.96,1.61Z" style="stroke-width:0px;"/><path d="m81.82,45h-.18l.96-1.61h.17l-.96,1.61Z" style="stroke-width:0px;"/><path d="m83.02,45h-.18l.96-1.61h.17l-.96,1.61Z" style="stroke-width:0px;"/><path d="m84.22,45h-.18l.96-1.61h.17l-.96,1.61Z" style="stroke-width:0px;"/><path d="m85.72,44.31v-.34l-.26.18-.09-.16.3-.15-.3-.15.09-.16.26.18v-.34h.18v.34s.26-.18.26-.18l.09.15-.3.15.3.15-.09.16-.26-.19v.34s-.18,0-.18,0Z" style="stroke-width:0px;"/><path d="m98.63,45h-.18l.96-1.61h.17l-.96,1.61Z" style="stroke-width:0px;"/><path d="m99.83,45h-.18l.96-1.61h.17l-.96,1.61Z" style="stroke-width:0px;"/><path d="m101.03,45h-.18l.96-1.61h.17l-.96,1.61Z" style="stroke-width:0px;"/><path d="m102.23,45h-.18l.96-1.61h.17l-.96,1.61Z" style="stroke-width:0px;"/><path d="m23.01,47.4h-.18l.96-1.61h.17l-.96,1.61Z" style="stroke-width:0px;"/><path d="m24.21,47.4h-.18l.96-1.61h.17l-.96,1.61Z" style="stroke-width:0px;"/><path d="m25.42,47.4h-.18l.96-1.61h.17l-.96,1.61Z" style="stroke-width:0px;"/><path d="m26.62,47.4h-.18l.96-1.61h.17l-.96,1.61Z" style="stroke-width:0px;"/><path d="m28.11,46.71v-.34l-.26.18-.09-.16.3-.15-.3-.15.09-.16.26.18v-.34h.18v.34s.26-.18.26-.18l.09.15-.3.15.3.15-.09.16-.26-.19v.34s-.18,0-.18,0Z" style="stroke-width:0px;"/><path d="m37.42,47.4h-.18l.96-1.61h.17l-.96,1.61Z" style="stroke-width:0px;"/><path d="m38.62,47.4h-.18l.96-1.61h.17l-.96,1.61Z" style="stroke-width:0px;"/><path d="m39.82,47.4h-.18l.96-1.61h.17l-.96,1.61Z" style="stroke-width:0px;"/><path d="m41.02,47.4h-.18l.96-1.61h.17l-.96,1.61Z" style="stroke-width:0px;"/><path d="m42.51,46.71v-.34l-.26.18-.09-.16.3-.15-.3-.15.09-.16.26.18v-.34h.18v.34s.26-.18.26-.18l.09.15-.3.15.3.15-.09.16-.26-.19v.34s-.18,0-.18,0Z" style="stroke-width:0px;"/><path d="m45.82,47.4h-.18l.96-1.61h.17l-.96,1.61Z" style="stroke-width:0px;"/><path d="m47.02,47.4h-.18l.96-1.61h.17l-.96,1.61Z" style="stroke-width:0px;"/><path d="m48.22,47.4h-.18l.96-1.61h.17l-.96,1.61Z" style="stroke-width:0px;"/><path d="m50.62,47.4h-.18l.96-1.61h.17l-.96,1.61Z" style="stroke-width:0px;"/><path d="m51.82,47.4h-.18l.96-1.61h.17l-.96,1.61Z" style="stroke-width:0px;"/><path d="m53.02,47.4h-.18l.96-1.61h.17l-.96,1.61Z" style="stroke-width:0px;"/><path d="m54.52,46.71v-.34l-.26.18-.09-.16.3-.15-.3-.15.09-.16.26.18v-.34h.18v.34s.26-.18.26-.18l.09.15-.3.15.3.15-.09.16-.26-.19v.34s-.18,0-.18,0Z" style="stroke-width:0px;"/><path d="m55.42,47.4h-.18l.96-1.61h.17l-.96,1.61Z" style="stroke-width:0px;"/><path d="m56.62,47.4h-.18l.96-1.61h.17l-.96,1.61Z" style="stroke-width:0px;"/><path d="m57.82,47.4h-.18l.96-1.61h.17l-.96,1.61Z" style="stroke-width:0px;"/><path d="m59.02,47.4h-.18l.96-1.61h.17l-.96,1.61Z" style="stroke-width:0px;"/><path d="m60.22,47.4h-.18l.96-1.61h.17l-.96,1.61Z" style="stroke-width:0px;"/><path d="m61.42,47.4h-.18l.96-1.61h.17l-.96,1.61Z" style="stroke-width:0px;"/><path d="m62.62,47.4h-.18l.96-1.61h.17l-.96,1.61Z" style="stroke-width:0px;"/><path d="m63.82,47.4h-.18l.96-1.61h.17l-.96,1.61Z" style="stroke-width:0px;"/><path d="m65.32,46.71v-.34l-.26.18-.09-.16.3-.15-.3-.15.09-.16.26.18v-.34h.18v.34s.26-.18.26-.18l.09.15-.3.15.3.15-.09.16-.26-.19v.34s-.18,0-.18,0Z" style="stroke-width:0px;"/><path d="m66.22,47.4h-.18l.96-1.61h.17l-.96,1.61Z" style="stroke-width:0px;"/><path d="m67.42,47.4h-.18l.96-1.61h.17l-.96,1.61Z" style="stroke-width:0px;"/><path d="m68.62,47.4h-.18l.96-1.61h.17l-.96,1.61Z" style="stroke-width:0px;"/><path d="m71.02,47.4h-.18l.96-1.61h.17l-.96,1.61Z" style="stroke-width:0px;"/><path d="m72.22,47.4h-.18l.96-1.61h.17l-.96,1.61Z" style="stroke-width:0px;"/><path d="m73.42,47.4h-.18l.96-1.61h.17l-.96,1.61Z" style="stroke-width:0px;"/><path d="m78.22,47.4h-.18l.96-1.61h.17l-.96,1.61Z" style="stroke-width:0px;"/><path d="m79.42,47.4h-.18l.96-1.61h.17l-.96,1.61Z" style="stroke-width:0px;"/><path d="m80.62,47.4h-.18l.96-1.61h.17l-.96,1.61Z" style="stroke-width:0px;"/><path d="m81.82,47.4h-.18l.96-1.61h.17l-.96,1.61Z" style="stroke-width:0px;"/><path d="m91.72,46.71v-.34l-.26.18-.09-.16.3-.15-.3-.15.09-.16.26.18v-.34h.18v.34s.26-.18.26-.18l.09.15-.3.15.3.15-.09.16-.26-.19v.34s-.18,0-.18,0Z" style="stroke-width:0px;"/><path d="m92.63,47.4h-.18l.96-1.61h.17l-.96,1.61Z" style="stroke-width:0px;"/><path d="m93.83,47.4h-.18l.96-1.61h.17l-.96,1.61Z" style="stroke-width:0px;"/><path d="m95.03,47.4h-.18l.96-1.61h.17l-.96,1.61Z" style="stroke-width:0px;"/><path d="m96.23,47.4h-.18l.96-1.61h.17l-.96,1.61Z" style="stroke-width:0px;"/><path d="m28.11,49.11v-.34l-.26.18-.09-.16.3-.15-.3-.15.09-.16.26.18v-.34h.18v.34s.26-.18.26-.18l.09.15-.3.15.3.15-.09.16-.26-.19v.34s-.18,0-.18,0Z" style="stroke-width:0px;"/><path d="m29.02,49.8h-.18l.96-1.61h.17l-.96,1.61Z" style="stroke-width:0px;"/><path d="m30.22,49.8h-.18l.96-1.61h.17l-.96,1.61Z" style="stroke-width:0px;"/><path d="m31.42,49.8h-.18l.96-1.61h.17l-.96,1.61Z" style="stroke-width:0px;"/><path d="m32.62,49.8h-.18l.96-1.61h.17l-.96,1.61Z" style="stroke-width:0px;"/><path d="m33.82,49.8h-.18l.96-1.61h.17l-.96,1.61Z" style="stroke-width:0px;"/><path d="m41.02,49.8h-.18l.96-1.61h.17l-.96,1.61Z" style="stroke-width:0px;"/><path d="m42.22,49.8h-.18l.96-1.61h.17l-.96,1.61Z" style="stroke-width:0px;"/><path d="m43.42,49.8h-.18l.96-1.61h.17l-.96,1.61Z" style="stroke-width:0px;"/><path d="m44.62,49.8h-.18l.96-1.61h.17l-.96,1.61Z" style="stroke-width:0px;"/><path d="m46.11,49.11v-.34l-.26.18-.09-.16.3-.15-.3-.15.09-.16.26.18v-.34h.18v.34s.26-.18.26-.18l.09.15-.3.15.3.15-.09.16-.26-.19v.34s-.18,0-.18,0Z" style="stroke-width:0px;"/><path d="m47.31,49.11v-.34l-.26.18-.09-.16.3-.15-.3-.15.09-.16.26.18v-.34h.18v.34s.26-.18.26-.18l.09.15-.3.15.3.15-.09.16-.26-.19v.34s-.18,0-.18,0Z" style="stroke-width:0px;"/><path d="m48.22,49.8h-.18l.96-1.61h.17l-.96,1.61Z" style="stroke-width:0px;"/><path d="m49.42,49.8h-.18l.96-1.61h.17l-.96,1.61Z" style="stroke-width:0px;"/><path d="m50.62,49.8h-.18l.96-1.61h.17l-.96,1.61Z" style="stroke-width:0px;"/><path d="m51.82,49.8h-.18l.96-1.61h.17l-.96,1.61Z" style="stroke-width:0px;"/><path d="m53.02,49.8h-.18l.96-1.61h.17l-.96,1.61Z" style="stroke-width:0px;"/><path d="m54.22,49.8h-.18l.96-1.61h.17l-.96,1.61Z" style="stroke-width:0px;"/><path d="m55.42,49.8h-.18l.96-1.61h.17l-.96,1.61Z" style="stroke-width:0px;"/><path d="m56.62,49.8h-.18l.96-1.61h.17l-.96,1.61Z" style="stroke-width:0px;"/><path d="m57.82,49.8h-.18l.96-1.61h.17l-.96,1.61Z" style="stroke-width:0px;"/><path d="m59.02,49.8h-.18l.96-1.61h.17l-.96,1.61Z" style="stroke-width:0px;"/><path d="m60.22,49.8h-.18l.96-1.61h.17l-.96,1.61Z" style="stroke-width:0px;"/><path d="m61.42,49.8h-.18l.96-1.61h.17l-.96,1.61Z" style="stroke-width:0px;"/><path d="m62.62,49.8h-.18l.96-1.61h.17l-.96,1.61Z" style="stroke-width:0px;"/><path d="m63.82,49.8h-.18l.96-1.61h.17l-.96,1.61Z" style="stroke-width:0px;"/><path d="m65.02,49.8h-.18l.96-1.61h.17l-.96,1.61Z" style="stroke-width:0px;"/><path d="m66.22,49.8h-.18l.96-1.61h.17l-.96,1.61Z" style="stroke-width:0px;"/><path d="m67.42,49.8h-.18l.96-1.61h.17l-.96,1.61Z" style="stroke-width:0px;"/><path d="m68.62,49.8h-.18l.96-1.61h.17l-.96,1.61Z" style="stroke-width:0px;"/><path d="m69.82,49.8h-.18l.96-1.61h.17l-.96,1.61Z" style="stroke-width:0px;"/><path d="m71.02,49.8h-.18l.96-1.61h.17l-.96,1.61Z" style="stroke-width:0px;"/><path d="m72.52,49.11v-.34l-.26.18-.09-.16.3-.15-.3-.15.09-.16.26.18v-.34h.18v.34s.26-.18.26-.18l.09.15-.3.15.3.15-.09.16-.26-.19v.34s-.18,0-.18,0Z" style="stroke-width:0px;"/><path d="m73.72,49.11v-.34l-.26.18-.09-.16.3-.15-.3-.15.09-.16.26.18v-.34h.18v.34s.26-.18.26-.18l.09.15-.3.15.3.15-.09.16-.26-.19v.34s-.18,0-.18,0Z" style="stroke-width:0px;"/><path d="m74.62,49.8h-.18l.96-1.61h.17l-.96,1.61Z" style="stroke-width:0px;"/><path d="m75.82,49.8h-.18l.96-1.61h.17l-.96,1.61Z" style="stroke-width:0px;"/><path d="m77.02,49.8h-.18l.96-1.61h.17l-.96,1.61Z" style="stroke-width:0px;"/><path d="m78.22,49.8h-.18l.96-1.61h.17l-.96,1.61Z" style="stroke-width:0px;"/><path d="m85.42,49.8h-.18l.96-1.61h.17l-.96,1.61Z" style="stroke-width:0px;"/><path d="m86.62,49.8h-.18l.96-1.61h.17l-.96,1.61Z" style="stroke-width:0px;"/><path d="m87.83,49.8h-.18l.96-1.61h.17l-.96,1.61Z" style="stroke-width:0px;"/><path d="m89.03,49.8h-.18l.96-1.61h.17l-.96,1.61Z" style="stroke-width:0px;"/><path d="m90.23,49.8h-.18l.96-1.61h.17l-.96,1.61Z" style="stroke-width:0px;"/><path d="m91.72,49.11v-.34l-.26.18-.09-.16.3-.15-.3-.15.09-.16.26.18v-.34h.18v.34s.26-.18.26-.18l.09.15-.3.15.3.15-.09.16-.26-.19v.34s-.18,0-.18,0Z" style="stroke-width:0px;"/><path d="m5.01,52.2h-.18l.96-1.61h.17l-.96,1.61Z" style="stroke-width:0px;"/><path d="m6.21,52.2h-.18l.96-1.61h.17l-.96,1.61Z" style="stroke-width:0px;"/><path d="m7.41,52.2h-.18l.96-1.61h.17l-.96,1.61Z" style="stroke-width:0px;"/><path d="m33.82,52.2h-.18l.96-1.61h.17l-.96,1.61Z" style="stroke-width:0px;"/><path d="m35.02,52.2h-.18l.96-1.61h.17l-.96,1.61Z" style="stroke-width:0px;"/><path d="m36.22,52.2h-.18l.96-1.61h.17l-.96,1.61Z" style="stroke-width:0px;"/><path d="m37.42,52.2h-.18l.96-1.61h.17l-.96,1.61Z" style="stroke-width:0px;"/><path d="m38.62,52.2h-.18l.96-1.61h.17l-.96,1.61Z" style="stroke-width:0px;"/><path d="m39.82,52.2h-.18l.96-1.61h.17l-.96,1.61Z" style="stroke-width:0px;"/><path d="m41.31,51.51v-.34l-.26.18-.09-.16.3-.15-.3-.15.09-.16.26.18v-.34h.18v.34s.26-.18.26-.18l.09.15-.3.15.3.15-.09.16-.26-.19v.34s-.18,0-.18,0Z" style="stroke-width:0px;"/><path d="m44.62,52.2h-.18l.96-1.61h.17l-.96,1.61Z" style="stroke-width:0px;"/><path d="m45.82,52.2h-.18l.96-1.61h.17l-.96,1.61Z" style="stroke-width:0px;"/><path d="m47.02,52.2h-.18l.96-1.61h.17l-.96,1.61Z" style="stroke-width:0px;"/><path d="m48.22,52.2h-.18l.96-1.61h.17l-.96,1.61Z" style="stroke-width:0px;"/><path d="m49.42,52.2h-.18l.96-1.61h.17l-.96,1.61Z" style="stroke-width:0px;"/><path d="m50.62,52.2h-.18l.96-1.61h.17l-.96,1.61Z" style="stroke-width:0px;"/><path d="m51.82,52.2h-.18l.96-1.61h.17l-.96,1.61Z" style="stroke-width:0px;"/><path d="m53.02,52.2h-.18l.96-1.61h.17l-.96,1.61Z" style="stroke-width:0px;"/><path d="m54.22,52.2h-.18l.96-1.61h.17l-.96,1.61Z" style="stroke-width:0px;"/><path d="m55.42,52.2h-.18l.96-1.61h.17l-.96,1.61Z" style="stroke-width:0px;"/><path d="m56.62,52.2h-.18l.96-1.61h.17l-.96,1.61Z" style="stroke-width:0px;"/><path d="m57.82,52.2h-.18l.96-1.61h.17l-.96,1.61Z" style="stroke-width:0px;"/><path d="m59.02,52.2h-.18l.96-1.61h.17l-.96,1.61Z" style="stroke-width:0px;"/><path d="m60.22,52.2h-.18l.96-1.61h.17l-.96,1.61Z" style="stroke-width:0px;"/><path d="m61.42,52.2h-.18l.96-1.61h.17l-.96,1.61Z" style="stroke-width:0px;"/><path d="m62.62,52.2h-.18l.96-1.61h.17l-.96,1.61Z" style="stroke-width:0px;"/><path d="m63.82,52.2h-.18l.96-1.61h.17l-.96,1.61Z" style="stroke-width:0px;"/><path d="m65.02,52.2h-.18l.96-1.61h.17l-.96,1.61Z" style="stroke-width:0px;"/><path d="m66.22,52.2h-.18l.96-1.61h.17l-.96,1.61Z" style="stroke-width:0px;"/><path d="m67.42,52.2h-.18l.96-1.61h.17l-.96,1.61Z" style="stroke-width:0px;"/><path d="m68.62,52.2h-.18l.96-1.61h.17l-.96,1.61Z" style="stroke-width:0px;"/><path d="m69.82,52.2h-.18l.96-1.61h.17l-.96,1.61Z" style="stroke-width:0px;"/><path d="m71.02,52.2h-.18l.96-1.61h.17l-.96,1.61Z" style="stroke-width:0px;"/><path d="m72.22,52.2h-.18l.96-1.61h.17l-.96,1.61Z" style="stroke-width:0px;"/><path d="m73.42,52.2h-.18l.96-1.61h.17l-.96,1.61Z" style="stroke-width:0px;"/><path d="m74.62,52.2h-.18l.96-1.61h.17l-.96,1.61Z" style="stroke-width:0px;"/><path d="m79.42,52.2h-.18l.96-1.61h.17l-.96,1.61Z" style="stroke-width:0px;"/><path d="m80.62,52.2h-.18l.96-1.61h.17l-.96,1.61Z" style="stroke-width:0px;"/><path d="m81.82,52.2h-.18l.96-1.61h.17l-.96,1.61Z" style="stroke-width:0px;"/><path d="m83.02,52.2h-.18l.96-1.61h.17l-.96,1.61Z" style="stroke-width:0px;"/><path d="m84.22,52.2h-.18l.96-1.61h.17l-.96,1.61Z" style="stroke-width:0px;"/><path d="m85.42,52.2h-.18l.96-1.61h.17l-.96,1.61Z" style="stroke-width:0px;"/><path d="m112.12,51.51v-.34l-.26.18-.09-.16.3-.15-.3-.15.09-.16.26.18v-.34h.18v.34s.26-.18.26-.18l.09.15-.3.15.3.15-.09.16-.26-.19v.34s-.18,0-.18,0Z" style="stroke-width:0px;"/><path d="m113.03,52.2h-.18l.96-1.61h.17l-.96,1.61Z" style="stroke-width:0px;"/><path d="m114.23,52.2h-.18l.96-1.61h.17l-.96,1.61Z" style="stroke-width:0px;"/><path d="m14.61,54.6h-.18l.96-1.61h.17l-.96,1.61Z" style="stroke-width:0px;"/><path d="m15.81,54.6h-.18l.96-1.61h.17l-.96,1.61Z" style="stroke-width:0px;"/><path d="m17.01,54.6h-.18l.96-1.61h.17l-.96,1.61Z" style="stroke-width:0px;"/><path d="m18.21,54.6h-.18l.96-1.61h.17l-.96,1.61Z" style="stroke-width:0px;"/><path d="m19.41,54.6h-.18l.96-1.61h.17l-.96,1.61Z" style="stroke-width:0px;"/><path d="m20.61,54.6h-.18l.96-1.61h.17l-.96,1.61Z" style="stroke-width:0px;"/><path d="m21.81,54.6h-.18l.96-1.61h.17l-.96,1.61Z" style="stroke-width:0px;"/><path d="m23.01,54.6h-.18l.96-1.61h.17l-.96,1.61Z" style="stroke-width:0px;"/><path d="m24.21,54.6h-.18l.96-1.61h.17l-.96,1.61Z" style="stroke-width:0px;"/><path d="m25.71,53.91v-.34l-.26.18-.09-.16.3-.15-.3-.15.09-.16.26.18v-.34h.18v.34s.26-.18.26-.18l.09.15-.3.15.3.15-.09.16-.26-.19v.34s-.18,0-.18,0Z" style="stroke-width:0px;"/><path d="m39.82,54.6h-.18l.96-1.61h.17l-.96,1.61Z" style="stroke-width:0px;"/><path d="m41.02,54.6h-.18l.96-1.61h.17l-.96,1.61Z" style="stroke-width:0px;"/><path d="m42.22,54.6h-.18l.96-1.61h.17l-.96,1.61Z" style="stroke-width:0px;"/><path d="m43.42,54.6h-.18l.96-1.61h.17l-.96,1.61Z" style="stroke-width:0px;"/><path d="m44.62,54.6h-.18l.96-1.61h.17l-.96,1.61Z" style="stroke-width:0px;"/><path d="m45.82,54.6h-.18l.96-1.61h.17l-.96,1.61Z" style="stroke-width:0px;"/><path d="m47.02,54.6h-.18l.96-1.61h.17l-.96,1.61Z" style="stroke-width:0px;"/><path d="m48.22,54.6h-.18l.96-1.61h.17l-.96,1.61Z" style="stroke-width:0px;"/><path d="m49.42,54.6h-.18l.96-1.61h.17l-.96,1.61Z" style="stroke-width:0px;"/><path d="m50.62,54.6h-.18l.96-1.61h.17l-.96,1.61Z" style="stroke-width:0px;"/><path d="m51.82,54.6h-.18l.96-1.61h.17l-.96,1.61Z" style="stroke-width:0px;"/><path d="m53.02,54.6h-.18l.96-1.61h.17l-.96,1.61Z" style="stroke-width:0px;"/><path d="m54.22,54.6h-.18l.96-1.61h.17l-.96,1.61Z" style="stroke-width:0px;"/><path d="m55.42,54.6h-.18l.96-1.61h.17l-.96,1.61Z" style="stroke-width:0px;"/><path d="m56.62,54.6h-.18l.96-1.61h.17l-.96,1.61Z" style="stroke-width:0px;"/><path d="m57.82,54.6h-.18l.96-1.61h.17l-.96,1.61Z" style="stroke-width:0px;"/><path d="m59.02,54.6h-.18l.96-1.61h.17l-.96,1.61Z" style="stroke-width:0px;"/><path d="m60.22,54.6h-.18l.96-1.61h.17l-.96,1.61Z" style="stroke-width:0px;"/><path d="m61.42,54.6h-.18l.96-1.61h.17l-.96,1.61Z" style="stroke-width:0px;"/><path d="m62.62,54.6h-.18l.96-1.61h.17l-.96,1.61Z" style="stroke-width:0px;"/><path d="m63.82,54.6h-.18l.96-1.61h.17l-.96,1.61Z" style="stroke-width:0px;"/><path d="m65.02,54.6h-.18l.96-1.61h.17l-.96,1.61Z" style="stroke-width:0px;"/><path d="m66.22,54.6h-.18l.96-1.61h.17l-.96,1.61Z" style="stroke-width:0px;"/><path d="m67.42,54.6h-.18l.96-1.61h.17l-.96,1.61Z" style="stroke-width:0px;"/><path d="m68.62,54.6h-.18l.96-1.61h.17l-.96,1.61Z" style="stroke-width:0px;"/><path d="m69.82,54.6h-.18l.96-1.61h.17l-.96,1.61Z" style="stroke-width:0px;"/><path d="m71.02,54.6h-.18l.96-1.61h.17l-.96,1.61Z" style="stroke-width:0px;"/><path d="m72.22,54.6h-.18l.96-1.61h.17l-.96,1.61Z" style="stroke-width:0px;"/><path d="m73.42,54.6h-.18l.96-1.61h.17l-.96,1.61Z" style="stroke-width:0px;"/><path d="m74.62,54.6h-.18l.96-1.61h.17l-.96,1.61Z" style="stroke-width:0px;"/><path d="m75.82,54.6h-.18l.96-1.61h.17l-.96,1.61Z" style="stroke-width:0px;"/><path d="m77.02,54.6h-.18l.96-1.61h.17l-.96,1.61Z" style="stroke-width:0px;"/><path d="m78.22,54.6h-.18l.96-1.61h.17l-.96,1.61Z" style="stroke-width:0px;"/><path d="m79.42,54.6h-.18l.96-1.61h.17l-.96,1.61Z" style="stroke-width:0px;"/><path d="m94.12,53.91v-.34l-.26.18-.09-.16.3-.15-.3-.15.09-.16.26.18v-.34h.18v.34s.26-.18.26-.18l.09.15-.3.15.3.15-.09.16-.26-.19v.34s-.18,0-.18,0Z" style="stroke-width:0px;"/><path d="m95.03,54.6h-.18l.96-1.61h.17l-.96,1.61Z" style="stroke-width:0px;"/><path d="m96.23,54.6h-.18l.96-1.61h.17l-.96,1.61Z" style="stroke-width:0px;"/><path d="m97.43,54.6h-.18l.96-1.61h.17l-.96,1.61Z" style="stroke-width:0px;"/><path d="m98.63,54.6h-.18l.96-1.61h.17l-.96,1.61Z" style="stroke-width:0px;"/><path d="m99.83,54.6h-.18l.96-1.61h.17l-.96,1.61Z" style="stroke-width:0px;"/><path d="m101.03,54.6h-.18l.96-1.61h.17l-.96,1.61Z" style="stroke-width:0px;"/><path d="m102.23,54.6h-.18l.96-1.61h.17l-.96,1.61Z" style="stroke-width:0px;"/><path d="m103.43,54.6h-.18l.96-1.61h.17l-.96,1.61Z" style="stroke-width:0px;"/><path d="m104.63,54.6h-.18l.96-1.61h.17l-.96,1.61Z" style="stroke-width:0px;"/><path d="m26.62,57h-.18l.96-1.61h.17l-.96,1.61Z" style="stroke-width:0px;"/><path d="m27.82,57h-.18l.96-1.61h.17l-.96,1.61Z" style="stroke-width:0px;"/><path d="m29.02,57h-.18l.96-1.61h.17l-.96,1.61Z" style="stroke-width:0px;"/><path d="m30.22,57h-.18l.96-1.61h.17l-.96,1.61Z" style="stroke-width:0px;"/><path d="m31.42,57h-.18l.96-1.61h.17l-.96,1.61Z" style="stroke-width:0px;"/><path d="m32.62,57h-.18l.96-1.61h.17l-.96,1.61Z" style="stroke-width:0px;"/><path d="m33.82,57h-.18l.96-1.61h.17l-.96,1.61Z" style="stroke-width:0px;"/><path d="m35.02,57h-.18l.96-1.61h.17l-.96,1.61Z" style="stroke-width:0px;"/><path d="m36.22,57h-.18l.96-1.61h.17l-.96,1.61Z" style="stroke-width:0px;"/><path d="m37.42,57h-.18l.96-1.61h.17l-.96,1.61Z" style="stroke-width:0px;"/><path d="m38.62,57h-.18l.96-1.61h.17l-.96,1.61Z" style="stroke-width:0px;"/><path d="m39.82,57h-.18l.96-1.61h.17l-.96,1.61Z" style="stroke-width:0px;"/><path d="m41.02,57h-.18l.96-1.61h.17l-.96,1.61Z" style="stroke-width:0px;"/><path d="m42.22,57h-.18l.96-1.61h.17l-.96,1.61Z" style="stroke-width:0px;"/><path d="m43.71,56.31v-.34l-.26.18-.09-.16.3-.15-.3-.15.09-.16.26.18v-.34h.18v.34s.26-.18.26-.18l.09.15-.3.15.3.15-.09.16-.26-.19v.34s-.18,0-.18,0Z" style="stroke-width:0px;"/><path d="m44.62,57h-.18l.96-1.61h.17l-.96,1.61Z" style="stroke-width:0px;"/><path d="m45.82,57h-.18l.96-1.61h.17l-.96,1.61Z" style="stroke-width:0px;"/><path d="m47.02,57h-.18l.96-1.61h.17l-.96,1.61Z" style="stroke-width:0px;"/><path d="m48.22,57h-.18l.96-1.61h.17l-.96,1.61Z" style="stroke-width:0px;"/><path d="m49.42,57h-.18l.96-1.61h.17l-.96,1.61Z" style="stroke-width:0px;"/><path d="m50.62,57h-.18l.96-1.61h.17l-.96,1.61Z" style="stroke-width:0px;"/><path d="m51.82,57h-.18l.96-1.61h.17l-.96,1.61Z" style="stroke-width:0px;"/><path d="m53.02,57h-.18l.96-1.61h.17l-.96,1.61Z" style="stroke-width:0px;"/><path d="m54.22,57h-.18l.96-1.61h.17l-.96,1.61Z" style="stroke-width:0px;"/><path d="m55.42,57h-.18l.96-1.61h.17l-.96,1.61Z" style="stroke-width:0px;"/><path d="m56.62,57h-.18l.96-1.61h.17l-.96,1.61Z" style="stroke-width:0px;"/><path d="m57.82,57h-.18l.96-1.61h.17l-.96,1.61Z" style="stroke-width:0px;"/><path d="m59.02,57h-.18l.96-1.61h.17l-.96,1.61Z" style="stroke-width:0px;"/><path d="m60.22,57h-.18l.96-1.61h.17l-.96,1.61Z" style="stroke-width:0px;"/><path d="m61.42,57h-.18l.96-1.61h.17l-.96,1.61Z" style="stroke-width:0px;"/><path d="m62.62,57h-.18l.96-1.61h.17l-.96,1.61Z" style="stroke-width:0px;"/><path d="m63.82,57h-.18l.96-1.61h.17l-.96,1.61Z" style="stroke-width:0px;"/><path d="m65.02,57h-.18l.96-1.61h.17l-.96,1.61Z" style="stroke-width:0px;"/><path d="m66.22,57h-.18l.96-1.61h.17l-.96,1.61Z" style="stroke-width:0px;"/><path d="m67.42,57h-.18l.96-1.61h.17l-.96,1.61Z" style="stroke-width:0px;"/><path d="m68.62,57h-.18l.96-1.61h.17l-.96,1.61Z" style="stroke-width:0px;"/><path d="m69.82,57h-.18l.96-1.61h.17l-.96,1.61Z" style="stroke-width:0px;"/><path d="m71.02,57h-.18l.96-1.61h.17l-.96,1.61Z" style="stroke-width:0px;"/><path d="m72.22,57h-.18l.96-1.61h.17l-.96,1.61Z" style="stroke-width:0px;"/><path d="m73.42,57h-.18l.96-1.61h.17l-.96,1.61Z" style="stroke-width:0px;"/><path d="m74.62,57h-.18l.96-1.61h.17l-.96,1.61Z" style="stroke-width:0px;"/><path d="m77.02,57h-.18l.96-1.61h.17l-.96,1.61Z" style="stroke-width:0px;"/><path d="m78.22,57h-.18l.96-1.61h.17l-.96,1.61Z" style="stroke-width:0px;"/><path d="m79.42,57h-.18l.96-1.61h.17l-.96,1.61Z" style="stroke-width:0px;"/><path d="m80.62,57h-.18l.96-1.61h.17l-.96,1.61Z" style="stroke-width:0px;"/><path d="m81.82,57h-.18l.96-1.61h.17l-.96,1.61Z" style="stroke-width:0px;"/><path d="m83.02,57h-.18l.96-1.61h.17l-.96,1.61Z" style="stroke-width:0px;"/><path d="m84.22,57h-.18l.96-1.61h.17l-.96,1.61Z" style="stroke-width:0px;"/><path d="m85.42,57h-.18l.96-1.61h.17l-.96,1.61Z" style="stroke-width:0px;"/><path d="m86.62,57h-.18l.96-1.61h.17l-.96,1.61Z" style="stroke-width:0px;"/><path d="m87.83,57h-.18l.96-1.61h.17l-.96,1.61Z" style="stroke-width:0px;"/><path d="m89.03,57h-.18l.96-1.61h.17l-.96,1.61Z" style="stroke-width:0px;"/><path d="m90.23,57h-.18l.96-1.61h.17l-.96,1.61Z" style="stroke-width:0px;"/><path d="m91.43,57h-.18l.96-1.61h.17l-.96,1.61Z" style="stroke-width:0px;"/><path d="m92.63,57h-.18l.96-1.61h.17l-.96,1.61Z" style="stroke-width:0px;"/><path d="m38.91,58.71v-.34l-.26.18-.09-.16.3-.15-.3-.15.09-.16.26.18v-.34h.18v.34s.26-.18.26-.18l.09.15-.3.15.3.15-.09.16-.26-.19v.34s-.18,0-.18,0Z" style="stroke-width:0px;"/><path d="m39.82,59.4h-.18l.96-1.61h.17l-.96,1.61Z" style="stroke-width:0px;"/><path d="m41.02,59.4h-.18l.96-1.61h.17l-.96,1.61Z" style="stroke-width:0px;"/><path d="m42.22,59.4h-.18l.96-1.61h.17l-.96,1.61Z" style="stroke-width:0px;"/><path d="m43.42,59.4h-.18l.96-1.61h.17l-.96,1.61Z" style="stroke-width:0px;"/><path d="m44.62,59.4h-.18l.96-1.61h.17l-.96,1.61Z" style="stroke-width:0px;"/><path d="m45.82,59.4h-.18l.96-1.61h.17l-.96,1.61Z" style="stroke-width:0px;"/><path d="m47.02,59.4h-.18l.96-1.61h.17l-.96,1.61Z" style="stroke-width:0px;"/><path d="m48.22,59.4h-.18l.96-1.61h.17l-.96,1.61Z" style="stroke-width:0px;"/><path d="m49.42,59.4h-.18l.96-1.61h.17l-.96,1.61Z" style="stroke-width:0px;"/><path d="m50.62,59.4h-.18l.96-1.61h.17l-.96,1.61Z" style="stroke-width:0px;"/><path d="m51.82,59.4h-.18l.96-1.61h.17l-.96,1.61Z" style="stroke-width:0px;"/><path d="m53.02,59.4h-.18l.96-1.61h.17l-.96,1.61Z" style="stroke-width:0px;"/><path d="m54.22,59.4h-.18l.96-1.61h.17l-.96,1.61Z" style="stroke-width:0px;"/><path d="m55.42,59.4h-.18l.96-1.61h.17l-.96,1.61Z" style="stroke-width:0px;"/><path d="m56.62,59.4h-.18l.96-1.61h.17l-.96,1.61Z" style="stroke-width:0px;"/><path d="m57.82,59.4h-.18l.96-1.61h.17l-.96,1.61Z" style="stroke-width:0px;"/><path d="m59.02,59.4h-.18l.96-1.61h.17l-.96,1.61Z" style="stroke-width:0px;"/><path d="m60.22,59.4h-.18l.96-1.61h.17l-.96,1.61Z" style="stroke-width:0px;"/><path d="m61.42,59.4h-.18l.96-1.61h.17l-.96,1.61Z" style="stroke-width:0px;"/><path d="m62.62,59.4h-.18l.96-1.61h.17l-.96,1.61Z" style="stroke-width:0px;"/><path d="m63.82,59.4h-.18l.96-1.61h.17l-.96,1.61Z" style="stroke-width:0px;"/><path d="m65.02,59.4h-.18l.96-1.61h.17l-.96,1.61Z" style="stroke-width:0px;"/><path d="m66.22,59.4h-.18l.96-1.61h.17l-.96,1.61Z" style="stroke-width:0px;"/><path d="m67.42,59.4h-.18l.96-1.61h.17l-.96,1.61Z" style="stroke-width:0px;"/><path d="m68.62,59.4h-.18l.96-1.61h.17l-.96,1.61Z" style="stroke-width:0px;"/><path d="m69.82,59.4h-.18l.96-1.61h.17l-.96,1.61Z" style="stroke-width:0px;"/><path d="m71.02,59.4h-.18l.96-1.61h.17l-.96,1.61Z" style="stroke-width:0px;"/><path d="m72.22,59.4h-.18l.96-1.61h.17l-.96,1.61Z" style="stroke-width:0px;"/><path d="m73.42,59.4h-.18l.96-1.61h.17l-.96,1.61Z" style="stroke-width:0px;"/><path d="m74.62,59.4h-.18l.96-1.61h.17l-.96,1.61Z" style="stroke-width:0px;"/><path d="m75.82,59.4h-.18l.96-1.61h.17l-.96,1.61Z" style="stroke-width:0px;"/><path d="m77.02,59.4h-.18l.96-1.61h.17l-.96,1.61Z" style="stroke-width:0px;"/><path d="m78.22,59.4h-.18l.96-1.61h.17l-.96,1.61Z" style="stroke-width:0px;"/><path d="m79.42,59.4h-.18l.96-1.61h.17l-.96,1.61Z" style="stroke-width:0px;"/><path d="m80.92,58.71v-.34l-.26.18-.09-.16.3-.15-.3-.15.09-.16.26.18v-.34h.18v.34s.26-.18.26-.18l.09.15-.3.15.3.15-.09.16-.26-.19v.34s-.18,0-.18,0Z" style="stroke-width:0px;"/><path d="m29.31,61.11v-.34l-.26.18-.09-.16.3-.15-.3-.15.09-.16.26.18v-.34h.18v.34s.26-.18.26-.18l.09.15-.3.15.3.15-.09.16-.26-.19v.34s-.18,0-.18,0Z" style="stroke-width:0px;"/><path d="m30.22,61.8h-.18l.96-1.61h.17l-.96,1.61Z" style="stroke-width:0px;"/><path d="m31.42,61.8h-.18l.96-1.61h.17l-.96,1.61Z" style="stroke-width:0px;"/><path d="m32.62,61.8h-.18l.96-1.61h.17l-.96,1.61Z" style="stroke-width:0px;"/><path d="m33.82,61.8h-.18l.96-1.61h.17l-.96,1.61Z" style="stroke-width:0px;"/><path d="m35.02,61.8h-.18l.96-1.61h.17l-.96,1.61Z" style="stroke-width:0px;"/><path d="m36.22,61.8h-.18l.96-1.61h.17l-.96,1.61Z" style="stroke-width:0px;"/><path d="m37.42,61.8h-.18l.96-1.61h.17l-.96,1.61Z" style="stroke-width:0px;"/><path d="m38.62,61.8h-.18l.96-1.61h.17l-.96,1.61Z" style="stroke-width:0px;"/><path d="m39.82,61.8h-.18l.96-1.61h.17l-.96,1.61Z" style="stroke-width:0px;"/><path d="m41.02,61.8h-.18l.96-1.61h.17l-.96,1.61Z" style="stroke-width:0px;"/><path d="m42.22,61.8h-.18l.96-1.61h.17l-.96,1.61Z" style="stroke-width:0px;"/><path d="m43.42,61.8h-.18l.96-1.61h.17l-.96,1.61Z" style="stroke-width:0px;"/><path d="m44.62,61.8h-.18l.96-1.61h.17l-.96,1.61Z" style="stroke-width:0px;"/><path d="m45.82,61.8h-.18l.96-1.61h.17l-.96,1.61Z" style="stroke-width:0px;"/><path d="m47.02,61.8h-.18l.96-1.61h.17l-.96,1.61Z" style="stroke-width:0px;"/><path d="m48.22,61.8h-.18l.96-1.61h.17l-.96,1.61Z" style="stroke-width:0px;"/><path d="m49.42,61.8h-.18l.96-1.61h.17l-.96,1.61Z" style="stroke-width:0px;"/><path d="m50.62,61.8h-.18l.96-1.61h.17l-.96,1.61Z" style="stroke-width:0px;"/><path d="m51.82,61.8h-.18l.96-1.61h.17l-.96,1.61Z" style="stroke-width:0px;"/><path d="m53.02,61.8h-.18l.96-1.61h.17l-.96,1.61Z" style="stroke-width:0px;"/><path d="m54.22,61.8h-.18l.96-1.61h.17l-.96,1.61Z" style="stroke-width:0px;"/><path d="m55.42,61.8h-.18l.96-1.61h.17l-.96,1.61Z" style="stroke-width:0px;"/><path d="m56.62,61.8h-.18l.96-1.61h.17l-.96,1.61Z" style="stroke-width:0px;"/><path d="m57.82,61.8h-.18l.96-1.61h.17l-.96,1.61Z" style="stroke-width:0px;"/><path d="m59.02,61.8h-.18l.96-1.61h.17l-.96,1.61Z" style="stroke-width:0px;"/><path d="m60.22,61.8h-.18l.96-1.61h.17l-.96,1.61Z" style="stroke-width:0px;"/><path d="m61.42,61.8h-.18l.96-1.61h.17l-.96,1.61Z" style="stroke-width:0px;"/><path d="m62.62,61.8h-.18l.96-1.61h.17l-.96,1.61Z" style="stroke-width:0px;"/><path d="m63.82,61.8h-.18l.96-1.61h.17l-.96,1.61Z" style="stroke-width:0px;"/><path d="m65.02,61.8h-.18l.96-1.61h.17l-.96,1.61Z" style="stroke-width:0px;"/><path d="m66.22,61.8h-.18l.96-1.61h.17l-.96,1.61Z" style="stroke-width:0px;"/><path d="m67.42,61.8h-.18l.96-1.61h.17l-.96,1.61Z" style="stroke-width:0px;"/><path d="m68.62,61.8h-.18l.96-1.61h.17l-.96,1.61Z" style="stroke-width:0px;"/><path d="m69.82,61.8h-.18l.96-1.61h.17l-.96,1.61Z" style="stroke-width:0px;"/><path d="m71.02,61.8h-.18l.96-1.61h.17l-.96,1.61Z" style="stroke-width:0px;"/><path d="m72.22,61.8h-.18l.96-1.61h.17l-.96,1.61Z" style="stroke-width:0px;"/><path d="m73.42,61.8h-.18l.96-1.61h.17l-.96,1.61Z" style="stroke-width:0px;"/><path d="m74.62,61.8h-.18l.96-1.61h.17l-.96,1.61Z" style="stroke-width:0px;"/><path d="m75.82,61.8h-.18l.96-1.61h.17l-.96,1.61Z" style="stroke-width:0px;"/><path d="m77.02,61.8h-.18l.96-1.61h.17l-.96,1.61Z" style="stroke-width:0px;"/><path d="m78.22,61.8h-.18l.96-1.61h.17l-.96,1.61Z" style="stroke-width:0px;"/><path d="m79.42,61.8h-.18l.96-1.61h.17l-.96,1.61Z" style="stroke-width:0px;"/><path d="m80.62,61.8h-.18l.96-1.61h.17l-.96,1.61Z" style="stroke-width:0px;"/><path d="m81.82,61.8h-.18l.96-1.61h.17l-.96,1.61Z" style="stroke-width:0px;"/><path d="m83.02,61.8h-.18l.96-1.61h.17l-.96,1.61Z" style="stroke-width:0px;"/><path d="m84.22,61.8h-.18l.96-1.61h.17l-.96,1.61Z" style="stroke-width:0px;"/><path d="m85.42,61.8h-.18l.96-1.61h.17l-.96,1.61Z" style="stroke-width:0px;"/><path d="m86.62,61.8h-.18l.96-1.61h.17l-.96,1.61Z" style="stroke-width:0px;"/><path d="m87.83,61.8h-.18l.96-1.61h.17l-.96,1.61Z" style="stroke-width:0px;"/><path d="m89.03,61.8h-.18l.96-1.61h.17l-.96,1.61Z" style="stroke-width:0px;"/><path d="m90.52,61.11v-.34l-.26.18-.09-.16.3-.15-.3-.15.09-.16.26.18v-.34h.18v.34s.26-.18.26-.18l.09.15-.3.15.3.15-.09.16-.26-.19v.34s-.18,0-.18,0Z" style="stroke-width:0px;"/><path d="m3.81,64.2h-.18l.96-1.61h.17l-.96,1.61Z" style="stroke-width:0px;"/><path d="m5.01,64.2h-.18l.96-1.61h.17l-.96,1.61Z" style="stroke-width:0px;"/><path d="m6.21,64.2h-.18l.96-1.61h.17l-.96,1.61Z" style="stroke-width:0px;"/><path d="m7.41,64.2h-.18l.96-1.61h.17l-.96,1.61Z" style="stroke-width:0px;"/><path d="m8.61,64.2h-.18l.96-1.61h.17l-.96,1.61Z" style="stroke-width:0px;"/><path d="m9.81,64.2h-.18l.96-1.61h.17l-.96,1.61Z" style="stroke-width:0px;"/><path d="m11.01,64.2h-.18l.96-1.61h.17l-.96,1.61Z" style="stroke-width:0px;"/><path d="m12.21,64.2h-.18l.96-1.61h.17l-.96,1.61Z" style="stroke-width:0px;"/><path d="m13.41,64.2h-.18l.96-1.61h.17l-.96,1.61Z" style="stroke-width:0px;"/><path d="m14.61,64.2h-.18l.96-1.61h.17l-.96,1.61Z" style="stroke-width:0px;"/><path d="m15.81,64.2h-.18l.96-1.61h.17l-.96,1.61Z" style="stroke-width:0px;"/><path d="m17.01,64.2h-.18l.96-1.61h.17l-.96,1.61Z" style="stroke-width:0px;"/><path d="m18.21,64.2h-.18l.96-1.61h.17l-.96,1.61Z" style="stroke-width:0px;"/><path d="m19.41,64.2h-.18l.96-1.61h.17l-.96,1.61Z" style="stroke-width:0px;"/><path d="m20.61,64.2h-.18l.96-1.61h.17l-.96,1.61Z" style="stroke-width:0px;"/><path d="m21.81,64.2h-.18l.96-1.61h.17l-.96,1.61Z" style="stroke-width:0px;"/><path d="m23.01,64.2h-.18l.96-1.61h.17l-.96,1.61Z" style="stroke-width:0px;"/><path d="m24.21,64.2h-.18l.96-1.61h.17l-.96,1.61Z" style="stroke-width:0px;"/><path d="m25.42,64.2h-.18l.96-1.61h.17l-.96,1.61Z" style="stroke-width:0px;"/><path d="m26.62,64.2h-.18l.96-1.61h.17l-.96,1.61Z" style="stroke-width:0px;"/><path d="m27.82,64.2h-.18l.96-1.61h.17l-.96,1.61Z" style="stroke-width:0px;"/><path d="m29.02,64.2h-.18l.96-1.61h.17l-.96,1.61Z" style="stroke-width:0px;"/><path d="m30.51,63.51v-.34l-.26.18-.09-.16.3-.15-.3-.15.09-.16.26.18v-.34h.18v.34s.26-.18.26-.18l.09.15-.3.15.3.15-.09.16-.26-.19v.34s-.18,0-.18,0Z" style="stroke-width:0px;"/><path d="m31.71,63.51v-.34l-.26.18-.09-.16.3-.15-.3-.15.09-.16.26.18v-.34h.18v.34s.26-.18.26-.18l.09.15-.3.15.3.15-.09.16-.26-.19v.34s-.18,0-.18,0Z" style="stroke-width:0px;"/><path d="m43.71,63.51v-.34l-.26.18-.09-.16.3-.15-.3-.15.09-.16.26.18v-.34h.18v.34s.26-.18.26-.18l.09.15-.3.15.3.15-.09.16-.26-.19v.34s-.18,0-.18,0Z" style="stroke-width:0px;"/><path d="m44.62,64.2h-.18l.96-1.61h.17l-.96,1.61Z" style="stroke-width:0px;"/><path d="m45.82,64.2h-.18l.96-1.61h.17l-.96,1.61Z" style="stroke-width:0px;"/><path d="m47.02,64.2h-.18l.96-1.61h.17l-.96,1.61Z" style="stroke-width:0px;"/><path d="m48.22,64.2h-.18l.96-1.61h.17l-.96,1.61Z" style="stroke-width:0px;"/><path d="m49.42,64.2h-.18l.96-1.61h.17l-.96,1.61Z" style="stroke-width:0px;"/><path d="m50.62,64.2h-.18l.96-1.61h.17l-.96,1.61Z" style="stroke-width:0px;"/><path d="m51.82,64.2h-.18l.96-1.61h.17l-.96,1.61Z" style="stroke-width:0px;"/><path d="m53.02,64.2h-.18l.96-1.61h.17l-.96,1.61Z" style="stroke-width:0px;"/><path d="m54.22,64.2h-.18l.96-1.61h.17l-.96,1.61Z" style="stroke-width:0px;"/><path d="m55.42,64.2h-.18l.96-1.61h.17l-.96,1.61Z" style="stroke-width:0px;"/><path d="m56.62,64.2h-.18l.96-1.61h.17l-.96,1.61Z" style="stroke-width:0px;"/><path d="m57.82,64.2h-.18l.96-1.61h.17l-.96,1.61Z" style="stroke-width:0px;"/><path d="m59.02,64.2h-.18l.96-1.61h.17l-.96,1.61Z" style="stroke-width:0px;"/><path d="m60.22,64.2h-.18l.96-1.61h.17l-.96,1.61Z" style="stroke-width:0px;"/><path d="m61.42,64.2h-.18l.96-1.61h.17l-.96,1.61Z" style="stroke-width:0px;"/><path d="m62.62,64.2h-.18l.96-1.61h.17l-.96,1.61Z" style="stroke-width:0px;"/><path d="m63.82,64.2h-.18l.96-1.61h.17l-.96,1.61Z" style="stroke-width:0px;"/><path d="m65.02,64.2h-.18l.96-1.61h.17l-.96,1.61Z" style="stroke-width:0px;"/><path d="m66.22,64.2h-.18l.96-1.61h.17l-.96,1.61Z" style="stroke-width:0px;"/><path d="m67.42,64.2h-.18l.96-1.61h.17l-.96,1.61Z" style="stroke-width:0px;"/><path d="m68.62,64.2h-.18l.96-1.61h.17l-.96,1.61Z" style="stroke-width:0px;"/><path d="m69.82,64.2h-.18l.96-1.61h.17l-.96,1.61Z" style="stroke-width:0px;"/><path d="m71.02,64.2h-.18l.96-1.61h.17l-.96,1.61Z" style="stroke-width:0px;"/><path d="m72.22,64.2h-.18l.96-1.61h.17l-.96,1.61Z" style="stroke-width:0px;"/><path d="m73.42,64.2h-.18l.96-1.61h.17l-.96,1.61Z" style="stroke-width:0px;"/><path d="m74.62,64.2h-.18l.96-1.61h.17l-.96,1.61Z" style="stroke-width:0px;"/><path d="m76.12,63.51v-.34l-.26.18-.09-.16.3-.15-.3-.15.09-.16.26.18v-.34h.18v.34s.26-.18.26-.18l.09.15-.3.15.3.15-.09.16-.26-.19v.34s-.18,0-.18,0Z" style="stroke-width:0px;"/><path d="m88.12,63.51v-.34l-.26.18-.09-.16.3-.15-.3-.15.09-.16.26.18v-.34h.18v.34s.26-.18.26-.18l.09.15-.3.15.3.15-.09.16-.26-.19v.34s-.18,0-.18,0Z" style="stroke-width:0px;"/><path d="m89.32,63.51v-.34l-.26.18-.09-.16.3-.15-.3-.15.09-.16.26.18v-.34h.18v.34s.26-.18.26-.18l.09.15-.3.15.3.15-.09.16-.26-.19v.34s-.18,0-.18,0Z" style="stroke-width:0px;"/><path d="m90.23,64.2h-.18l.96-1.61h.17l-.96,1.61Z" style="stroke-width:0px;"/><path d="m91.43,64.2h-.18l.96-1.61h.17l-.96,1.61Z" style="stroke-width:0px;"/><path d="m92.63,64.2h-.18l.96-1.61h.17l-.96,1.61Z" style="stroke-width:0px;"/><path d="m93.83,64.2h-.18l.96-1.61h.17l-.96,1.61Z" style="stroke-width:0px;"/><path d="m95.03,64.2h-.18l.96-1.61h.17l-.96,1.61Z" style="stroke-width:0px;"/><path d="m96.23,64.2h-.18l.96-1.61h.17l-.96,1.61Z" style="stroke-width:0px;"/><path d="m97.43,64.2h-.18l.96-1.61h.17l-.96,1.61Z" style="stroke-width:0px;"/><path d="m98.63,64.2h-.18l.96-1.61h.17l-.96,1.61Z" style="stroke-width:0px;"/><path d="m99.83,64.2h-.18l.96-1.61h.17l-.96,1.61Z" style="stroke-width:0px;"/><path d="m101.03,64.2h-.18l.96-1.61h.17l-.96,1.61Z" style="stroke-width:0px;"/><path d="m102.23,64.2h-.18l.96-1.61h.17l-.96,1.61Z" style="stroke-width:0px;"/><path d="m103.43,64.2h-.18l.96-1.61h.17l-.96,1.61Z" style="stroke-width:0px;"/><path d="m104.63,64.2h-.18l.96-1.61h.17l-.96,1.61Z" style="stroke-width:0px;"/><path d="m105.83,64.2h-.18l.96-1.61h.17l-.96,1.61Z" style="stroke-width:0px;"/><path d="m107.03,64.2h-.18l.96-1.61h.17l-.96,1.61Z" style="stroke-width:0px;"/><path d="m108.23,64.2h-.18l.96-1.61h.17l-.96,1.61Z" style="stroke-width:0px;"/><path d="m109.43,64.2h-.18l.96-1.61h.17l-.96,1.61Z" style="stroke-width:0px;"/><path d="m110.63,64.2h-.18l.96-1.61h.17l-.96,1.61Z" style="stroke-width:0px;"/><path d="m111.83,64.2h-.18l.96-1.61h.17l-.96,1.61Z" style="stroke-width:0px;"/><path d="m113.03,64.2h-.18l.96-1.61h.17l-.96,1.61Z" style="stroke-width:0px;"/><path d="m114.23,64.2h-.18l.96-1.61h.17l-.96,1.61Z" style="stroke-width:0px;"/><path d="m115.43,64.2h-.18l.96-1.61h.17l-.96,1.61Z" style="stroke-width:0px;"/><path d="m36.22,66.6h-.18l.96-1.61h.17l-.96,1.61Z" style="stroke-width:0px;"/><path d="m37.42,66.6h-.18l.96-1.61h.17l-.96,1.61Z" style="stroke-width:0px;"/><path d="m38.62,66.6h-.18l.96-1.61h.17l-.96,1.61Z" style="stroke-width:0px;"/><path d="m39.82,66.6h-.18l.96-1.61h.17l-.96,1.61Z" style="stroke-width:0px;"/><path d="m41.02,66.6h-.18l.96-1.61h.17l-.96,1.61Z" style="stroke-width:0px;"/><path d="m42.22,66.6h-.18l.96-1.61h.17l-.96,1.61Z" style="stroke-width:0px;"/><path d="m43.42,66.6h-.18l.96-1.61h.17l-.96,1.61Z" style="stroke-width:0px;"/><path d="m44.62,66.6h-.18l.96-1.61h.17l-.96,1.61Z" style="stroke-width:0px;"/><path d="m45.82,66.6h-.18l.96-1.61h.17l-.96,1.61Z" style="stroke-width:0px;"/><path d="m47.02,66.6h-.18l.96-1.61h.17l-.96,1.61Z" style="stroke-width:0px;"/><path d="m48.22,66.6h-.18l.96-1.61h.17l-.96,1.61Z" style="stroke-width:0px;"/><path d="m49.42,66.6h-.18l.96-1.61h.17l-.96,1.61Z" style="stroke-width:0px;"/><path d="m50.62,66.6h-.18l.96-1.61h.17l-.96,1.61Z" style="stroke-width:0px;"/><path d="m51.82,66.6h-.18l.96-1.61h.17l-.96,1.61Z" style="stroke-width:0px;"/><path d="m53.02,66.6h-.18l.96-1.61h.17l-.96,1.61Z" style="stroke-width:0px;"/><path d="m54.22,66.6h-.18l.96-1.61h.17l-.96,1.61Z" style="stroke-width:0px;"/><path d="m55.42,66.6h-.18l.96-1.61h.17l-.96,1.61Z" style="stroke-width:0px;"/><path d="m56.62,66.6h-.18l.96-1.61h.17l-.96,1.61Z" style="stroke-width:0px;"/><path d="m57.82,66.6h-.18l.96-1.61h.17l-.96,1.61Z" style="stroke-width:0px;"/><path d="m59.02,66.6h-.18l.96-1.61h.17l-.96,1.61Z" style="stroke-width:0px;"/><path d="m60.22,66.6h-.18l.96-1.61h.17l-.96,1.61Z" style="stroke-width:0px;"/><path d="m61.42,66.6h-.18l.96-1.61h.17l-.96,1.61Z" style="stroke-width:0px;"/><path d="m62.62,66.6h-.18l.96-1.61h.17l-.96,1.61Z" style="stroke-width:0px;"/><path d="m63.82,66.6h-.18l.96-1.61h.17l-.96,1.61Z" style="stroke-width:0px;"/><path d="m65.02,66.6h-.18l.96-1.61h.17l-.96,1.61Z" style="stroke-width:0px;"/><path d="m66.22,66.6h-.18l.96-1.61h.17l-.96,1.61Z" style="stroke-width:0px;"/><path d="m67.42,66.6h-.18l.96-1.61h.17l-.96,1.61Z" style="stroke-width:0px;"/><path d="m68.62,66.6h-.18l.96-1.61h.17l-.96,1.61Z" style="stroke-width:0px;"/><path d="m69.82,66.6h-.18l.96-1.61h.17l-.96,1.61Z" style="stroke-width:0px;"/><path d="m71.02,66.6h-.18l.96-1.61h.17l-.96,1.61Z" style="stroke-width:0px;"/><path d="m72.22,66.6h-.18l.96-1.61h.17l-.96,1.61Z" style="stroke-width:0px;"/><path d="m73.42,66.6h-.18l.96-1.61h.17l-.96,1.61Z" style="stroke-width:0px;"/><path d="m74.62,66.6h-.18l.96-1.61h.17l-.96,1.61Z" style="stroke-width:0px;"/><path d="m75.82,66.6h-.18l.96-1.61h.17l-.96,1.61Z" style="stroke-width:0px;"/><path d="m77.02,66.6h-.18l.96-1.61h.17l-.96,1.61Z" style="stroke-width:0px;"/><path d="m78.22,66.6h-.18l.96-1.61h.17l-.96,1.61Z" style="stroke-width:0px;"/><path d="m79.42,66.6h-.18l.96-1.61h.17l-.96,1.61Z" style="stroke-width:0px;"/><path d="m80.62,66.6h-.18l.96-1.61h.17l-.96,1.61Z" style="stroke-width:0px;"/><path d="m81.82,66.6h-.18l.96-1.61h.17l-.96,1.61Z" style="stroke-width:0px;"/><path d="m83.02,66.6h-.18l.96-1.61h.17l-.96,1.61Z" style="stroke-width:0px;"/><path d="m29.02,69h-.18l.96-1.61h.17l-.96,1.61Z" style="stroke-width:0px;"/><path d="m30.22,69h-.18l.96-1.61h.17l-.96,1.61Z" style="stroke-width:0px;"/><path d="m31.42,69h-.18l.96-1.61h.17l-.96,1.61Z" style="stroke-width:0px;"/><path d="m32.62,69h-.18l.96-1.61h.17l-.96,1.61Z" style="stroke-width:0px;"/><path d="m33.82,69h-.18l.96-1.61h.17l-.96,1.61Z" style="stroke-width:0px;"/><path d="m35.02,69h-.18l.96-1.61h.17l-.96,1.61Z" style="stroke-width:0px;"/><path d="m36.22,69h-.18l.96-1.61h.17l-.96,1.61Z" style="stroke-width:0px;"/><path d="m37.71,68.31v-.34l-.26.18-.09-.16.3-.15-.3-.15.09-.16.26.18v-.34h.18v.34s.26-.18.26-.18l.09.15-.3.15.3.15-.09.16-.26-.19v.34s-.18,0-.18,0Z" style="stroke-width:0px;"/><path d="m42.51,68.31v-.34l-.26.18-.09-.16.3-.15-.3-.15.09-.16.26.18v-.34h.18v.34s.26-.18.26-.18l.09.15-.3.15.3.15-.09.16-.26-.19v.34s-.18,0-.18,0Z" style="stroke-width:0px;"/><path d="m43.42,69h-.18l.96-1.61h.17l-.96,1.61Z" style="stroke-width:0px;"/><path d="m44.62,69h-.18l.96-1.61h.17l-.96,1.61Z" style="stroke-width:0px;"/><path d="m45.82,69h-.18l.96-1.61h.17l-.96,1.61Z" style="stroke-width:0px;"/><path d="m47.02,69h-.18l.96-1.61h.17l-.96,1.61Z" style="stroke-width:0px;"/><path d="m48.22,69h-.18l.96-1.61h.17l-.96,1.61Z" style="stroke-width:0px;"/><path d="m49.42,69h-.18l.96-1.61h.17l-.96,1.61Z" style="stroke-width:0px;"/><path d="m50.62,69h-.18l.96-1.61h.17l-.96,1.61Z" style="stroke-width:0px;"/><path d="m51.82,69h-.18l.96-1.61h.17l-.96,1.61Z" style="stroke-width:0px;"/><path d="m53.02,69h-.18l.96-1.61h.17l-.96,1.61Z" style="stroke-width:0px;"/><path d="m54.22,69h-.18l.96-1.61h.17l-.96,1.61Z" style="stroke-width:0px;"/><path d="m55.42,69h-.18l.96-1.61h.17l-.96,1.61Z" style="stroke-width:0px;"/><path d="m56.62,69h-.18l.96-1.61h.17l-.96,1.61Z" style="stroke-width:0px;"/><path d="m57.82,69h-.18l.96-1.61h.17l-.96,1.61Z" style="stroke-width:0px;"/><path d="m59.02,69h-.18l.96-1.61h.17l-.96,1.61Z" style="stroke-width:0px;"/><path d="m60.22,69h-.18l.96-1.61h.17l-.96,1.61Z" style="stroke-width:0px;"/><path d="m61.42,69h-.18l.96-1.61h.17l-.96,1.61Z" style="stroke-width:0px;"/><path d="m62.62,69h-.18l.96-1.61h.17l-.96,1.61Z" style="stroke-width:0px;"/><path d="m63.82,69h-.18l.96-1.61h.17l-.96,1.61Z" style="stroke-width:0px;"/><path d="m65.02,69h-.18l.96-1.61h.17l-.96,1.61Z" style="stroke-width:0px;"/><path d="m66.22,69h-.18l.96-1.61h.17l-.96,1.61Z" style="stroke-width:0px;"/><path d="m67.42,69h-.18l.96-1.61h.17l-.96,1.61Z" style="stroke-width:0px;"/><path d="m68.62,69h-.18l.96-1.61h.17l-.96,1.61Z" style="stroke-width:0px;"/><path d="m69.82,69h-.18l.96-1.61h.17l-.96,1.61Z" style="stroke-width:0px;"/><path d="m71.02,69h-.18l.96-1.61h.17l-.96,1.61Z" style="stroke-width:0px;"/><path d="m72.22,69h-.18l.96-1.61h.17l-.96,1.61Z" style="stroke-width:0px;"/><path d="m73.42,69h-.18l.96-1.61h.17l-.96,1.61Z" style="stroke-width:0px;"/><path d="m74.62,69h-.18l.96-1.61h.17l-.96,1.61Z" style="stroke-width:0px;"/><path d="m75.82,69h-.18l.96-1.61h.17l-.96,1.61Z" style="stroke-width:0px;"/><path d="m77.02,69h-.18l.96-1.61h.17l-.96,1.61Z" style="stroke-width:0px;"/><path d="m82.12,68.31v-.34l-.26.18-.09-.16.3-.15-.3-.15.09-.16.26.18v-.34h.18v.34s.26-.18.26-.18l.09.15-.3.15.3.15-.09.16-.26-.19v.34s-.18,0-.18,0Z" style="stroke-width:0px;"/><path d="m83.02,69h-.18l.96-1.61h.17l-.96,1.61Z" style="stroke-width:0px;"/><path d="m84.22,69h-.18l.96-1.61h.17l-.96,1.61Z" style="stroke-width:0px;"/><path d="m85.42,69h-.18l.96-1.61h.17l-.96,1.61Z" style="stroke-width:0px;"/><path d="m86.62,69h-.18l.96-1.61h.17l-.96,1.61Z" style="stroke-width:0px;"/><path d="m87.83,69h-.18l.96-1.61h.17l-.96,1.61Z" style="stroke-width:0px;"/><path d="m89.03,69h-.18l.96-1.61h.17l-.96,1.61Z" style="stroke-width:0px;"/><path d="m90.23,69h-.18l.96-1.61h.17l-.96,1.61Z" style="stroke-width:0px;"/><path d="m91.72,68.31v-.34l-.26.18-.09-.16.3-.15-.3-.15.09-.16.26.18v-.34h.18v.34s.26-.18.26-.18l.09.15-.3.15.3.15-.09.16-.26-.19v.34s-.18,0-.18,0Z" style="stroke-width:0px;"/><path d="m20.61,71.4h-.18l.96-1.61h.17l-.96,1.61Z" style="stroke-width:0px;"/><path d="m21.81,71.4h-.18l.96-1.61h.17l-.96,1.61Z" style="stroke-width:0px;"/><path d="m23.01,71.4h-.18l.96-1.61h.17l-.96,1.61Z" style="stroke-width:0px;"/><path d="m24.21,71.4h-.18l.96-1.61h.17l-.96,1.61Z" style="stroke-width:0px;"/><path d="m25.42,71.4h-.18l.96-1.61h.17l-.96,1.61Z" style="stroke-width:0px;"/><path d="m26.62,71.4h-.18l.96-1.61h.17l-.96,1.61Z" style="stroke-width:0px;"/><path d="m27.82,71.4h-.18l.96-1.61h.17l-.96,1.61Z" style="stroke-width:0px;"/><path d="m38.62,71.4h-.18l.96-1.61h.17l-.96,1.61Z" style="stroke-width:0px;"/><path d="m39.82,71.4h-.18l.96-1.61h.17l-.96,1.61Z" style="stroke-width:0px;"/><path d="m41.02,71.4h-.18l.96-1.61h.17l-.96,1.61Z" style="stroke-width:0px;"/><path d="m42.22,71.4h-.18l.96-1.61h.17l-.96,1.61Z" style="stroke-width:0px;"/><path d="m43.42,71.4h-.18l.96-1.61h.17l-.96,1.61Z" style="stroke-width:0px;"/><path d="m46.11,70.71v-.34l-.26.18-.09-.16.3-.15-.3-.15.09-.16.26.18v-.34h.18v.34s.26-.18.26-.18l.09.15-.3.15.3.15-.09.16-.26-.19v.34s-.18,0-.18,0Z" style="stroke-width:0px;"/><path d="m47.02,71.4h-.18l.96-1.61h.17l-.96,1.61Z" style="stroke-width:0px;"/><path d="m48.22,71.4h-.18l.96-1.61h.17l-.96,1.61Z" style="stroke-width:0px;"/><path d="m49.42,71.4h-.18l.96-1.61h.17l-.96,1.61Z" style="stroke-width:0px;"/><path d="m50.62,71.4h-.18l.96-1.61h.17l-.96,1.61Z" style="stroke-width:0px;"/><path d="m51.82,71.4h-.18l.96-1.61h.17l-.96,1.61Z" style="stroke-width:0px;"/><path d="m53.02,71.4h-.18l.96-1.61h.17l-.96,1.61Z" style="stroke-width:0px;"/><path d="m54.22,71.4h-.18l.96-1.61h.17l-.96,1.61Z" style="stroke-width:0px;"/><path d="m55.42,71.4h-.18l.96-1.61h.17l-.96,1.61Z" style="stroke-width:0px;"/><path d="m56.62,71.4h-.18l.96-1.61h.17l-.96,1.61Z" style="stroke-width:0px;"/><path d="m57.82,71.4h-.18l.96-1.61h.17l-.96,1.61Z" style="stroke-width:0px;"/><path d="m59.02,71.4h-.18l.96-1.61h.17l-.96,1.61Z" style="stroke-width:0px;"/><path d="m60.22,71.4h-.18l.96-1.61h.17l-.96,1.61Z" style="stroke-width:0px;"/><path d="m61.42,71.4h-.18l.96-1.61h.17l-.96,1.61Z" style="stroke-width:0px;"/><path d="m62.62,71.4h-.18l.96-1.61h.17l-.96,1.61Z" style="stroke-width:0px;"/><path d="m63.82,71.4h-.18l.96-1.61h.17l-.96,1.61Z" style="stroke-width:0px;"/><path d="m65.02,71.4h-.18l.96-1.61h.17l-.96,1.61Z" style="stroke-width:0px;"/><path d="m66.22,71.4h-.18l.96-1.61h.17l-.96,1.61Z" style="stroke-width:0px;"/><path d="m67.42,71.4h-.18l.96-1.61h.17l-.96,1.61Z" style="stroke-width:0px;"/><path d="m68.62,71.4h-.18l.96-1.61h.17l-.96,1.61Z" style="stroke-width:0px;"/><path d="m69.82,71.4h-.18l.96-1.61h.17l-.96,1.61Z" style="stroke-width:0px;"/><path d="m71.02,71.4h-.18l.96-1.61h.17l-.96,1.61Z" style="stroke-width:0px;"/><path d="m72.22,71.4h-.18l.96-1.61h.17l-.96,1.61Z" style="stroke-width:0px;"/><path d="m73.42,71.4h-.18l.96-1.61h.17l-.96,1.61Z" style="stroke-width:0px;"/><path d="m75.82,71.4h-.18l.96-1.61h.17l-.96,1.61Z" style="stroke-width:0px;"/><path d="m77.02,71.4h-.18l.96-1.61h.17l-.96,1.61Z" style="stroke-width:0px;"/><path d="m78.22,71.4h-.18l.96-1.61h.17l-.96,1.61Z" style="stroke-width:0px;"/><path d="m79.42,71.4h-.18l.96-1.61h.17l-.96,1.61Z" style="stroke-width:0px;"/><path d="m80.62,71.4h-.18l.96-1.61h.17l-.96,1.61Z" style="stroke-width:0px;"/><path d="m91.72,70.71v-.34l-.26.18-.09-.16.3-.15-.3-.15.09-.16.26.18v-.34h.18v.34s.26-.18.26-.18l.09.15-.3.15.3.15-.09.16-.26-.19v.34s-.18,0-.18,0Z" style="stroke-width:0px;"/><path d="m92.63,71.4h-.18l.96-1.61h.17l-.96,1.61Z" style="stroke-width:0px;"/><path d="m93.83,71.4h-.18l.96-1.61h.17l-.96,1.61Z" style="stroke-width:0px;"/><path d="m95.03,71.4h-.18l.96-1.61h.17l-.96,1.61Z" style="stroke-width:0px;"/><path d="m96.23,71.4h-.18l.96-1.61h.17l-.96,1.61Z" style="stroke-width:0px;"/><path d="m97.43,71.4h-.18l.96-1.61h.17l-.96,1.61Z" style="stroke-width:0px;"/><path d="m98.63,71.4h-.18l.96-1.61h.17l-.96,1.61Z" style="stroke-width:0px;"/><path d="m13.41,73.8h-.18l.96-1.61h.17l-.96,1.61Z" style="stroke-width:0px;"/><path d="m14.61,73.8h-.18l.96-1.61h.17l-.96,1.61Z" style="stroke-width:0px;"/><path d="m15.81,73.8h-.18l.96-1.61h.17l-.96,1.61Z" style="stroke-width:0px;"/><path d="m17.01,73.8h-.18l.96-1.61h.17l-.96,1.61Z" style="stroke-width:0px;"/><path d="m18.51,73.11v-.34l-.26.18-.09-.16.3-.15-.3-.15.09-.16.26.18v-.34h.18v.34s.26-.18.26-.18l.09.15-.3.15.3.15-.09.16-.26-.19v.34s-.18,0-.18,0Z" style="stroke-width:0px;"/><path d="m34.11,73.11v-.34l-.26.18-.09-.16.3-.15-.3-.15.09-.16.26.18v-.34h.18v.34s.26-.18.26-.18l.09.15-.3.15.3.15-.09.16-.26-.19v.34s-.18,0-.18,0Z" style="stroke-width:0px;"/><path d="m35.02,73.8h-.18l.96-1.61h.17l-.96,1.61Z" style="stroke-width:0px;"/><path d="m36.22,73.8h-.18l.96-1.61h.17l-.96,1.61Z" style="stroke-width:0px;"/><path d="m37.42,73.8h-.18l.96-1.61h.17l-.96,1.61Z" style="stroke-width:0px;"/><path d="m38.62,73.8h-.18l.96-1.61h.17l-.96,1.61Z" style="stroke-width:0px;"/><path d="m43.42,73.8h-.18l.96-1.61h.17l-.96,1.61Z" style="stroke-width:0px;"/><path d="m44.62,73.8h-.18l.96-1.61h.17l-.96,1.61Z" style="stroke-width:0px;"/><path d="m45.82,73.8h-.18l.96-1.61h.17l-.96,1.61Z" style="stroke-width:0px;"/><path d="m47.02,73.8h-.18l.96-1.61h.17l-.96,1.61Z" style="stroke-width:0px;"/><path d="m49.42,73.8h-.18l.96-1.61h.17l-.96,1.61Z" style="stroke-width:0px;"/><path d="m50.62,73.8h-.18l.96-1.61h.17l-.96,1.61Z" style="stroke-width:0px;"/><path d="m51.82,73.8h-.18l.96-1.61h.17l-.96,1.61Z" style="stroke-width:0px;"/><path d="m53.02,73.8h-.18l.96-1.61h.17l-.96,1.61Z" style="stroke-width:0px;"/><path d="m54.22,73.8h-.18l.96-1.61h.17l-.96,1.61Z" style="stroke-width:0px;"/><path d="m55.42,73.8h-.18l.96-1.61h.17l-.96,1.61Z" style="stroke-width:0px;"/><path d="m56.62,73.8h-.18l.96-1.61h.17l-.96,1.61Z" style="stroke-width:0px;"/><path d="m57.82,73.8h-.18l.96-1.61h.17l-.96,1.61Z" style="stroke-width:0px;"/><path d="m59.02,73.8h-.18l.96-1.61h.17l-.96,1.61Z" style="stroke-width:0px;"/><path d="m60.22,73.8h-.18l.96-1.61h.17l-.96,1.61Z" style="stroke-width:0px;"/><path d="m61.42,73.8h-.18l.96-1.61h.17l-.96,1.61Z" style="stroke-width:0px;"/><path d="m62.62,73.8h-.18l.96-1.61h.17l-.96,1.61Z" style="stroke-width:0px;"/><path d="m63.82,73.8h-.18l.96-1.61h.17l-.96,1.61Z" style="stroke-width:0px;"/><path d="m65.02,73.8h-.18l.96-1.61h.17l-.96,1.61Z" style="stroke-width:0px;"/><path d="m66.22,73.8h-.18l.96-1.61h.17l-.96,1.61Z" style="stroke-width:0px;"/><path d="m67.42,73.8h-.18l.96-1.61h.17l-.96,1.61Z" style="stroke-width:0px;"/><path d="m68.62,73.8h-.18l.96-1.61h.17l-.96,1.61Z" style="stroke-width:0px;"/><path d="m69.82,73.8h-.18l.96-1.61h.17l-.96,1.61Z" style="stroke-width:0px;"/><path d="m72.22,73.8h-.18l.96-1.61h.17l-.96,1.61Z" style="stroke-width:0px;"/><path d="m73.42,73.8h-.18l.96-1.61h.17l-.96,1.61Z" style="stroke-width:0px;"/><path d="m74.62,73.8h-.18l.96-1.61h.17l-.96,1.61Z" style="stroke-width:0px;"/><path d="m75.82,73.8h-.18l.96-1.61h.17l-.96,1.61Z" style="stroke-width:0px;"/><path d="m80.62,73.8h-.18l.96-1.61h.17l-.96,1.61Z" style="stroke-width:0px;"/><path d="m81.82,73.8h-.18l.96-1.61h.17l-.96,1.61Z" style="stroke-width:0px;"/><path d="m83.02,73.8h-.18l.96-1.61h.17l-.96,1.61Z" style="stroke-width:0px;"/><path d="m84.22,73.8h-.18l.96-1.61h.17l-.96,1.61Z" style="stroke-width:0px;"/><path d="m85.72,73.11v-.34l-.26.18-.09-.16.3-.15-.3-.15.09-.16.26.18v-.34h.18v.34s.26-.18.26-.18l.09.15-.3.15.3.15-.09.16-.26-.19v.34s-.18,0-.18,0Z" style="stroke-width:0px;"/><path d="m101.32,73.11v-.34l-.26.18-.09-.16.3-.15-.3-.15.09-.16.26.18v-.34h.18v.34s.26-.18.26-.18l.09.15-.3.15.3.15-.09.16-.26-.19v.34s-.18,0-.18,0Z" style="stroke-width:0px;"/><path d="m102.23,73.8h-.18l.96-1.61h.17l-.96,1.61Z" style="stroke-width:0px;"/><path d="m103.43,73.8h-.18l.96-1.61h.17l-.96,1.61Z" style="stroke-width:0px;"/><path d="m104.63,73.8h-.18l.96-1.61h.17l-.96,1.61Z" style="stroke-width:0px;"/><path d="m105.83,73.8h-.18l.96-1.61h.17l-.96,1.61Z" style="stroke-width:0px;"/><path d="m6.21,76.2h-.18l.96-1.61h.17l-.96,1.61Z" style="stroke-width:0px;"/><path d="m7.41,76.2h-.18l.96-1.61h.17l-.96,1.61Z" style="stroke-width:0px;"/><path d="m8.91,75.51v-.34l-.26.18-.09-.16.3-.15-.3-.15.09-.16.26.18v-.34h.18v.34s.26-.18.26-.18l.09.15-.3.15.3.15-.09.16-.26-.19v.34s-.18,0-.18,0Z" style="stroke-width:0px;"/><path d="m30.22,76.2h-.18l.96-1.61h.17l-.96,1.61Z" style="stroke-width:0px;"/><path d="m31.42,76.2h-.18l.96-1.61h.17l-.96,1.61Z" style="stroke-width:0px;"/><path d="m32.62,76.2h-.18l.96-1.61h.17l-.96,1.61Z" style="stroke-width:0px;"/><path d="m33.82,76.2h-.18l.96-1.61h.17l-.96,1.61Z" style="stroke-width:0px;"/><path d="m41.02,76.2h-.18l.96-1.61h.17l-.96,1.61Z" style="stroke-width:0px;"/><path d="m42.22,76.2h-.18l.96-1.61h.17l-.96,1.61Z" style="stroke-width:0px;"/><path d="m43.42,76.2h-.18l.96-1.61h.17l-.96,1.61Z" style="stroke-width:0px;"/><path d="m44.62,76.2h-.18l.96-1.61h.17l-.96,1.61Z" style="stroke-width:0px;"/><path d="m48.22,76.2h-.18l.96-1.61h.17l-.96,1.61Z" style="stroke-width:0px;"/><path d="m49.42,76.2h-.18l.96-1.61h.17l-.96,1.61Z" style="stroke-width:0px;"/><path d="m50.62,76.2h-.18l.96-1.61h.17l-.96,1.61Z" style="stroke-width:0px;"/><path d="m53.02,76.2h-.18l.96-1.61h.17l-.96,1.61Z" style="stroke-width:0px;"/><path d="m54.22,76.2h-.18l.96-1.61h.17l-.96,1.61Z" style="stroke-width:0px;"/><path d="m55.42,76.2h-.18l.96-1.61h.17l-.96,1.61Z" style="stroke-width:0px;"/><path d="m56.62,76.2h-.18l.96-1.61h.17l-.96,1.61Z" style="stroke-width:0px;"/><path d="m57.82,76.2h-.18l.96-1.61h.17l-.96,1.61Z" style="stroke-width:0px;"/><path d="m59.02,76.2h-.18l.96-1.61h.17l-.96,1.61Z" style="stroke-width:0px;"/><path d="m60.22,76.2h-.18l.96-1.61h.17l-.96,1.61Z" style="stroke-width:0px;"/><path d="m61.42,76.2h-.18l.96-1.61h.17l-.96,1.61Z" style="stroke-width:0px;"/><path d="m62.62,76.2h-.18l.96-1.61h.17l-.96,1.61Z" style="stroke-width:0px;"/><path d="m63.82,76.2h-.18l.96-1.61h.17l-.96,1.61Z" style="stroke-width:0px;"/><path d="m65.02,76.2h-.18l.96-1.61h.17l-.96,1.61Z" style="stroke-width:0px;"/><path d="m66.22,76.2h-.18l.96-1.61h.17l-.96,1.61Z" style="stroke-width:0px;"/><path d="m68.62,76.2h-.18l.96-1.61h.17l-.96,1.61Z" style="stroke-width:0px;"/><path d="m69.82,76.2h-.18l.96-1.61h.17l-.96,1.61Z" style="stroke-width:0px;"/><path d="m71.02,76.2h-.18l.96-1.61h.17l-.96,1.61Z" style="stroke-width:0px;"/><path d="m74.62,76.2h-.18l.96-1.61h.17l-.96,1.61Z" style="stroke-width:0px;"/><path d="m75.82,76.2h-.18l.96-1.61h.17l-.96,1.61Z" style="stroke-width:0px;"/><path d="m77.02,76.2h-.18l.96-1.61h.17l-.96,1.61Z" style="stroke-width:0px;"/><path d="m78.22,76.2h-.18l.96-1.61h.17l-.96,1.61Z" style="stroke-width:0px;"/><path d="m85.42,76.2h-.18l.96-1.61h.17l-.96,1.61Z" style="stroke-width:0px;"/><path d="m86.62,76.2h-.18l.96-1.61h.17l-.96,1.61Z" style="stroke-width:0px;"/><path d="m87.83,76.2h-.18l.96-1.61h.17l-.96,1.61Z" style="stroke-width:0px;"/><path d="m89.03,76.2h-.18l.96-1.61h.17l-.96,1.61Z" style="stroke-width:0px;"/><path d="m110.92,75.51v-.34l-.26.18-.09-.16.3-.15-.3-.15.09-.16.26.18v-.34h.18v.34s.26-.18.26-.18l.09.15-.3.15.3.15-.09.16-.26-.19v.34s-.18,0-.18,0Z" style="stroke-width:0px;"/><path d="m111.83,76.2h-.18l.96-1.61h.17l-.96,1.61Z" style="stroke-width:0px;"/><path d="m113.03,76.2h-.18l.96-1.61h.17l-.96,1.61Z" style="stroke-width:0px;"/><path d="m26.62,78.6h-.18l.96-1.61h.17l-.96,1.61Z" style="stroke-width:0px;"/><path d="m27.82,78.6h-.18l.96-1.61h.17l-.96,1.61Z" style="stroke-width:0px;"/><path d="m29.02,78.6h-.18l.96-1.61h.17l-.96,1.61Z" style="stroke-width:0px;"/><path d="m38.62,78.6h-.18l.96-1.61h.17l-.96,1.61Z" style="stroke-width:0px;"/><path d="m39.82,78.6h-.18l.96-1.61h.17l-.96,1.61Z" style="stroke-width:0px;"/><path d="m41.02,78.6h-.18l.96-1.61h.17l-.96,1.61Z" style="stroke-width:0px;"/><path d="m42.51,77.91v-.34l-.26.18-.09-.16.3-.15-.3-.15.09-.16.26.18v-.34h.18v.34s.26-.18.26-.18l.09.15-.3.15.3.15-.09.16-.26-.19v.34s-.18,0-.18,0Z" style="stroke-width:0px;"/><path d="m45.82,78.6h-.18l.96-1.61h.17l-.96,1.61Z" style="stroke-width:0px;"/><path d="m47.02,78.6h-.18l.96-1.61h.17l-.96,1.61Z" style="stroke-width:0px;"/><path d="m48.22,78.6h-.18l.96-1.61h.17l-.96,1.61Z" style="stroke-width:0px;"/><path d="m49.71,77.91v-.34l-.26.18-.09-.16.3-.15-.3-.15.09-.16.26.18v-.34h.18v.34s.26-.18.26-.18l.09.15-.3.15.3.15-.09.16-.26-.19v.34s-.18,0-.18,0Z" style="stroke-width:0px;"/><path d="m51.82,78.6h-.18l.96-1.61h.17l-.96,1.61Z" style="stroke-width:0px;"/><path d="m53.02,78.6h-.18l.96-1.61h.17l-.96,1.61Z" style="stroke-width:0px;"/><path d="m54.22,78.6h-.18l.96-1.61h.17l-.96,1.61Z" style="stroke-width:0px;"/><path d="m56.62,78.6h-.18l.96-1.61h.17l-.96,1.61Z" style="stroke-width:0px;"/><path d="m57.82,78.6h-.18l.96-1.61h.17l-.96,1.61Z" style="stroke-width:0px;"/><path d="m59.02,78.6h-.18l.96-1.61h.17l-.96,1.61Z" style="stroke-width:0px;"/><path d="m60.22,78.6h-.18l.96-1.61h.17l-.96,1.61Z" style="stroke-width:0px;"/><path d="m61.42,78.6h-.18l.96-1.61h.17l-.96,1.61Z" style="stroke-width:0px;"/><path d="m62.62,78.6h-.18l.96-1.61h.17l-.96,1.61Z" style="stroke-width:0px;"/><path d="m65.02,78.6h-.18l.96-1.61h.17l-.96,1.61Z" style="stroke-width:0px;"/><path d="m66.22,78.6h-.18l.96-1.61h.17l-.96,1.61Z" style="stroke-width:0px;"/><path d="m67.42,78.6h-.18l.96-1.61h.17l-.96,1.61Z" style="stroke-width:0px;"/><path d="m71.02,78.6h-.18l.96-1.61h.17l-.96,1.61Z" style="stroke-width:0px;"/><path d="m72.22,78.6h-.18l.96-1.61h.17l-.96,1.61Z" style="stroke-width:0px;"/><path d="m73.42,78.6h-.18l.96-1.61h.17l-.96,1.61Z" style="stroke-width:0px;"/><path d="m78.22,78.6h-.18l.96-1.61h.17l-.96,1.61Z" style="stroke-width:0px;"/><path d="m79.42,78.6h-.18l.96-1.61h.17l-.96,1.61Z" style="stroke-width:0px;"/><path d="m80.62,78.6h-.18l.96-1.61h.17l-.96,1.61Z" style="stroke-width:0px;"/><path d="m90.23,78.6h-.18l.96-1.61h.17l-.96,1.61Z" style="stroke-width:0px;"/><path d="m91.43,78.6h-.18l.96-1.61h.17l-.96,1.61Z" style="stroke-width:0px;"/><path d="m92.63,78.6h-.18l.96-1.61h.17l-.96,1.61Z" style="stroke-width:0px;"/><path d="m94.12,77.91v-.34l-.26.18-.09-.16.3-.15-.3-.15.09-.16.26.18v-.34h.18v.34s.26-.18.26-.18l.09.15-.3.15.3.15-.09.16-.26-.19v.34s-.18,0-.18,0Z" style="stroke-width:0px;"/><path d="m21.81,81h-.18l.96-1.61h.17l-.96,1.61Z" style="stroke-width:0px;"/><path d="m23.01,81h-.18l.96-1.61h.17l-.96,1.61Z" style="stroke-width:0px;"/><path d="m24.21,81h-.18l.96-1.61h.17l-.96,1.61Z" style="stroke-width:0px;"/><path d="m36.22,81h-.18l.96-1.61h.17l-.96,1.61Z" style="stroke-width:0px;"/><path d="m37.42,81h-.18l.96-1.61h.17l-.96,1.61Z" style="stroke-width:0px;"/><path d="m38.62,81h-.18l.96-1.61h.17l-.96,1.61Z" style="stroke-width:0px;"/><path d="m44.62,81h-.18l.96-1.61h.17l-.96,1.61Z" style="stroke-width:0px;"/><path d="m45.82,81h-.18l.96-1.61h.17l-.96,1.61Z" style="stroke-width:0px;"/><path d="m47.02,81h-.18l.96-1.61h.17l-.96,1.61Z" style="stroke-width:0px;"/><path d="m50.62,81h-.18l.96-1.61h.17l-.96,1.61Z" style="stroke-width:0px;"/><path d="m51.82,81h-.18l.96-1.61h.17l-.96,1.61Z" style="stroke-width:0px;"/><path d="m53.02,81h-.18l.96-1.61h.17l-.96,1.61Z" style="stroke-width:0px;"/><path d="m56.62,81h-.18l.96-1.61h.17l-.96,1.61Z" style="stroke-width:0px;"/><path d="m57.82,81h-.18l.96-1.61h.17l-.96,1.61Z" style="stroke-width:0px;"/><path d="m61.42,81h-.18l.96-1.61h.17l-.96,1.61Z" style="stroke-width:0px;"/><path d="m62.62,81h-.18l.96-1.61h.17l-.96,1.61Z" style="stroke-width:0px;"/><path d="m66.22,81h-.18l.96-1.61h.17l-.96,1.61Z" style="stroke-width:0px;"/><path d="m67.42,81h-.18l.96-1.61h.17l-.96,1.61Z" style="stroke-width:0px;"/><path d="m68.62,81h-.18l.96-1.61h.17l-.96,1.61Z" style="stroke-width:0px;"/><path d="m72.22,81h-.18l.96-1.61h.17l-.96,1.61Z" style="stroke-width:0px;"/><path d="m73.42,81h-.18l.96-1.61h.17l-.96,1.61Z" style="stroke-width:0px;"/><path d="m74.62,81h-.18l.96-1.61h.17l-.96,1.61Z" style="stroke-width:0px;"/><path d="m80.62,81h-.18l.96-1.61h.17l-.96,1.61Z" style="stroke-width:0px;"/><path d="m81.82,81h-.18l.96-1.61h.17l-.96,1.61Z" style="stroke-width:0px;"/><path d="m83.02,81h-.18l.96-1.61h.17l-.96,1.61Z" style="stroke-width:0px;"/><path d="m95.03,81h-.18l.96-1.61h.17l-.96,1.61Z" style="stroke-width:0px;"/><path d="m96.23,81h-.18l.96-1.61h.17l-.96,1.61Z" style="stroke-width:0px;"/><path d="m97.43,81h-.18l.96-1.61h.17l-.96,1.61Z" style="stroke-width:0px;"/><path d="m18.21,83.4h-.18l.96-1.61h.17l-.96,1.61Z" style="stroke-width:0px;"/><path d="m19.41,83.4h-.18l.96-1.61h.17l-.96,1.61Z" style="stroke-width:0px;"/><path d="m33.82,83.4h-.18l.96-1.61h.17l-.96,1.61Z" style="stroke-width:0px;"/><path d="m35.02,83.4h-.18l.96-1.61h.17l-.96,1.61Z" style="stroke-width:0px;"/><path d="m36.22,83.4h-.18l.96-1.61h.17l-.96,1.61Z" style="stroke-width:0px;"/><path d="m43.42,83.4h-.18l.96-1.61h.17l-.96,1.61Z" style="stroke-width:0px;"/><path d="m44.62,83.4h-.18l.96-1.61h.17l-.96,1.61Z" style="stroke-width:0px;"/><path d="m46.11,82.71v-.34l-.26.18-.09-.16.3-.15-.3-.15.09-.16.26.18v-.34h.18v.34s.26-.18.26-.18l.09.15-.3.15.3.15-.09.16-.26-.19v.34s-.18,0-.18,0Z" style="stroke-width:0px;"/><path d="m50.62,83.4h-.18l.96-1.61h.17l-.96,1.61Z" style="stroke-width:0px;"/><path d="m51.82,83.4h-.18l.96-1.61h.17l-.96,1.61Z" style="stroke-width:0px;"/><path d="m55.42,83.4h-.18l.96-1.61h.17l-.96,1.61Z" style="stroke-width:0px;"/><path d="m56.62,83.4h-.18l.96-1.61h.17l-.96,1.61Z" style="stroke-width:0px;"/><path d="m57.82,83.4h-.18l.96-1.61h.17l-.96,1.61Z" style="stroke-width:0px;"/><path d="m61.42,83.4h-.18l.96-1.61h.17l-.96,1.61Z" style="stroke-width:0px;"/><path d="m62.62,83.4h-.18l.96-1.61h.17l-.96,1.61Z" style="stroke-width:0px;"/><path d="m63.82,83.4h-.18l.96-1.61h.17l-.96,1.61Z" style="stroke-width:0px;"/><path d="m67.42,83.4h-.18l.96-1.61h.17l-.96,1.61Z" style="stroke-width:0px;"/><path d="m68.62,83.4h-.18l.96-1.61h.17l-.96,1.61Z" style="stroke-width:0px;"/><path d="m70.12,82.71v-.34l-.26.18-.09-.16.3-.15-.3-.15.09-.16.26.18v-.34h.18v.34s.26-.18.26-.18l.09.15-.3.15.3.15-.09.16-.26-.19v.34s-.18,0-.18,0Z" style="stroke-width:0px;"/><path d="m74.62,83.4h-.18l.96-1.61h.17l-.96,1.61Z" style="stroke-width:0px;"/><path d="m75.82,83.4h-.18l.96-1.61h.17l-.96,1.61Z" style="stroke-width:0px;"/><path d="m83.02,83.4h-.18l.96-1.61h.17l-.96,1.61Z" style="stroke-width:0px;"/><path d="m84.22,83.4h-.18l.96-1.61h.17l-.96,1.61Z" style="stroke-width:0px;"/><path d="m85.42,83.4h-.18l.96-1.61h.17l-.96,1.61Z" style="stroke-width:0px;"/><path d="m99.83,83.4h-.18l.96-1.61h.17l-.96,1.61Z" style="stroke-width:0px;"/><path d="m101.03,83.4h-.18l.96-1.61h.17l-.96,1.61Z" style="stroke-width:0px;"/><path d="m102.52,82.71v-.34l-.26.18-.09-.16.3-.15-.3-.15.09-.16.26.18v-.34h.18v.34s.26-.18.26-.18l.09.15-.3.15.3.15-.09.16-.26-.19v.34s-.18,0-.18,0Z" style="stroke-width:0px;"/><path d="m13.41,85.8h-.18l.96-1.61h.17l-.96,1.61Z" style="stroke-width:0px;"/><path d="m14.61,85.8h-.18l.96-1.61h.17l-.96,1.61Z" style="stroke-width:0px;"/><path d="m31.42,85.8h-.18l.96-1.61h.17l-.96,1.61Z" style="stroke-width:0px;"/><path d="m32.62,85.8h-.18l.96-1.61h.17l-.96,1.61Z" style="stroke-width:0px;"/><path d="m41.02,85.8h-.18l.96-1.61h.17l-.96,1.61Z" style="stroke-width:0px;"/><path d="m42.22,85.8h-.18l.96-1.61h.17l-.96,1.61Z" style="stroke-width:0px;"/><path d="m43.42,85.8h-.18l.96-1.61h.17l-.96,1.61Z" style="stroke-width:0px;"/><path d="m49.42,85.8h-.18l.96-1.61h.17l-.96,1.61Z" style="stroke-width:0px;"/><path d="m50.62,85.8h-.18l.96-1.61h.17l-.96,1.61Z" style="stroke-width:0px;"/><path d="m55.42,85.8h-.18l.96-1.61h.17l-.96,1.61Z" style="stroke-width:0px;"/><path d="m56.62,85.8h-.18l.96-1.61h.17l-.96,1.61Z" style="stroke-width:0px;"/><path d="m57.82,85.8h-.18l.96-1.61h.17l-.96,1.61Z" style="stroke-width:0px;"/><path d="m61.42,85.8h-.18l.96-1.61h.17l-.96,1.61Z" style="stroke-width:0px;"/><path d="m62.62,85.8h-.18l.96-1.61h.17l-.96,1.61Z" style="stroke-width:0px;"/><path d="m63.82,85.8h-.18l.96-1.61h.17l-.96,1.61Z" style="stroke-width:0px;"/><path d="m68.62,85.8h-.18l.96-1.61h.17l-.96,1.61Z" style="stroke-width:0px;"/><path d="m69.82,85.8h-.18l.96-1.61h.17l-.96,1.61Z" style="stroke-width:0px;"/><path d="m75.82,85.8h-.18l.96-1.61h.17l-.96,1.61Z" style="stroke-width:0px;"/><path d="m77.02,85.8h-.18l.96-1.61h.17l-.96,1.61Z" style="stroke-width:0px;"/><path d="m78.22,85.8h-.18l.96-1.61h.17l-.96,1.61Z" style="stroke-width:0px;"/><path d="m86.62,85.8h-.18l.96-1.61h.17l-.96,1.61Z" style="stroke-width:0px;"/><path d="m87.83,85.8h-.18l.96-1.61h.17l-.96,1.61Z" style="stroke-width:0px;"/><path d="m89.32,85.11v-.34l-.26.18-.09-.16.3-.15-.3-.15.09-.16.26.18v-.34h.18v.34s.26-.18.26-.18l.09.15-.3.15.3.15-.09.16-.26-.19v.34s-.18,0-.18,0Z" style="stroke-width:0px;"/><path d="m104.63,85.8h-.18l.96-1.61h.17l-.96,1.61Z" style="stroke-width:0px;"/><path d="m105.83,85.8h-.18l.96-1.61h.17l-.96,1.61Z" style="stroke-width:0px;"/><path d="m28.11,87.51v-.34l-.26.18-.09-.16.3-.15-.3-.15.09-.16.26.18v-.34h.18v.34s.26-.18.26-.18l.09.15-.3.15.3.15-.09.16-.26-.19v.34s-.18,0-.18,0Z" style="stroke-width:0px;"/><path d="m29.02,88.2h-.18l.96-1.61h.17l-.96,1.61Z" style="stroke-width:0px;"/><path d="m30.22,88.2h-.18l.96-1.61h.17l-.96,1.61Z" style="stroke-width:0px;"/><path d="m39.82,88.2h-.18l.96-1.61h.17l-.96,1.61Z" style="stroke-width:0px;"/><path d="m41.02,88.2h-.18l.96-1.61h.17l-.96,1.61Z" style="stroke-width:0px;"/><path d="m42.51,87.51v-.34l-.26.18-.09-.16.3-.15-.3-.15.09-.16.26.18v-.34h.18v.34s.26-.18.26-.18l.09.15-.3.15.3.15-.09.16-.26-.19v.34s-.18,0-.18,0Z" style="stroke-width:0px;"/><path d="m48.22,88.2h-.18l.96-1.61h.17l-.96,1.61Z" style="stroke-width:0px;"/><path d="m49.42,88.2h-.18l.96-1.61h.17l-.96,1.61Z" style="stroke-width:0px;"/><path d="m50.92,87.51v-.34l-.26.18-.09-.16.3-.15-.3-.15.09-.16.26.18v-.34h.18v.34s.26-.18.26-.18l.09.15-.3.15.3.15-.09.16-.26-.19v.34s-.18,0-.18,0Z" style="stroke-width:0px;"/><path d="m55.42,88.2h-.18l.96-1.61h.17l-.96,1.61Z" style="stroke-width:0px;"/><path d="m56.62,88.2h-.18l.96-1.61h.17l-.96,1.61Z" style="stroke-width:0px;"/><path d="m62.62,88.2h-.18l.96-1.61h.17l-.96,1.61Z" style="stroke-width:0px;"/><path d="m63.82,88.2h-.18l.96-1.61h.17l-.96,1.61Z" style="stroke-width:0px;"/><path d="m69.82,88.2h-.18l.96-1.61h.17l-.96,1.61Z" style="stroke-width:0px;"/><path d="m71.02,88.2h-.18l.96-1.61h.17l-.96,1.61Z" style="stroke-width:0px;"/><path d="m78.22,88.2h-.18l.96-1.61h.17l-.96,1.61Z" style="stroke-width:0px;"/><path d="m79.42,88.2h-.18l.96-1.61h.17l-.96,1.61Z" style="stroke-width:0px;"/><path d="m89.03,88.2h-.18l.96-1.61h.17l-.96,1.61Z" style="stroke-width:0px;"/><path d="m90.23,88.2h-.18l.96-1.61h.17l-.96,1.61Z" style="stroke-width:0px;"/><path d="m91.43,88.2h-.18l.96-1.61h.17l-.96,1.61Z" style="stroke-width:0px;"/><path d="m25.42,90.6h-.18l.96-1.61h.17l-.96,1.61Z" style="stroke-width:0px;"/><path d="m26.62,90.6h-.18l.96-1.61h.17l-.96,1.61Z" style="stroke-width:0px;"/><path d="m38.62,90.6h-.18l.96-1.61h.17l-.96,1.61Z" style="stroke-width:0px;"/><path d="m39.82,90.6h-.18l.96-1.61h.17l-.96,1.61Z" style="stroke-width:0px;"/><path d="m47.02,90.6h-.18l.96-1.61h.17l-.96,1.61Z" style="stroke-width:0px;"/><path d="m48.22,90.6h-.18l.96-1.61h.17l-.96,1.61Z" style="stroke-width:0px;"/><path d="m49.42,90.6h-.18l.96-1.61h.17l-.96,1.61Z" style="stroke-width:0px;"/><path d="m55.42,90.6h-.18l.96-1.61h.17l-.96,1.61Z" style="stroke-width:0px;"/><path d="m56.62,90.6h-.18l.96-1.61h.17l-.96,1.61Z" style="stroke-width:0px;"/><path d="m62.62,90.6h-.18l.96-1.61h.17l-.96,1.61Z" style="stroke-width:0px;"/><path d="m63.82,90.6h-.18l.96-1.61h.17l-.96,1.61Z" style="stroke-width:0px;"/><path d="m69.82,90.6h-.18l.96-1.61h.17l-.96,1.61Z" style="stroke-width:0px;"/><path d="m71.02,90.6h-.18l.96-1.61h.17l-.96,1.61Z" style="stroke-width:0px;"/><path d="m72.22,90.6h-.18l.96-1.61h.17l-.96,1.61Z" style="stroke-width:0px;"/><path d="m79.42,90.6h-.18l.96-1.61h.17l-.96,1.61Z" style="stroke-width:0px;"/><path d="m80.62,90.6h-.18l.96-1.61h.17l-.96,1.61Z" style="stroke-width:0px;"/><path d="m92.63,90.6h-.18l.96-1.61h.17l-.96,1.61Z" style="stroke-width:0px;"/><path d="m93.83,90.6h-.18l.96-1.61h.17l-.96,1.61Z" style="stroke-width:0px;"/><path d="m23.01,93h-.18l.96-1.61h.17l-.96,1.61Z" style="stroke-width:0px;"/><path d="m24.21,93h-.18l.96-1.61h.17l-.96,1.61Z" style="stroke-width:0px;"/><path d="m36.22,93h-.18l.96-1.61h.17l-.96,1.61Z" style="stroke-width:0px;"/><path d="m37.42,93h-.18l.96-1.61h.17l-.96,1.61Z" style="stroke-width:0px;"/><path d="m38.91,92.31v-.34l-.26.18-.09-.16.3-.15-.3-.15.09-.16.26.18v-.34h.18v.34s.26-.18.26-.18l.09.15-.3.15.3.15-.09.16-.26-.19v.34s-.18,0-.18,0Z" style="stroke-width:0px;"/><path d="m47.02,93h-.18l.96-1.61h.17l-.96,1.61Z" style="stroke-width:0px;"/><path d="m48.22,93h-.18l.96-1.61h.17l-.96,1.61Z" style="stroke-width:0px;"/><path d="m55.42,93h-.18l.96-1.61h.17l-.96,1.61Z" style="stroke-width:0px;"/><path d="m56.62,93h-.18l.96-1.61h.17l-.96,1.61Z" style="stroke-width:0px;"/><path d="m62.62,93h-.18l.96-1.61h.17l-.96,1.61Z" style="stroke-width:0px;"/><path d="m63.82,93h-.18l.96-1.61h.17l-.96,1.61Z" style="stroke-width:0px;"/><path d="m71.02,93h-.18l.96-1.61h.17l-.96,1.61Z" style="stroke-width:0px;"/><path d="m72.22,93h-.18l.96-1.61h.17l-.96,1.61Z" style="stroke-width:0px;"/><path d="m81.82,93h-.18l.96-1.61h.17l-.96,1.61Z" style="stroke-width:0px;"/><path d="m83.02,93h-.18l.96-1.61h.17l-.96,1.61Z" style="stroke-width:0px;"/><path d="m95.03,93h-.18l.96-1.61h.17l-.96,1.61Z" style="stroke-width:0px;"/><path d="m96.23,93h-.18l.96-1.61h.17l-.96,1.61Z" style="stroke-width:0px;"/><path d="m20.61,95.4h-.18l.96-1.61h.17l-.96,1.61Z" style="stroke-width:0px;"/><path d="m21.81,95.4h-.18l.96-1.61h.17l-.96,1.61Z" style="stroke-width:0px;"/><path d="m35.02,95.4h-.18l.96-1.61h.17l-.96,1.61Z" style="stroke-width:0px;"/><path d="m36.22,95.4h-.18l.96-1.61h.17l-.96,1.61Z" style="stroke-width:0px;"/><path d="m45.82,95.4h-.18l.96-1.61h.17l-.96,1.61Z" style="stroke-width:0px;"/><path d="m47.02,95.4h-.18l.96-1.61h.17l-.96,1.61Z" style="stroke-width:0px;"/><path d="m54.52,94.71v-.34l-.26.18-.09-.16.3-.15-.3-.15.09-.16.26.18v-.34h.18v.34s.26-.18.26-.18l.09.15-.3.15.3.15-.09.16-.26-.19v.34s-.18,0-.18,0Z" style="stroke-width:0px;"/><path d="m55.42,95.4h-.18l.96-1.61h.17l-.96,1.61Z" style="stroke-width:0px;"/><path d="m63.82,95.4h-.18l.96-1.61h.17l-.96,1.61Z" style="stroke-width:0px;"/><path d="m65.02,95.4h-.18l.96-1.61h.17l-.96,1.61Z" style="stroke-width:0px;"/><path d="m72.22,95.4h-.18l.96-1.61h.17l-.96,1.61Z" style="stroke-width:0px;"/><path d="m73.42,95.4h-.18l.96-1.61h.17l-.96,1.61Z" style="stroke-width:0px;"/><path d="m83.02,95.4h-.18l.96-1.61h.17l-.96,1.61Z" style="stroke-width:0px;"/><path d="m84.22,95.4h-.18l.96-1.61h.17l-.96,1.61Z" style="stroke-width:0px;"/><path d="m97.72,94.71v-.34l-.26.18-.09-.16.3-.15-.3-.15.09-.16.26.18v-.34h.18v.34s.26-.18.26-.18l.09.15-.3.15.3.15-.09.16-.26-.19v.34s-.18,0-.18,0Z" style="stroke-width:0px;"/><path d="m98.63,95.4h-.18l.96-1.61h.17l-.96,1.61Z" style="stroke-width:0px;"/><path d="m18.51,97.11v-.34l-.26.18-.09-.16.3-.15-.3-.15.09-.16.26.18v-.34h.18v.34s.26-.18.26-.18l.09.15-.3.15.3.15-.09.16-.26-.19v.34s-.18,0-.18,0Z" style="stroke-width:0px;"/><path d="m33.82,97.8h-.18l.96-1.61h.17l-.96,1.61Z" style="stroke-width:0px;"/><path d="m35.31,97.11v-.34l-.26.18-.09-.16.3-.15-.3-.15.09-.16.26.18v-.34h.18v.34s.26-.18.26-.18l.09.15-.3.15.3.15-.09.16-.26-.19v.34s-.18,0-.18,0Z" style="stroke-width:0px;"/><path d="m44.62,97.8h-.18l.96-1.61h.17l-.96,1.61Z" style="stroke-width:0px;"/><path d="m45.82,97.8h-.18l.96-1.61h.17l-.96,1.61Z" style="stroke-width:0px;"/><path d="m54.22,97.8h-.18l.96-1.61h.17l-.96,1.61Z" style="stroke-width:0px;"/><path d="m55.42,97.8h-.18l.96-1.61h.17l-.96,1.61Z" style="stroke-width:0px;"/><path d="m63.82,97.8h-.18l.96-1.61h.17l-.96,1.61Z" style="stroke-width:0px;"/><path d="m65.02,97.8h-.18l.96-1.61h.17l-.96,1.61Z" style="stroke-width:0px;"/><path d="m73.42,97.8h-.18l.96-1.61h.17l-.96,1.61Z" style="stroke-width:0px;"/><path d="m74.62,97.8h-.18l.96-1.61h.17l-.96,1.61Z" style="stroke-width:0px;"/><path d="m85.42,97.8h-.18l.96-1.61h.17l-.96,1.61Z" style="stroke-width:0px;"/><path d="m101.03,97.8h-.18l.96-1.61h.17l-.96,1.61Z" style="stroke-width:0px;"/><path d="m31.71,99.51v-.34l-.26.18-.09-.16.3-.15-.3-.15.09-.16.26.18v-.34h.18v.34s.26-.18.26-.18l.09.15-.3.15.3.15-.09.16-.26-.19v.34s-.18,0-.18,0Z" style="stroke-width:0px;"/><path d="m32.62,100.2h-.18l.96-1.61h.17l-.96,1.61Z" style="stroke-width:0px;"/><path d="m44.62,100.2h-.18l.96-1.61h.17l-.96,1.61Z" style="stroke-width:0px;"/><path d="m54.22,100.2h-.18l.96-1.61h.17l-.96,1.61Z" style="stroke-width:0px;"/><path d="m55.42,100.2h-.18l.96-1.61h.17l-.96,1.61Z" style="stroke-width:0px;"/><path d="m63.82,100.2h-.18l.96-1.61h.17l-.96,1.61Z" style="stroke-width:0px;"/><path d="m65.02,100.2h-.18l.96-1.61h.17l-.96,1.61Z" style="stroke-width:0px;"/><path d="m74.62,100.2h-.18l.96-1.61h.17l-.96,1.61Z" style="stroke-width:0px;"/><path d="m76.12,99.51v-.34l-.26.18-.09-.16.3-.15-.3-.15.09-.16.26.18v-.34h.18v.34s.26-.18.26-.18l.09.15-.3.15.3.15-.09.16-.26-.19v.34s-.18,0-.18,0Z" style="stroke-width:0px;"/><path d="m86.62,100.2h-.18l.96-1.61h.17l-.96,1.61Z" style="stroke-width:0px;"/><path d="m87.83,100.2h-.18l.96-1.61h.17l-.96,1.61Z" style="stroke-width:0px;"/><path d="m30.22,102.6h-.18l.96-1.61h.17l-.96,1.61Z" style="stroke-width:0px;"/><path d="m31.71,101.91v-.34l-.26.18-.09-.16.3-.15-.3-.15.09-.16.26.18v-.34h.18v.34s.26-.18.26-.18l.09.15-.3.15.3.15-.09.16-.26-.19v.34s-.18,0-.18,0Z" style="stroke-width:0px;"/><path d="m43.42,102.6h-.18l.96-1.61h.17l-.96,1.61Z" style="stroke-width:0px;"/><path d="m54.22,102.6h-.18l.96-1.61h.17l-.96,1.61Z" style="stroke-width:0px;"/><path d="m55.72,101.91v-.34l-.26.18-.09-.16.3-.15-.3-.15.09-.16.26.18v-.34h.18v.34s.26-.18.26-.18l.09.15-.3.15.3.15-.09.16-.26-.19v.34s-.18,0-.18,0Z" style="stroke-width:0px;"/><path d="m65.02,102.6h-.18l.96-1.61h.17l-.96,1.61Z" style="stroke-width:0px;"/><path d="m75.82,102.6h-.18l.96-1.61h.17l-.96,1.61Z" style="stroke-width:0px;"/><path d="m89.03,102.6h-.18l.96-1.61h.17l-.96,1.61Z" style="stroke-width:0px;"/><path d="m29.02,105h-.18l.96-1.61h.17l-.96,1.61Z" style="stroke-width:0px;"/><path d="m42.22,105h-.18l.96-1.61h.17l-.96,1.61Z" style="stroke-width:0px;"/><path d="m43.42,105h-.18l.96-1.61h.17l-.96,1.61Z" style="stroke-width:0px;"/><path d="m54.22,105h-.18l.96-1.61h.17l-.96,1.61Z" style="stroke-width:0px;"/><path d="m65.02,105h-.18l.96-1.61h.17l-.96,1.61Z" style="stroke-width:0px;"/><path d="m77.02,105h-.18l.96-1.61h.17l-.96,1.61Z" style="stroke-width:0px;"/><path d="m90.23,105h-.18l.96-1.61h.17l-.96,1.61Z" style="stroke-width:0px;"/><path d="m41.02,107.4h-.18l.96-1.61h.17l-.96,1.61Z" style="stroke-width:0px;"/><path d="m42.22,107.4h-.18l.96-1.61h.17l-.96,1.61Z" style="stroke-width:0px;"/><path d="m54.22,107.4h-.18l.96-1.61h.17l-.96,1.61Z" style="stroke-width:0px;"/><path d="m65.02,107.4h-.18l.96-1.61h.17l-.96,1.61Z" style="stroke-width:0px;"/><path d="m66.52,106.71v-.34l-.26.18-.09-.16.3-.15-.3-.15.09-.16.26.18v-.34h.18v.34s.26-.18.26-.18l.09.15-.3.15.3.15-.09.16-.26-.19v.34s-.18,0-.18,0Z" style="stroke-width:0px;"/><path d="m77.02,107.4h-.18l.96-1.61h.17l-.96,1.61Z" style="stroke-width:0px;"/><path d="m78.22,107.4h-.18l.96-1.61h.17l-.96,1.61Z" style="stroke-width:0px;"/><path d="m41.02,109.8h-.18l.96-1.61h.17l-.96,1.61Z" style="stroke-width:0px;"/><path d="m53.02,109.8h-.18l.96-1.61h.17l-.96,1.61Z" style="stroke-width:0px;"/><path d="m54.22,109.8h-.18l.96-1.61h.17l-.96,1.61Z" style="stroke-width:0px;"/><path d="m65.32,109.11v-.34l-.26.18-.09-.16.3-.15-.3-.15.09-.16.26.18v-.34h.18v.34s.26-.18.26-.18l.09.15-.3.15.3.15-.09.16-.26-.19v.34s-.18,0-.18,0Z" style="stroke-width:0px;"/><path d="m66.22,109.8h-.18l.96-1.61h.17l-.96,1.61Z" style="stroke-width:0px;"/><path d="m78.22,109.8h-.18l.96-1.61h.17l-.96,1.61Z" style="stroke-width:0px;"/><path d="m53.41,112.2s-.08-.02-.11-.05-.05-.07-.05-.11.02-.08.05-.11c.03-.03.07-.05.11-.05s.08.02.11.05c.03.03.05.07.05.11s-.02.08-.05.11-.07.05-.11.05Z" style="stroke-width:0px;"/><path d="m66.61,112.2s-.08-.02-.11-.05-.05-.07-.05-.11.02-.08.05-.11c.03-.03.07-.05.11-.05s.08.02.11.05c.03.03.05.07.05.11s-.02.08-.05.11-.07.05-.11.05Z" style="stroke-width:0px;"/><path d="m53.41,114.6s-.08-.02-.11-.05-.05-.07-.05-.11.02-.08.05-.11c.03-.03.07-.05.11-.05s.08.02.11.05c.03.03.05.07.05.11s-.02.08-.05.11-.07.05-.11.05Z" style="stroke-width:0px;"/><path d="m66.61,114.6s-.08-.02-.11-.05-.05-.07-.05-.11.02-.08.05-.11c.03-.03.07-.05.11-.05s.08.02.11.05c.03.03.05.07.05.11s-.02.08-.05.11-.07.05-.11.05Z" style="stroke-width:0px;"/></g></svg>